<?xml version="1.0" standalone="no"?>
<!DOCTYPE svg PUBLIC "-//W3C//DTD SVG 1.1//EN" "http://www.w3.org/Graphics/SVG/1.1/DTD/svg11.dtd" >
<svg>
<metadata>
Created by FontForge 20090622 at Fri Mar 23 13:12:07 2018
 By deploy user
Copyright 1997 International Typeface Corporation. All rights reserved.
</metadata>
<defs>
<font id="PristinaStd" horiz-adv-x="423" >
  <font-face 
    font-family="Pristina Std"
    font-weight="400"
    font-stretch="normal"
    units-per-em="1000"
    panose-1="2 0 5 3 9 0 0 2 0 3"
    ascent="800"
    descent="-200"
    x-height="385"
    cap-height="650"
    bbox="-424.846 -446.654 1104 864.042"
    underline-thickness="3"
    underline-position="-8"
    unicode-range="U+0020-U+FB03"
  />
<missing-glyph horiz-adv-x="500" 
d="M12 0v665h475v-665h-475zM88 618l162 -243l161 243h-323zM60 575v-484l40 61l80 120l41 61zM440 575l-162 -242l162 -243v485zM411 48l-161 242l-162 -242h323z" />
    <glyph glyph-name="f_f" unicode="ff" horiz-adv-x="447" 
d="M377 393q68 -11 98 -11q8 0 10.5 -5t-0.5 -10t-10 -6q-50 -10 -114 -13q-66 -197 -99 -355t-27 -197q3 -23 -1 -24.5t-37 15.5q-33 21 -28 45q39 204 137 517q-73 4 -140 0q-72 -214 -106.5 -375.5t-27.5 -200.5q3 -23 -1.5 -25t-36.5 16q-33 19 -28 45q41 217 144 539
q-36 -3 -46 -2t-14 10q-6 8 -6 15t16 11q9 2 23.5 5.5t22 5t14.5 5.5t9 10q54 157 91 242t59 111t44 26q31 0 107 -54q8 -6 7.5 -12.5t-7 -8.5t-15.5 2q-47 26 -78 7q-49 -32 -155 -326q13 -2 103 -2q34 1 47 38q54 157 91 242t59 111t44 26q33 0 107 -54q8 -6 7.5 -12.5
t-7 -8.5t-15.5 2q-47 28 -78 7q-49 -31 -154 -325z" />
    <glyph glyph-name="f_i" unicode="fi" horiz-adv-x="364" 
d="M169 349q-74 -213 -109 -375t-28 -201q3 -23 -1.5 -25t-36.5 16q-33 19 -28 45q41 217 144 539q-36 -3 -46 -2t-14 10q-6 8 -6 15t16 11q9 2 23.5 5.5t22 5t14.5 5.5t9 10q54 157 91 242t59 111t44 26q31 0 107 -54q8 -6 7.5 -12.5t-7 -8.5t-15.5 2q-47 26 -78 7
q-51 -33 -152 -326q54 -8 85 -8q10 9 14 8.5t17 -10.5q3 -1 8.5 -2t8 -2t7 -2.5t6 -3.5t4 -6t3 -9t0.5 -12t-2 -16q-11 -63 -61 -219q14 12 38 46q7 9 11 3q2 -4 -1 -12q-12 -28 -35 -67q-23 -37 -42 -83q-4 -10 -17.5 -11t-37.5 11q-12 6 -13 9t5 14q27 46 58.5 153
t35.5 159q0 9 -3.5 12.5t-16.5 3.5q-51 0 -88 -2zM292 498q43 38 58 56q9 13 17.5 12.5t37.5 -20.5q8 -6 8.5 -12.5t-7 -14.5t-14.5 -14t-21 -16q-3 -2 -9 -6.5t-8 -5t-6.5 -3t-6.5 -2.5t-6.5 -0.5t-8.5 0.5t-9 3q-32 12 -31 21q0 3 6 2z" />
    <glyph glyph-name="f_l" unicode="fl" horiz-adv-x="386" 
d="M226 42q0 6 6 41t24.5 115.5t44.5 170.5q-4 0 -11 -3l-8 -3q-48 -10 -116 -14q-72 -214 -106.5 -375.5t-27.5 -200.5q3 -23 -1.5 -25t-36.5 16q-33 19 -28 45q41 217 144 539q-36 -3 -46 -2t-14 10q-6 8 -6 15t16 11q9 2 23.5 5.5t22 5t14.5 5.5t9 10q54 157 91 242
t59 111t44 26q31 0 107 -54q8 -6 7.5 -12.5t-7 -8.5t-15.5 2q-47 26 -78 7q-49 -32 -155 -326q73 -11 95 -12q7 0 19 6.5t15 15.5q49 161 100 263t85 133q7 7 13.5 10t13.5 2.5t12.5 -2t14.5 -8l15.5 -11.5t19.5 -16l22 -18q7 -5 6 -11t-7 -7.5t-14 1.5q-14 7 -21.5 9.5
t-20.5 1t-27.5 -16t-31.5 -42.5q-129 -211 -194 -582q12 12 23.5 26t17 19.5t10.5 5.5t6 -4t-4 -11q-39 -57 -53 -104q-2 -5 -9 -36q-4 -15 -11 -17q-4 -2 -13 3l-9 6t-8 5t-6.5 4.5t-6 5.5t-4 5t-3 6t-1 7.5t-0.5 9.5z" />
    <glyph glyph-name="f_f_i" unicode="ffi" horiz-adv-x="568" 
d="M362 348q-71 -212 -102.5 -364t-24.5 -191q3 -23 -1.5 -25t-36.5 16q-33 19 -28 45q40 215 139 519q-105 3 -141 1q-73 -214 -107.5 -375.5t-27.5 -200.5q3 -23 -1.5 -25t-36.5 16q-33 19 -28 45q43 228 146 539q-36 -3 -46 -2t-14 10q-6 8 -6 15t16 11q9 2 23.5 5.5
t22 5t14.5 5.5t9 10q53 156 89.5 241.5t58.5 111.5t44 26q34 0 97 -46q13 -10 6 -20t-20 -2q-38 22 -69 2q-50 -32 -154 -326q53 -8 102 -2l5 1q6 0 7 0.5t6 1.5t7 2.5l6 4.5t6.5 6.5t5.5 9t6 12.5q53 156 89.5 240t58.5 110t44 26q31 0 107 -54q8 -6 7.5 -12.5t-7 -8.5
t-15.5 2q-47 26 -78 7q-50 -33 -153 -322l-9 -24q62 -8 91 -8q9 9 13.5 8.5t17.5 -10.5q2 -1 9 -2.5t9 -2.5t7 -3t6.5 -5.5l3.5 -8.5t1.5 -13t-2.5 -18q-6 -35 -28 -111.5t-33 -107.5q9 8 39 46q6 8 10 3q3 -3 -1 -12q-16 -37 -35 -67q-23 -37 -42 -83q-10 -25 -55 0
q-12 6 -12.5 9t5.5 14q26 47 57.5 154t35.5 158q1 8 -3 12t-17 4q-51 0 -93 -3zM490 498q43 37 59 56q8 13 16.5 12.5t37.5 -20.5q8 -6 8.5 -12.5t-7 -14.5t-14.5 -14t-21 -16q-3 -2 -9 -6.5t-8 -5t-6.5 -3t-6.5 -2.5t-6.5 -0.5t-8.5 0.5t-9 3q-32 12 -31 21q0 3 6 2z" />
    <glyph glyph-name=".notdef" horiz-adv-x="500" 
d="M12 0v665h475v-665h-475zM88 618l162 -243l161 243h-323zM60 575v-484l40 61l80 120l41 61zM440 575l-162 -242l162 -243v485zM411 48l-161 242l-162 -242h323z" />
    <glyph glyph-name=".null" horiz-adv-x="0" 
 />
    <glyph glyph-name="nonmarkingreturn" horiz-adv-x="333" 
 />
    <glyph glyph-name="space" unicode=" " horiz-adv-x="180" 
 />
    <glyph glyph-name="exclam" unicode="!" horiz-adv-x="240" 
d="M231 639q12 22 21 25.5t19 -2.5q54 -15 49 -29q-2 -7 -15 -9q-45 -77 -91 -196.5t-75 -219.5q-6 -23 1 -36q6 -9 -4 -10q-11 0 -27 11q-17 12 -20 18.5t1 27.5q27 117 75 251t66 169zM93 -12q-4 -10 -17 -4q-29 13 -34.5 28.5t1.5 30.5l2.5 12.5t2 11t2 10t3 8t4.5 5t6 2
t8 -1.5q31 -13 37.5 -19t1.5 -18q-7 -17 -17 -65z" />
    <glyph glyph-name="quotedbl" unicode="&#x22;" horiz-adv-x="276" 
d="M109 470q25 80 34 164q3 30 10 33h2.5t3.5 -2l3.5 -3.5t4.5 -5.5t5.5 -7l7 -8.5l8.5 -10.5q10 -13 10 -27q3 -34 -23 -109q-16 -46 -24 -61t-18 -9q-25 15 -29 37q0 5 1 7.5t4 1.5zM225 471q25 78 34 164q3 30 10 33h2.5t3.5 -2l3.5 -3.5t4.5 -5.5t5.5 -7l7 -8.5
l8.5 -10.5q9 -11 10 -27q3 -34 -24 -109q-15 -44 -23.5 -60t-17.5 -10q-11 6 -19.5 17t-9.5 20q-2 9 5 9z" />
    <glyph glyph-name="numbersign" unicode="#" horiz-adv-x="623" 
d="M195 457q-27 -1 -40.5 -4t-16.5 -5t-11 -9q-8 -8 -15 -8q-6 0 -6 7l4.5 9t7 16.5t5.5 19.5q5 14 11.5 19t21.5 5q10 0 16 -1q31 -5 104 -7l19 59q20 48 20 99q0 20 -7 26t-7 11q0 8 16 10l46 9q22 0 22 -20q0 -7 -3 -18l-57 -176q87 0 128 1l22 68q21 52 21 101
q0 18 -6 24q-9 7 -9 12q0 7 16 9l46 9q22 0 22 -20q0 -7 -3 -18l-59 -184q8 0 24.5 0.5t23.5 1.5q43 2 55.5 6t22.5 17q9 9 15 9q5 0 5 -7v-1q0 -2 -5.5 -15t-7.5 -26q-2 -15 -11 -21.5t-37 -7.5q-29 -1 -100 -3l-58 -183q27 0 61 2q45 3 57 7t21 16q7 9 15 9q4 0 4 -5v-2
q0 -3 -1.5 -8t-5 -15t-5.5 -19q-2 -15 -10.5 -21.5t-35.5 -7.5q-10 -1 -116 -3l-28 -90q-18 -90 -18 -104q0 -18 6 -24q5 -5 5 -10q0 -12 -28 -12h-7l-26 3q-22 0 -22 21q0 9 4 20l63 196q-86 0 -126 1l-30 -97l-6 -25q-6 -25 -10 -48t-4 -38q0 -16 5 -21q6 -6 6 -10
q0 -12 -27 -12h-7l-26 3q-22 0 -22 21q0 9 4 20l67 207q-9 0 -26 0.5t-24 1.5q-39 -2 -49.5 -5t-21.5 -13q-8 -8 -14 -8t-6 7l4.5 9t7 17t5.5 20q6 13 12.5 18.5t20.5 5.5q4 0 18 -2q29 -4 88 -6l59 185q-30 0 -66 2zM438 454h-128l-58 -185q20 0 63 0.5t64 0.5z" />
    <glyph glyph-name="dollar" unicode="$" horiz-adv-x="386" 
d="M137 -3q-8 -29 -9 -46q-5 -32 0 -42q2 -4 0 -8t-6 -5t-11 4q-35 29 -22 66q2 8 6.5 22.5l6.5 20.5q-54 22 -83 49q-7 6 -11 11t-5.5 11t-2.5 9t1.5 10.5t3 10t5.5 12t6 12.5q17 38 27 -1q9 -30 79 -61q35 113 77 234q-62 118 -62 173q0 36 19.5 63.5t62.5 58.5
q18 12 26 1q7 -8 -4 -19q-40 -38 -38 -85q1 -46 27 -104q43 119 84 212q-4 -2 -19 -7q-13 -4 -20.5 -1t-6 11t13.5 14q20 10 50 21l40 84q11 21 26.5 24t23.5 -3q10 -2 11 -9t-8 -12q-13 -6 -28 -35l-7.5 -15t-8.5 -16q3 1 7 3q22 5 27 2t22 -25q34 -13 40.5 -21t-1.5 -34
q-20 -61 -50 -109q-13 -20 -26 -20t-42 20q-24 16 6 26q11 4 26.5 42t15.5 58q0 15 -8 18.5t-37 -2.5q-48 -107 -110 -269l29 -53l29.5 -53t19 -42.5t8.5 -40.5q0 -47 -27 -81t-59 -53q-23 -38 -64 -38q-22 0 -50 7zM153 60q38 -12 61 -12q26 0 40 17.5t16 32.5t1 30
q-2 44 -51 138q-46 -131 -67 -206z" />
    <glyph glyph-name="percent" unicode="%" horiz-adv-x="566" 
d="M174 406q-33 2 -56 20t-23 47q-1 33 23 96.5t54 87.5q14 11 24 12t17.5 -3.5t25.5 -20.5q5 2 13.5 6.5t12 6t9.5 3.5t8.5 2t7.5 -0.5t8 -3.5l7.5 -7.5t9.5 -11.5q16 -22 17 -39.5t-9 -47.5q-30 -92 -69 -130q-22 -20 -61 -20zM226 621q-21 -4 -23 -1q-35 -45 -50 -121
q-7 -38 0.5 -58t25.5 -20q35 0 64.5 59t38.5 120q4 20 2 27t-15 6q-34 -8 -43 -12zM334 -9q-32 2 -55.5 20.5t-23.5 46.5q-1 33 23 96.5t54 88.5q14 11 24 11.5t17.5 -4t25.5 -20.5q5 2 13.5 6.5t12 6t9.5 3.5t8.5 2t7.5 -0.5t8 -3.5l7.5 -7.5t9.5 -11.5q16 -22 17 -39.5
t-9 -47.5q-32 -96 -69 -131q-16 -16 -61 -19zM386 207q-20 -8 -23 -2q-17 -22 -31 -59t-19 -63q-7 -37 1 -57.5t25 -20.5q35 0 64.5 59.5t38.5 120.5q4 20 2 27t-15 5q-34 -7 -43 -10zM170 123q-20 -27 -45.5 -75t-19.5 -64q6 -15 0.5 -21t-16.5 2l-30 21q-26 17 -1 54
l353 501q20 29 41 71.5t14 58.5q-6 14 -0.5 20t16.5 -1l30 -20q24 -15 4 -52z" />
    <glyph glyph-name="ampersand" unicode="&#x26;" horiz-adv-x="713" 
d="M303 305q-129 -98 -174.5 -153t-52.5 -95q-3 -19 12 -24t34 -2q29 5 78 26t90 49q7 6 11.5 17.5t14.5 17.5q1 1 7 4.5t8.5 4.5t8 3t8 1.5t6 -2t5 -6.5t2.5 -13q2 -27 -1.5 -35.5t-18.5 -17.5q-32 -21 -111 -59t-119 -38q-35 0 -56 39q-45 34 -45 61q0 33 52.5 89.5
t107.5 100.5t112 84q-44 116 -44 187q0 33 111 19q14 -2 18 -6t3 -10q64 -3 92 -18q14 -8 15.5 -22.5t-4.5 -55.5q-3 -25 -77 -79l-48 -35l25 -57q64 -4 143 2t98 16q7 3 11.5 6t7 5t4 4t2 3t0.5 3.5v3.5q1 4 7 7t11.5 0.5t5.5 -11.5q0 -20 -7.5 -50.5t-20.5 -39.5
q-6 -5 -37.5 -5.5t-89.5 0t-106 -3.5q60 -123 117 -209t87 -85q9 0 17.5 2t16.5 6t12 7l12 9l7 5q5 4 12 3t9.5 -6.5t-4.5 -16.5q-13 -20 -49.5 -52t-54.5 -32q-37 0 -104.5 110.5t-135.5 251.5q-31 -2 -35.5 5.5t18.5 32.5q-13 27 -24 53v1zM328 387q40 27 70 55.5t32 37.5
q3 13 -38.5 31.5t-59.5 18.5q-39 0 -33 -45q4 -30 29 -98z" />
    <glyph glyph-name="quotesingle" unicode="'" horiz-adv-x="160" 
d="M109 479q26 79 34 164q3 30 10 32q5 2 27 -26l8 -11q10 -12 10 -27q3 -34 -23 -108q-15 -44 -24 -59.5t-18 -11.5q-25 12 -29 37q0 10 5 10z" />
    <glyph glyph-name="parenleft" unicode="(" horiz-adv-x="400" 
d="M373 709q44 0 110 -48q15 -11 7 -20.5t-21 -3.5q-38 19 -62 19q-35 0 -85.5 -95.5t-94 -233.5t-61.5 -258q-8 -57 5 -78t69 -45q15 -6 13 -21q-1 -12 -15 -9q-85 18 -115 43.5t-22 85.5q7 62 27.5 148.5t50 175.5t62 166t68 125.5t64.5 48.5z" />
    <glyph glyph-name="parenright" unicode=")" horiz-adv-x="400" 
d="M83 -87q-45 1 -106 48q-8 7 -7 13t9 9t16 0q39 -16 63 -16q31 0 78.5 85.5t92 224.5t64.5 277q8 55 -10 79.5t-67 45.5q-9 4 -11.5 12t2 13t14.5 3q88 -21 116.5 -46.5t21.5 -82.5q-8 -65 -34.5 -172.5t-64 -220t-86 -193t-91.5 -79.5z" />
    <glyph glyph-name="asterisk" unicode="*" horiz-adv-x="265" 
d="M217 545l-14 -21.5t-14 -22.5q-7 -11 -12 -11.5t-17 8.5q-18 13 -5 28q21 26 34 40q-5 1 -52 12q-12 3 -14 8t3 19q4 12 8.5 15t16.5 -1q38 -16 48 -21q-1 9 -2 26t-2 27q-1 13 3 16.5t19 3.5q13 0 17.5 -4t3.5 -16q-1 -30 -4 -52q11 5 49 20q12 4 16 2t9 -16
q4 -13 1.5 -18.5t-14.5 -8.5l-50 -12q7 -7 17.5 -20l16.5 -20q8 -10 7 -15t-13 -13q-10 -8 -16.5 -8t-12.5 11l-12.5 20.5z" />
    <glyph glyph-name="plus" unicode="+" 
d="M391 211h-144v-177h-50v177h-144v50h144v176h50v-176h144v-50z" />
    <glyph glyph-name="comma" unicode="," horiz-adv-x="200" 
d="M43 -77q6 -3 -1 -11q-16 -18 -42 -15q-15 2 8 82q20 77 42 105q9 12 22 16q45 16 47 12q3 -6 -10 -33q-39 -72 -66 -156z" />
    <glyph glyph-name="hyphen" unicode="-" horiz-adv-x="363" 
d="M252 192q17 0 26 3.5t11 6.5t7 13q3 7 9 5.5t5 -9.5q-4 -26 -5 -41q-2 -21 -6.5 -24t-14.5 -3q-71 0 -185 28q-26 5 -32.5 2.5t-12.5 -13.5q-4 -7 -9.5 -4t-3.5 11q1 5 9 40q1 2 1.5 7t1 6.5t1.5 4t2.5 3t3.5 1.5t5 0t8 -2q112 -34 179 -35z" />
    <glyph glyph-name="period" unicode="." horiz-adv-x="200" 
d="M-3 5q26 59 31 80q5 18 10 20t38 -8q8 -3 11 -8t1.5 -13.5t-5.5 -18l-10 -24.5q-3 -6 -4 -9q-13 -32 -26.5 -35.5t-42.5 3.5q-6 1 -7.5 6t4.5 7z" />
    <glyph glyph-name="slash" unicode="/" horiz-adv-x="400" 
d="M143 123q-20 -29 -44 -76t-18 -63q7 -16 -4.5 -24.5t-31.5 5.5l-28 21q-25 18 0 54l334 501q19 29 38 69t12 56q-6 14 0 21.5t18 2.5l49 -20q22 -15 4 -52z" />
    <glyph glyph-name="zero" unicode="0" 
d="M89 20l-27.5 18.5t-18.5 17t-13.5 25t-2 34.5t4.5 54q10 75 57 171t87 134q11 10 19 14.5t18.5 3t16 -3t21.5 -10l24 -12.5q9 1 34 4.5t38 3.5t30 -3.5t25 -16.5t8 -35q0 -98 -25 -199t-69.5 -170t-95.5 -69q-59 0 -113 23q-10 4 -14.5 8t-4.5 6zM346 383q0 43 -26 52
t-62 -1q-17 5 -21.5 3t-32.5 -28q-47 -44 -80.5 -138t-33.5 -171q0 -25 19.5 -46.5t46.5 -31.5q46 -18 92 32q40 45 69 143t29 186z" />
    <glyph glyph-name="one" unicode="1" horiz-adv-x="252" 
d="M115 -8q-37 16 -43 24q-10 14 0 63q34 166 84 265q-98 -108 -114 -121q-16 -12 -28 0q-10 11 5 23q47 37 92.5 98.5t70.5 107.5q8 13 11.5 15t15.5 -2q11 24 26.5 25.5t51.5 -21.5q13 -8 8 -17.5t-24 -10.5q-45 -59 -82.5 -165t-49.5 -215q-2 -26 -1 -31.5t7 -15.5
q8 -11 0.5 -21.5t-30.5 -0.5z" />
    <glyph glyph-name="two" unicode="2" horiz-adv-x="437" 
d="M83 331q-26 39 1 58q63 46 126.5 75t100.5 28q12 -1 20 -8.5t19 -27.5q5 1 17.5 5t16.5 3.5t11 -4.5t9 -17.5t2 -37.5v-15.5v-14.5t-0.5 -13t-2 -14t-3.5 -13.5t-5.5 -15t-8.5 -15t-12 -17.5l-16 -18.5t-20 -21.5q-89 -94 -191 -175q51 -4 124 -22t119 -36q12 -5 19 -13
t9.5 -12.5t1.5 -17.5t-1.5 -14.5t-4.5 -15.5q-3 -12 -15 -13q-9 0 -16 13q-1 1 -2 5t-2.5 6t-8 5.5t-18.5 7.5q-153 49 -278 40q-6 -6 -13.5 -14.5t-13.5 -14.5q-3 -3 -5.5 -4.5t-5.5 -1.5h-5t-7 1.5t-7 1.5q-1 0 -4 1.5t-3.5 1.5t-3.5 1.5t-3 2t-2.5 2t-2 3t-1 4t-0.5 4.5
t0 6q4 39 11 60q7 22 28 24.5t67 -4.5q104 84 191 191q22 27 32.5 52t11 34.5t0.5 30.5q0 12 -1 17t-6 12.5t-16.5 7t-31.5 -0.5q-28 -3 -66.5 -23t-67.5 -42q-17 -14 -18 -27.5t5 -27.5q1 -16 -6.5 -15.5t-16.5 9.5z" />
    <glyph glyph-name="three" unicode="3" horiz-adv-x="383" 
d="M80 328q-1 2 -9 13t-10 13.5t-5.5 11.5t-1.5 14t7 13t15 15q72 53 144 75q15 5 25.5 6.5t17.5 -3t10 -7t9 -13t8 -14.5q21 -14 33 -29.5t10.5 -37t-23.5 -40.5q-55 -49 -159 -112q113 -12 182 -59q21 -14 21.5 -26.5t-10.5 -29.5q14 -24 10.5 -52t-23.5 -49
q-70 -76 -172 -140.5t-169 -64.5q-12 0 -23.5 3.5t-18.5 6.5t-18.5 13l-15 13t-16 17t-13.5 15q-13 14 -5 23t22 1q27 -16 40 -21t42 -2t75 21q73 29 142 78.5t96 94.5q31 49 -9 75q-64 38 -146 32q-7 -1 -23 -4.5t-23 -2t-9 11.5q-4 23 -4 53q0 14 25 26q50 24 71.5 35.5
t49.5 33.5t46 49q25 38 -10 43q-31 4 -78 -20q-77 -41 -85 -72q-2 -11 -9.5 -13t-12.5 6z" />
    <glyph glyph-name="four" unicode="4" horiz-adv-x="463" 
d="M8 88q5 4 14 12t33.5 33.5t47 52t49 65.5t44.5 76l-28 44q-4 9 1.5 14t16.5 3q7 -1 19 17q50 74 58 92q3 6 8 9.5t9.5 4t11 -1.5t10 -3.5t10.5 -5.5t8 -5q11 -5 11 -13.5t-7 -25.5q-36 -88 -113 -197t-131 -163q-8 -9 11 -11q109 -14 188 -6q38 141 77 229q5 12 10 19.5
t11.5 10.5t9.5 3.5t11 0t10 -0.5q15 0 15.5 -4.5t-9.5 -13.5q-18 -18 -42.5 -91.5t-40.5 -147.5q45 0 55 21q8 9 11 10q3 0 5.5 -0.5t4 -1.5t2.5 -3t2 -4.5t2 -7.5t1.5 -9.5t2 -12t3.5 -14.5q6 -15 1.5 -25.5t-28.5 -13.5q-16 -3 -34.5 -4t-29.5 -1h-11q-16 -74 -20 -134
q1 -14 0 -16t2.5 -5.5l4.5 -4.5q5 -7 -2 -15t-18 -4q-36 13 -44 22q-11 12 -7 37q2 12 28 119q-149 -4 -223 2q-5 -13 -9 -15.5t-21 0.5q-12 2 -16.5 11t-5.5 41q-1 13 4.5 21t10.5 9z" />
    <glyph glyph-name="five" unicode="5" horiz-adv-x="435" 
d="M389 183q-26 -78 -82.5 -161t-116.5 -143t-115 -99t-83 -42q-20 -2 -36 13q-37 32 -50 53q-8 13 -0.5 22t18.5 1q31 -18 51 -18q19 0 56 21.5t81 60.5t87 86.5t78.5 105t49.5 110.5q12 45 -10 60t-59 5q-45 -13 -74.5 -29t-77.5 -52q-2 -1 -6 -7.5l-7 -11.5t-9 -7t-11 6
q-21 24 -36 64q-7 16 4 37q19 39 39 93.5t24 77.5l-11 25q-11 24 -7 35q5 14 18 16t34 -3q128 -21 221 -21q13 26 25 26q15 -1 18 -6q1 -3 2 -9q6 -35 6 -67q0 -25 -34 -19q-138 30 -204 30q-16 0 -21 -11q-54 -131 -65 -174q-1 -5 2 -5t15 6q114 63 163.5 69.5t64.5 -37.5
q47 -20 58.5 -38t-0.5 -63z" />
    <glyph glyph-name="six" unicode="6" horiz-adv-x="451" 
d="M142 -4q-47 4 -79.5 23t-32.5 54q0 118 35.5 240t84.5 207t99 139.5t81 55.5q32 1 88 -42q4 -3 6 -6t1.5 -6t-2 -5t-4.5 -3t-6 0q-29 6 -66 -4q-21 -5 -61.5 -53.5t-84 -121t-75 -177t-31.5 -203.5q0 -35 9.5 -49.5t30.5 -20.5q37 -10 82 23q39 30 88 118t60 151
q7 40 -9 45.5t-42 -7.5q-49 -15 -116 -53q-8 -5 -15.5 -1.5t-8.5 10.5t6 14q58 45 122 72q21 12 38.5 8t25 -10t17.5 -20l15 -6l12.5 -5t9 -4.5t7 -6.5t3 -8.5t1.5 -12.5t-2 -16.5t-4 -22.5q-13 -70 -62 -153t-98 -126q-25 -22 -55.5 -26.5t-49.5 2.5z" />
    <glyph glyph-name="seven" unicode="7" horiz-adv-x="409" 
d="M55 354q15 65 32 109q9 22 24 27t60 -1q155 -22 201 -26q1 2 3 7.5t2.5 7t2 5t2.5 4.5t2.5 3.5t3 3t3 1.5t4 1t5 0.5t6.5 0.5q17 0 22 -7t8 -36q1 -12 0 -20t-5 -13.5t-6.5 -8t-10 -7t-10.5 -6.5q-22 -14 -157 -271t-162 -342q-3 -10 -8 -22.5t-7.5 -19.5t-4 -15.5
t-1.5 -15.5q2 -16 -2.5 -20t-17.5 7q-23 21 -41 54q-9 10 -8 26t19 47l29 52.5l25.5 45.5l24.5 43l35.5 60.5l49 82l74 123.5l102.5 170q-71 14 -175 10q-35 -1 -58 -21.5t-34 -43.5q-5 -11 -14 -15.5t-15 1t-3 19.5z" />
    <glyph glyph-name="eight" unicode="8" horiz-adv-x="475" 
d="M81 31q-4 3 -18 12.5t-18 12.5t-14.5 11.5t-13.5 13t-9 12.5t-6 15v16.5t4 19.5t11 22q20 35 67 78t97 82.5t60 49.5q-30 21 -49.5 52.5t-19.5 65.5q1 107 134 209q25 20 46.5 17t53.5 -35q10 -10 4.5 -16.5t-16.5 -3.5q-57 12 -111 -61.5t-54 -127.5q0 -13 5 -24.5
t10 -18t14.5 -16t12.5 -13.5q67 57 122.5 120.5t58.5 97.5q1 15 -1.5 24.5t-6.5 14t-14 11.5q-7 7 -5 15.5t9.5 11t18.5 -3.5q23 -16 37 -28.5t26.5 -31.5t8 -40.5t-25.5 -45.5q-34 -38 -107.5 -98.5t-85.5 -74.5q14 -12 36 -28t40.5 -31.5t36.5 -36.5q32 -34 19.5 -87
t-66.5 -102q-115 -105 -235 -105q-15 0 -29 11.5t-20 22.5zM87 134q-11 -18 -12.5 -36.5t18 -34t61.5 -15.5q69 0 150 69.5t81 129.5q0 18 -29 44.5t-80 54.5l-32.5 -27.5t-70.5 -73t-86 -111.5z" />
    <glyph glyph-name="nine" unicode="9" horiz-adv-x="455" 
d="M444 360q-16 -98 -61.5 -214.5t-100 -211.5t-112.5 -159.5t-98 -67.5q-41 -2 -101 47q-11 8 -6.5 18t21.5 7q46 -9 68 0q85 34 192 223t127 349q5 44 -13 71t-46.5 26t-60.5 -24q-55 -47 -106.5 -124t-60.5 -152q-3 -26 12.5 -34t52.5 6q51 22 117 68q16 12 24 4t-8 -25
q-71 -77 -110 -101q-25 -16 -46.5 -12t-54.5 30q-4 3 -17.5 5.5t-21.5 7t-15.5 22t1.5 50.5q16 74 76 166t113 130q32 23 51.5 24.5t46.5 -11.5q9 14 56 -5q61 -25 75 -45.5t6 -67.5z" />
    <glyph glyph-name="colon" unicode=":" horiz-adv-x="200" 
d="M64 205q23 53 31 80q5 18 10 20t38 -8q8 -3 11 -8t1.5 -13.5t-5.5 -18l-10 -24.5q-3 -6 -4 -9q-14 -32 -27.5 -35.5t-41.5 3.5q-6 1 -7.5 6t4.5 7zM-2 5q26 62 30 80q5 18 10 20t38 -8q8 -3 11 -8t1.5 -13.5t-5.5 -18l-10 -24.5q-3 -6 -4 -9q-13 -32 -26.5 -35.5
t-42.5 3.5q-6 1 -7.5 6t5.5 7z" />
    <glyph glyph-name="semicolon" unicode=";" horiz-adv-x="200" 
d="M43 -77q6 -3 -1 -11q-16 -18 -42 -15q-15 2 8 82q20 77 42 105q9 12 22 16q45 16 47 12q3 -6 -10 -33q-39 -72 -66 -156zM64 205q23 53 31 80q5 18 10 20t38 -8q8 -3 11 -8t1.5 -13.5t-5.5 -18l-10 -24.5q-3 -6 -4 -9q-14 -32 -27.5 -35.5t-41.5 3.5q-6 1 -7.5 6t4.5 7z
" />
    <glyph glyph-name="less" unicode="&#x3c;" 
d="M381 28l-338 186v44l338 185v-57l-278 -150l278 -151v-57z" />
    <glyph glyph-name="equal" unicode="=" 
d="M391 301h-338v50h338v-50zM391 121h-338v50h338v-50z" />
    <glyph glyph-name="greater" unicode="&#x3e;" 
d="M391 213l-338 -185v57l277 150l-277 151v57l338 -186v-44z" />
    <glyph glyph-name="question" unicode="?" horiz-adv-x="467" 
d="M105 425q-17 21 -21 26.5t-9 17.5t-0.5 19.5t15.5 19.5q116 116 214 151q22 8 36.5 9t26 -6t17.5 -13.5t19 -23.5q26 -4 48.5 -17t22.5 -30q0 -47 -72 -153t-148 -185l50 17q11 4 16 -8q6 -12 -11 -19q-79 -26 -111 -56q-11 -13 -20.5 -9t-15.5 14t-13 31q0 4 -1 5.5t1 5
t3 5t4.5 5t5.5 5t6.5 5.5t7.5 6q73 60 146 159.5t78 156.5q4 32 -21.5 44t-52.5 -1q-106 -44 -185 -136q-10 -11 -4.5 -31.5t-1.5 -23.5q-12 -10 -30 10zM110 19q51 45 64 62q9 15 18.5 14.5t41.5 -23.5q9 -7 11 -13t-5.5 -15.5t-14 -16t-24.5 -21.5q-12 -11 -20 -16.5
t-18 -5t-13 1t-18.5 9t-22.5 11.5q-9 3 -7 10q2 4 8 3z" />
    <glyph glyph-name="at" unicode="@" horiz-adv-x="781" 
d="M537 179h-17q-14 0 -31 12q-15 10 -15 28v3q10 61 27 121q-35 -47 -79.5 -94t-65.5 -62q-16 -11 -29 -11q-18 0 -29 9l-3 2q-23 13 -23 42v5q11 56 56.5 135.5t96.5 128.5q20 18 37 18q3 0 6 -0.5t5 -1t5 -2t4.5 -2.5l5 -3.5l5 -3.5t5 -4.5t5.5 -5t6.5 -5.5t6.5 -6
q5 -4 5 -9q0 -10 -13 -10q-4 0 -10 2t-10 2q-11 0 -24 -7q-36 -28 -82 -99t-57 -131q0 -7 8 -7q14 0 26 12q43 41 94 105.5t67 99.5q1 2 3 8t3 8l7 20q7 19 17 19q11 0 32 -16q12 -11 12 -19q0 -5 -3 -14q-32 -85 -50 -166q-8 -33 -12 -66h10q84 2 144.5 67t60.5 172
q0 43 -14 77t-36.5 55.5t-53 35.5t-61 20t-63.5 6q-109 0 -196.5 -64.5t-132.5 -164.5t-45 -213q0 -88 61 -132.5t177 -44.5q129 0 235 59l15 -31q-120 -69 -251 -69q-62 0 -114 11t-96 34.5t-68.5 66.5t-24.5 102v2q0 126 59 238t160.5 180t219.5 68q40 0 75.5 -5
t74.5 -20.5t67 -41t46 -69t18 -101.5q0 -64 -30 -123.5t-90.5 -102.5t-138.5 -47z" />
    <glyph glyph-name="A" unicode="A" horiz-adv-x="640" 
d="M608 668q20 8 25 -0.5t-8 -27.5q-30 -43 -57 -233q-24 -169 -22 -261q1 -30 4.5 -50t6.5 -29t11.5 -12t11.5 -2.5t13 4.5q3 1 4 1q15 6 19 -1t-6 -16q-30 -26 -75 -48q-39 -21 -51 33t-4 203q-117 -7 -221 -19l-97 -118q2 0 9.5 1.5t10.5 1.5t9 -2t9.5 -7t8.5 -15t9 -24
q6 -23 -1 -28t-22 2q-40 11 -125 -43q-5 -3 -11 -8t-8 -5t-6 1t-11 6q-22 15 -32 38q-3 10 0 15.5t17 14.5q30 19 83 65.5t69 67.5q-4 29 -4 48t10 28q13 13 73 16q48 59 106.5 145t88.5 143q-19 -10 -48.5 -20l-81 -26.5t-93.5 -31.5q-62 -22 -51 -88q2 -11 -2.5 -15.5
t-10.5 -2.5t-9 8q-27 56 -32 79l-2 6q-2 5 -2 8.5v9.5t2.5 11.5t7.5 11.5q25 29 117 43q48 7 112 24.5t100 33.5q14 14 17 26q7 26 43 -15q6 -6 6.5 -13.5t-0.5 -11t-7.5 -13t-7.5 -12.5q-37 -65 -100.5 -161t-100.5 -138q116 0 182 6q3 31 9.5 73.5t13.5 83l13 74t11.5 60
t5.5 28.5q6 51 71 77z" />
    <glyph glyph-name="B" unicode="B" horiz-adv-x="647" 
d="M84 21q28 77 28 115v7q0 16 3 19.5t22 9.5q12 4 20 7q7 5 11 1.5t4 -4.5t2 -8q43 88 81.5 202.5t49.5 174.5q-51 -22 -103.5 -55.5t-74.5 -61.5q-9 -11 -11 -24.5t-0.5 -23.5t6.5 -29q3 -14 -0.5 -18.5t-10 -1t-12.5 10.5q-14 16 -23.5 30t-15 23.5t-7.5 18.5t-3 14
t2 11.5t4 8t5.5 6.5t5.5 6q32 39 110 88t143 72q5 33 3 41t4 12.5t17 -5.5q22 -22 19 -31q103 30 147 30q29 -1 43.5 -14.5t31.5 -44.5q36 2 33 -39q-7 -127 -88 -208q-18 -18 -47 -32t-47 -16q45 -28 92 -65.5t66 -62.5q21 -25 18 -52t-37 -70q20 -35 -39 -56
q-84 -28 -279 -17q-53 3 -57 24t8 53q3 9 8.5 12.5t9.5 3.5t16 -2l18 -3q11 -2 16.5 -11.5t15.5 -19.5t32 -12q44 -5 106 1t98 23q24 11 26.5 32t-7 38t-24.5 33q-22 23 -88.5 71.5t-93.5 56.5q-41 0 -47 13q-3 3 -1.5 6.5t10.5 12t32 26.5q9 7 18 7.5t15 -2t17 -9.5t16 -9
q47 2 90 53q23 28 46 83.5t23 97.5q0 21 -10 30.5t-22.5 8.5t-23.5 -1q-21 -2 -69 -13.5t-73 -22.5q-43 -152 -106 -322t-86 -203q-14 -22 -22 -27.5t-43 -11.5q-15 -4 -20.5 -2t-0.5 16z" />
    <glyph glyph-name="C" unicode="C" horiz-adv-x="505" 
d="M50 123q0 73 24 153.5t61 148.5t80 124t83 89t67 35q8 1 15.5 -1t17.5 -8.5t14.5 -10t19 -16t18.5 -15.5q2 12 6 16.5t15.5 0.5t31.5 -19q15 -12 17 -20.5t-5 -36.5q-24 -97 -54 -147q-10 -18 -18.5 -22.5t-22.5 0.5q-39 12 -37 28q1 7 10 9q43 65 51 155q-27 24 -51 24
q-51 0 -118.5 -87t-114 -204.5t-45.5 -197.5q1 -48 28 -69q30 -27 79 -11q47 14 107 55t99 83q6 7 9 12t4 7t1.5 7.5t0.5 7.5q1 10 8.5 11t11.5 -9q21 -58 15.5 -74t-52.5 -51q-106 -79 -178 -97q-71 -19 -103 21q-95 36 -95 109z" />
    <glyph glyph-name="D" unicode="D" horiz-adv-x="640" 
d="M156 -11q-25 12 -34.5 22t-9.5 30q0 36 13 98q5 19 18 12q6 -4 26 -20q24 82 69 219t57 168q-107 -67 -168 -132q-29 -32 7 -93q8 -14 -4 -17t-19 5l-24.5 29.5t-18 23t-13.5 23t-4.5 19.5t2 22t13.5 21t23 25q79 73 239 165q24 55 33.5 59.5t40.5 -25.5l33 15.5t27 12
t20 6t21.5 0.5t21.5 -9t30 -17q5 3 16.5 0t31.5 -16t42 -33q35 -31 29 -78q-12 -86 -49 -184t-81 -173.5t-89.5 -126.5t-74.5 -51q-47 0 -138 60q-8 6 -6 14.5t10 11t17 -1.5q38 -22 81 -25q40 -2 100 84t108 206t58 210q5 47 -49 67q-13 6 -22 4q-94 -13 -182 -68
q-46 -110 -95 -266t-72 -275q-7 -35 -34 -21z" />
    <glyph glyph-name="E" unicode="E" horiz-adv-x="603" 
d="M76 3q-16 55 -4 68t101 17q51 95 79 187q-4 11 -11 26.5t-10 24t-1 15.5q5 17 53 26q7 29 28.5 112t27.5 108q-95 16 -149 9q-40 -6 -50 -42.5t7 -100.5q3 -10 -1 -15.5t-10.5 -3t-9.5 11.5q-33 109 -11 176q12 37 57.5 43t182.5 -18q44 32 42 8q-1 -6 -4 -16
q27 -8 193 -45q22 -5 35 17q4 5 9 7t9.5 -1.5t6.5 -13.5q4 -38 2 -42.5t-23 -20.5l-6 -4t-5 -3t-5 -1.5t-4.5 -0.5t-5 0.5t-5 1l-6 2t-6.5 1.5q-92 23 -206 42l-49 -203q112 9 184 11q12 0 20.5 -2.5t13 -10t6 -11.5t3.5 -15t2 -12q3 -13 -5 -19t-33 -11q-24 -4 -32.5 -3.5
t-14.5 9.5q-5 9 -9 11t-17 2q-109 0 -133 -4q-32 -102 -39 -122q-17 -50 -30 -69t-42 -39q72 3 304 -16q15 -2 18 15t10 17q13 2 17 -11q5 -17 13 -56q1 -5 -2 -10.5t-6.5 -9t-11.5 -9.5t-10 -8q-3 -3 -5 -4.5t-5 -2t-4.5 -1t-5.5 0.5l-6 1.5t-8.5 2.5t-10.5 3
q-146 38 -350 24q-42 -37 -53 -36q-7 1 -9 13z" />
    <glyph glyph-name="F" unicode="F" horiz-adv-x="600" 
d="M356 263q-21 -53 -62 -242q-8 -32 -17 -35.5t-49 9.5q-12 4 -14.5 13t0.5 30q7 52 19 91q5 20 40 14q11 25 27 81q-3 8 -10 23t-9.5 23t-0.5 14q3 16 48 26q2 8 80 255q-76 -6 -155 -25t-106 -42q-29 -24 -28.5 -52t32.5 -87q8 -16 -2 -22.5t-20 7.5q-39 55 -49 81.5
t-13 66.5q-3 32 27 54.5t70 33.5q136 37 272 49q2 3 5.5 11.5t5 10.5t5.5 6.5t7 3.5t8.5 -2.5t13 -7.5t17.5 -15q16 0 79 10q11 2 16 7t7.5 10.5t15 10t36.5 5.5q8 0 14.5 -2t10 -4.5t6.5 -9.5t4 -11t3 -14.5t3 -14.5q4 -7 0.5 -12.5t-4.5 -8.5t-9 -5t-12 -2.5t-13 -1.5
t-13 -2q-108 -13 -186 -20q-29 -62 -83 -252q96 9 187 10q11 0 18.5 -2.5t12 -5.5t7.5 -10t4 -10.5t2 -12t1 -9.5q3 -14 -5 -20t-32 -10q-24 -5 -33 -4.5t-14 9.5t-9 11t-17 2q-106 0 -139 -4z" />
    <glyph glyph-name="G" unicode="G" horiz-adv-x="604" 
d="M50 173q4 80 48.5 171.5t103 161t118 116.5t94.5 49q6 0 11.5 -0.5t11.5 -3t10 -3.5t11.5 -6t9.5 -6.5l11 -8.5t11 -8q3 22 9 25t40 -11q9 -5 10.5 -10t-1.5 -45q-9 -60 -29 -110q-6 -13 -18 -14.5t-39 5.5q-17 4 -17 14.5t14 7.5q19 48 23 99q3 27 -39 19
q-20 -4 -41 -15q-92 -50 -181.5 -175.5t-105.5 -231.5q-5 -34 1 -57t14 -31t22 -17q29 -19 92 14q53 28 117.5 84.5t109.5 109.5q-116 -9 -130 -6q-19 3 -28 24l-5 12q-6 16 0.5 17.5t19.5 -4.5q3 -1 5 -1.5t4.5 -1.5t4.5 -2q19 -4 78.5 -1.5t82.5 6.5q10 18 25.5 18
t62.5 -20q16 -7 14.5 -19t-19.5 -14q-4 -1 -12.5 -0.5t-12 -1.5t-10 -8.5t-11.5 -22.5t-11 -42q-41 -185 -95 -322q-9 -21 -20.5 -31t-23 -12t-31.5 6.5t-34.5 17t-42.5 26.5q-15 9 -4 18q8 7 19 2q14 -6 23.5 -8t25 4.5t28.5 26.5q24 37 54.5 120.5t52.5 164.5
q-39 -45 -101 -99t-120 -83q-92 -45 -136 4q-26 16 -40 27.5t-24.5 33t-9.5 48.5z" />
    <glyph glyph-name="H" unicode="H" horiz-adv-x="701" 
d="M421 658q7 -5 8 -14.5t-5 -32t-15 -48.5t-28 -76q-8 -23 -34 -85l-42 -103q133 -13 266 -3q11 41 27.5 93.5t43.5 124t58 119.5t58 50q28 1 79 -28q14 -10 11 -16.5t-19 -6.5q-3 0 -9 0.5t-10 0.5t-10 -1t-12 -5t-13 -10q-35 -33 -86.5 -162.5t-100.5 -351.5l33 58
q12 20 23 16q8 -3 -1 -23q-2 -6 -12 -29l-16.5 -38.5t-13 -36.5t-8.5 -35q-2 -13 -4.5 -18.5t-5 -9.5t-10.5 -1t-15 6.5t-25 13.5q-28 16 25 245q-183 11 -274 -5q-21 -56 -61 -141.5t-57 -111.5q-14 -25 -37 -17q-22 7 -29 10t-14.5 9t-6 13.5t7.5 21.5l11.5 22l11 20.5
t6.5 15.5q1 5 1 36q0 8 4.5 12.5t14.5 -3.5q27 -25 24 -37q13 14 30.5 51.5t24.5 55.5l-6.5 13.5t-7 14t-6 12.5t-4.5 12.5t-2 10t0 10t3 8.5q10 19 66 18q24 53 61 154.5t46 141.5q-6 -8 -39.5 -20.5l-81 -29t-74.5 -29.5q-40 -19 -48.5 -39t3.5 -56q4 -14 -6.5 -16
t-16.5 8q-12 21 -24 56.5t-11 54.5q1 18 23.5 32.5t83.5 27.5q26 6 65.5 14l54 11t35 10t30.5 15t19 21q1 1 4 6.5t3.5 5.5t3.5 2.5t5 1.5t6 -2t9 -5t12 -9z" />
    <glyph glyph-name="I" unicode="I" horiz-adv-x="414" 
d="M257 650q18 7 72 -9q12 15 85 -32q26 -18 14 -109q-7 -59 -31 -144.5t-58 -171t-79 -146t-87 -61.5q-49 0 -118 52q-10 8 -2.5 20.5t20.5 5.5q44 -22 72 -22q43 -1 95.5 92t88.5 218.5t39 219.5q1 32 -18 42t-47 5q-38 -5 -89 -63.5t-73 -137.5q-5 -8 -2.5 -19t2 -15.5
t6 -12.5l8.5 -10.5t9 -9t9 -8.5q11 -12 0.5 -17.5t-19.5 0.5q-32 18 -47.5 30.5t-23.5 29.5t-4.5 36.5t16.5 50.5q25 59 74.5 114.5t87.5 71.5z" />
    <glyph glyph-name="J" unicode="J" horiz-adv-x="436" 
d="M439 477q-10 -68 -37.5 -165t-65 -195t-87 -166t-94.5 -67q-50 0 -116 63q-6 5 -5.5 14t6 12.5t14.5 -0.5q48 -29 76 -30q43 -3 100.5 103t101 252.5t50.5 258.5q2 33 -15 43.5t-54 8.5t-90 -59t-78 -136q-3 -10 -3 -19t0.5 -15t5.5 -13.5t7 -10t9.5 -10l8.5 -8.5
q11 -12 0.5 -17.5t-19.5 0.5q-41 26 -56.5 43.5t-16 41.5t18.5 64q28 58 79 111.5t89 68.5q20 8 72 -11q14 15 84 -35q30 -22 15 -127z" />
    <glyph glyph-name="K" unicode="K" horiz-adv-x="734" 
d="M157 57q35 125 100 299l85 213q-139 -34 -200 -82q-20 -16 -21.5 -28t9.5 -62q2 -8 -2.5 -12t-12 -2.5t-11.5 8.5q-16 27 -34 77q-18 52 53 80q9 4 202 68q29 9 38.5 15t20.5 19q9 12 15.5 13.5t23.5 -8.5q12 -8 13 -13t-7 -24q-58 -104 -118 -259q-52 -137 -77 -248
q-19 -79 -17 -101l3 -17q-3 -20 -42 10q-20 15 -23 21t2 33zM310 288q-2 29 7.5 40.5t47.5 19.5q12 3 19 -6q57 44 129.5 118.5t87.5 104.5q-54 32 -16 42q1 1 3 1q24 17 58 55q31 35 71 -6q11 -13 9 -19.5t-20 -29.5q-54 -67 -156 -167.5t-138 -124.5q13 -15 51 -72.5
t78.5 -108t76.5 -74.5q28 -16 43 -14.5t36 16.5q10 7 16.5 0t-1.5 -19q-17 -26 -64 -67q-22 -20 -51 3q-46 37 -91 95.5l-84 113.5t-68 80q-24 -9 -33 -4.5t-11 23.5z" />
    <glyph glyph-name="L" unicode="L" horiz-adv-x="531" 
d="M14 -30q-16 47 -13 59q2 11 14 18q25 13 91 16q83 291 169 448t141 165q16 2 81 -29q40 3 48 -4t8 -45q1 -74 -32 -170q-7 -22 -17.5 -24.5t-33.5 2.5q-14 2 -20.5 9t5.5 16q11 19 24 74.5t11 92.5q-2 20 -18 26.5t-44 -11.5q-60 -46 -117 -163t-133 -346
q-5 -15 -14 -25.5t-16 -12.5l-6 -3q134 0 273 -15q7 -1 11.5 -1t8.5 1t5.5 1t4 3.5t3 4.5l3.5 7t4 9q12 24 24 2q21 -45 20.5 -58.5t-18.5 -29.5q-17 -16 -24.5 -18t-33.5 4q-26 8 -65.5 15t-115 14.5t-145.5 -0.5l-16.5 -1.5t-9.5 -2.5t-4.5 -3l-3 -6t-4.5 -8
q-10 -18 -25.5 -21t-19.5 10z" />
    <glyph glyph-name="M" unicode="M" horiz-adv-x="931" 
d="M161 35q32 28 75 55q91 151 148 317q-60 132 -148 183q-11 7 -21.5 8t-17.5 -0.5t-17.5 -9.5t-15 -12.5t-17 -18.5t-16.5 -19q-15 -17 -27 -11q-8 4 -1 18q24 49 58.5 90t67.5 40q71 -2 185 -177q28 63 28 115q0 18 3 23t11 1t28 -19q7 -6 7 -26q-1 -26 -45 -148
q86 -167 130 -305l88 143t97 143t125 161q18 40 42 77q17 22 39 15t68 -45q9 -7 0 -14q-7 -4 -19 -2q-18 3 -30 -4.5t-28 -39.5q-47 -91 -79.5 -216t-44.5 -243l15.5 28.5t14.5 27.5q8 16 18 9q8 -6 1 -24q-32 -75 -39 -140q-2 -17 -8.5 -23.5t-21.5 -2t-40 23.5
q-16 12 -18.5 19.5t0.5 28.5q18 110 48 250.5t44 167.5q-51 -61 -125 -177t-129 -220q12 -46 8.5 -57.5t-30.5 -36.5q-17 -17 -23.5 -15.5t-20.5 25.5q-4 8 -7 13t-5 9.5t-3.5 7.5t-1.5 7v6t2 6.5t2.5 6t4.5 8t5 9.5q-15 56 -43.5 126.5t-49.5 113.5l-21 43
q-53 -133 -107 -242q47 -53 30 -63q-6 -3 -19 -4q-52 -7 -86 -53q-2 -11 -9 -14t-21.5 4t-35.5 25q-18 15 -2 28z" />
    <glyph glyph-name="N" unicode="N" horiz-adv-x="699" 
d="M96 -9q-25 10 -37.5 19.5t-11.5 20.5q0 25 77 71q40 72 96 215t71 194q-33 53 -70 75q-9 9 -29 7t-51 -26q-18 -13 -27 -3.5t8 25.5q65 63 83 73q16 9 30 8q30 -4 78 -71q10 25 6 39q-4 11 6 11q9 -1 27 -16q8 -7 9.5 -18.5t-1 -20.5t-8.5 -24.5t-7 -19.5
q67 -93 134.5 -217t90.5 -188q17 111 83 366q-13 8 -31 24q-9 9 -8 16t16 6q5 0 11 3t13 9.5t13.5 13.5t14.5 16.5t12.5 15.5l11 14.5t8.5 10.5q9 12 15 16t18 0t29 -23q15 -17 -4 -45q-8 -12 -29 -34t-25 -27q-40 -112 -76.5 -252.5t-37.5 -211.5q11 -20 7 -36.5t-35 -37.5
q-13 -5 -18.5 -3.5t-12 9.5t-7.5 9q-7 5 0 42q-43 113 -115 248.5t-101 171.5q-15 -47 -44 -123.5l-56 -145l-29 -73.5q14 5 41 -50q2 -5 2.5 -8.5t-1.5 -5t-5 -2.5t-7.5 -1.5t-8 -0.5t-8.5 0.5t-7 0.5q-30 0 -51 -21q-3 -3 -8.5 -19.5t-15.5 -25t-28 -0.5z" />
    <glyph glyph-name="O" unicode="O" horiz-adv-x="583" 
d="M413 621q33 36 65 60q47 30 85 -18q51 -3 60.5 -19t1.5 -86q-7 -56 -32.5 -144t-67.5 -186t-106.5 -168.5t-135.5 -73.5q-52 -2 -68 11q-4 3 -3 6q-80 19 -117 50t-34 105q5 142 76.5 287t131.5 201q26 23 46 23q6 0 11.5 -1t10 -2t10.5 -4t10 -4.5t12 -7t12 -8t15 -10z
M392 601q-41 31 -67 12q-22 -16 -55.5 -63.5t-67 -111t-56 -141t-19.5 -141.5q2 -49 18 -73t53 -43q30 -15 59 -12q66 7 134.5 100.5t114.5 223.5t54 247q2 33 -12.5 36.5t-51.5 -21.5q-75 -52 -170 -143q-17 -15 -25 -10t4 25q45 69 87 115z" />
    <glyph glyph-name="P" unicode="P" horiz-adv-x="566" 
d="M134 45q119 274 177 502q-29 -13 -45.5 -21t-50.5 -28t-51.5 -36.5t-29 -41t-3.5 -47.5q3 -11 9 -25q6 -13 -2.5 -20t-18.5 5q-22 28 -46 77q-21 40 30 86q24 23 95.5 64t130.5 62q6 24 6 39q0 41 48 -8l8 -8q79 23 109 23q56 -2 77 -57q39 -25 47.5 -44.5t-2.5 -66.5
q-13 -52 -66 -133.5t-93 -110.5q-13 -9 -25.5 -13.5t-21.5 -6t-22.5 1.5t-19 5t-21 8.5l-20.5 8.5q-18 7 -9 15q6 6 24 6q42 0 68 18q47 37 95 106.5t58 145.5q4 24 -9 39q-18 18 -51 11q-76 -4 -146 -33q-82 -294 -150 -471q8 4 19 11t18.5 10.5t13.5 2.5q14 -2 28 -28
q12 -23 11 -33.5t-17 -9.5q-12 2 -41.5 -14t-51.5 -38q-25 -25 -62 11q-15 14 -13 24q1 4 5 7t7 4z" />
    <glyph glyph-name="Q" unicode="Q" horiz-adv-x="605" 
d="M372 19q-42 -32 -89 -33q-52 -2 -68 11q-4 3 -3 6q-80 19 -117 50t-34 105q5 142 76.5 287t131.5 201q26 23 46 23q6 0 11.5 -1t10 -2t10.5 -4t10 -4.5t12 -7t12 -8t15 -10l17 -11.5q33 36 65 60q47 30 85 -18q51 -3 60.5 -19t1.5 -86q-11 -94 -65 -245t-132 -242
q96 -22 153 33q9 8 15.5 2.5t1.5 -15.5q-12 -30 -37 -64q-17 -24 -31.5 -29.5t-51.5 -0.5t-106 22zM301 42q-24 8 -70 30q-13 6 -13.5 35t4.5 40q1 9 8.5 11t11.5 -3q42 -40 116 -67q75 80 133.5 228.5t68.5 282.5q2 33 -12.5 36.5t-51.5 -21.5q-75 -52 -170 -143
q-17 -15 -25 -10t4 25q45 69 87 115q-41 31 -67 12q-22 -16 -55.5 -63.5t-67 -111t-56 -141t-19.5 -141.5q2 -49 18 -73t53 -43q30 -15 59 -12q20 1 44 14z" />
    <glyph glyph-name="R" unicode="R" horiz-adv-x="706" 
d="M172 -12q-24 18 -29 27t3 36q26 66 27 76v11.5t0.5 9t1 6t2.5 5t5 2.5q2 0 3 0.5t2.5 -1t2.5 -1.5t2.5 -2.5t2.5 -3.5t3 -4t3.5 -5.5l4 -6.5l4.5 -7q37 79 83 207q-29 43 -26 52t46 13q20 59 45 152q-53 -20 -84 -33.5t-68.5 -39t-61.5 -56.5q-13 -17 -13.5 -40.5
t3 -34.5t14.5 -43q2 -8 -2 -12.5t-11 -3t-12 9.5q-27 42 -45 86q-1 2 -5 12t-4.5 12.5t-2 11t1 13t5.5 13t10.5 16.5l17.5 18q98 91 268 142q3 5 5 20.5t5 26.5t9 10q9 -2 30 -40q112 27 140 25q25 -1 40 -15.5t28 -46.5q30 -21 41 -37.5t11 -47.5q0 -54 -67 -137.5
t-116 -83.5q-15 0 -29 4t-20 7.5t-20 13.5t-16 11q-8 6 -7 11.5t8 9t14 1.5q20 -7 34 -8t44 17t65 62q60 77 54.5 125t-77.5 48q-66 0 -144 -31q-23 -98 -55 -192q96 -144 223 -283t175 -143q10 -1 17.5 1t10.5 3.5t7.5 5.5t5.5 5q13 11 21.5 5.5t-0.5 -22.5
q-44 -76 -78 -78q-23 -2 -51 24q-98 84 -197 201.5t-158 199.5q-17 -58 -55.5 -156t-58.5 -138q-16 -31 -36 -15z" />
    <glyph glyph-name="S" unicode="S" horiz-adv-x="547" 
d="M329 -34q-73 1 -156 60t-112 110q-27 48 -28 59q0 16 22 35q17 15 28.5 17.5t14 -6t-1.5 -23.5q26 -71 109.5 -131.5t151.5 -59.5q34 0 47 21t13 61q0 39 -35 108.5l-70 143t-35 120.5q0 38 19.5 65.5t65.5 61.5q6 5 12 6t10.5 -1t6.5 -5.5t0 -9t-8 -11.5
q-38 -35 -38 -87q0 -45 35.5 -117.5l70.5 -138.5t35 -96q0 -87 -90 -142q-22 -41 -67 -40zM430 631q50 24 108 46q27 7 33 4t21 -29q16 -5 20.5 -6.5t13 -6t9.5 -9.5t1 -13t-4 -21q-18 -63 -52 -116q-15 -22 -28 -22t-44 21q-12 8 -9.5 16t16.5 12q13 4 28.5 43.5t15.5 61.5
q0 15 -6 19.5t-28 1.5q-22 -4 -82 -26q-23 -8 -27 5q-4 10 14 19z" />
    <glyph glyph-name="T" unicode="T" horiz-adv-x="568" 
d="M142 344q-39 55 -49 81.5t-13 66.5q-3 32 27 54.5t71 33.5q135 37 272 49q2 3 5.5 11.5t5 10.5l5 6.5t7 3.5l9 -2.5t12.5 -7.5l17 -15q16 0 79 10q11 2 16 7t7.5 10.5t15 10t36.5 5.5q8 0 14.5 -2t10 -4.5t6.5 -9.5t4 -11t3 -14.5t3 -14.5q0 -7 1 -11t-3 -7.5t-6.5 -5.5
t-9 -3.5t-10.5 -2t-11 -1t-11 -1.5q-141 -17 -178 -20q-39 -83 -92.5 -259.5t-78.5 -290.5q-7 -32 -16.5 -35.5t-49.5 9.5q-6 2 -9 6t-3 7t0.5 13t0.5 17q0 26 7 66.5t16 64.5q5 12 10 17t8.5 5t12 -2t14.5 -3q13 50 65.5 206.5t57.5 172.5q-75 -6 -154.5 -25t-105.5 -42
q-29 -26 -29 -53t32 -86q9 -16 -1.5 -22.5t-20.5 7.5z" />
    <glyph glyph-name="U" unicode="U" horiz-adv-x="749" 
d="M624 321q-46 -85 -103.5 -170.5t-95.5 -129.5q-33 -34 -63 -32.5t-50 29.5l-14 11q-30 23 -41.5 35.5t-18 37.5t-4.5 69q4 72 41 189.5t86 213.5q-135 -44 -191 -84q-12 -9 -18.5 -16.5t-7 -17t0.5 -15t5.5 -20t6.5 -22.5q3 -14 -8 -13q-13 0 -24 17l-18.5 33t-14.5 29.5
t-8.5 30.5t3.5 25t16.5 23.5t35.5 16.5l114.5 32t125.5 38q15 24 27 31.5t30 0.5t47 -34q11 -11 1 -17t-41 -13q-59 -97 -100 -238.5t-44 -225.5q-1 -32 10 -55t27 -31t35 -4t34 21q86 101 153 216t155 293q16 33 44 76q18 21 39.5 13t66.5 -47q9 -7 0 -14q-7 -4 -19 -2
q-11 2 -19.5 2t-18.5 -10.5t-22 -32.5q-103 -196 -139 -455q5 15 10 24t12 18t10 14q9 14 18 8.5t0 -24.5q-34 -73 -44 -139q-5 -25 -19 -26.5t-51 26.5q-10 8 -14 12t-5.5 7.5t-1 5.5t2.5 8t3 13q13 102 58 269z" />
    <glyph glyph-name="V" unicode="V" horiz-adv-x="662" 
d="M358 53q-3 163 -41.5 315t-80.5 214q-8 11 -18 16.5t-20.5 5t-20.5 -3.5t-20 -8.5t-17 -10t-13 -9.5l-6 -5q-11 -9 -22 -2t3 22q42 42 104 77q21 15 40.5 12t39.5 -32q100 -147 139 -523q34 69 125.5 230.5t103.5 179.5q-10 -1 -20 18.5t-10 39.5q0 12 3 14.5t10.5 0.5
t18.5 0q13 4 36.5 25t25.5 22q7 6 11 7.5t13 2t19.5 -9t23.5 -28.5q3 -4 4.5 -7.5t1.5 -6.5v-5.5t-2.5 -5.5t-4 -4.5t-6.5 -5l-8 -5.5l-10 -6.5t-11 -7.5q-60 -71 -166.5 -247.5t-148.5 -283.5q5 -18 0 -27t-28 -20q-7 -3 -12.5 -4.5t-10.5 -1t-7.5 1t-7 4t-5.5 4.5
t-5.5 6.5t-5.5 6.5q-9 12 -7.5 22t7.5 16z" />
    <glyph glyph-name="W" unicode="W" horiz-adv-x="982" 
d="M475 555q-4 -38 -33 -148t-49 -170q43 62 136.5 184.5t108.5 137.5q19 70 28 82q13 18 37 10q20 -6 29 -10t18 -10t7.5 -14.5t-12.5 -19.5l-34 -36q-75 -245 -66 -405q3 -51 24.5 -84t50.5 -32q32 0 62 39q48 68 103.5 195t72.5 229q-41 47 -7 172q17 63 65 4
q7 -8 11 -16t5 -19t1 -19t-3 -25t-5.5 -28t-9 -36.5l-10.5 -42.5q11 -11 30 -32q13 -14 1 -25q-7 -7 -14 -1l-26 19q-39 -145 -94 -264t-110 -183q-12 -13 -31 -14t-33 5l-13 6q-34 10 -53.5 18t-40.5 23t-31 38t-12 56q-9 143 37 322q-53 -58 -124.5 -158t-100.5 -169
q-31 -73 -42 -89t-35 -28q-64 -32 -64 -11q0 7 6 20q55 116 108 318t42 260q-51 -12 -121 -44t-115 -63q-42 -27 -15 -86q7 -16 -5 -16q-9 0 -18 10q-50 64 -56 81q-2 8 -2 14q3 26 62 57q43 23 128 50.5t108 39.5q1 1 4 10t7.5 13.5t21 -0.5t43.5 -25q24 -17 28.5 -39.5
t-0.5 -50.5z" />
    <glyph glyph-name="X" unicode="X" horiz-adv-x="642" 
d="M364 310q-172 -136 -230 -210q-56 -72 -56 -110q0 -6 2.5 -14l3.5 -11t-1 -6q-9 -6 -21 9q-2 3 -11 13t-11.5 13.5t-8.5 13t-6 16v16.5t5.5 20.5t14.5 22.5q69 88 311 272q-22 116 -32 219q-6 -4 -37 -20t-50 -27t-42.5 -28t-34.5 -31q-23 -31 4 -86q5 -12 -3.5 -17.5
t-17.5 6.5q-48 63 -52.5 96t34.5 64q31 23 97 48t95 42q4 31 48 57q14 8 22.5 7.5t11.5 -5t9 -17.5q5 -15 0 -23.5t-19 -18.5q-7 -63 22 -224q128 99 164 138q-16 5 -31 16.5t-10 18.5t10 5.5t14 3.5q12 9 34.5 33.5t31.5 38.5q7 17 15.5 17t30.5 -26q19 -25 13 -45t-39 -57
q-41 -46 -224 -187q39 -189 80 -253q8 -12 14.5 -20.5l11.5 -14.5t12 -8t9.5 -4t11 1l10 3.5t12.5 6l13 6.5q18 9 24 -1q6 -8 -6 -17q-79 -69 -122 -69q-31 0 -64.5 93.5t-61.5 233.5z" />
    <glyph glyph-name="Y" unicode="Y" horiz-adv-x="667" 
d="M119 392l-19.5 31.5t-16 29.5t-9.5 30t2.5 25t15.5 24t35 17q19 7 114 37t124 42q21 36 39.5 38t63.5 -36q18 -16 -18 -27q-8 -2 -19 -5q-59 -81 -96.5 -204.5t-37.5 -194.5q0 -53 24.5 -66t49.5 15q174 175 302 443q10 41 24.5 48t42.5 -22q13 -9 2.5 -35.5t-55.5 -90.5
q-14 -34 -76.5 -241t-96.5 -289q-20 -48 -32 -68t-34.5 -25t-51.5 10.5t-84 54.5q-5 4 -7.5 7.5t-3 6.5t0.5 5.5t4 4t6.5 2.5t8 0.5t8.5 -2.5t15 -6.5t14.5 -5.5t12.5 -4t12 -3t10.5 -1t11 0.5l9.5 4t10 7t8.5 11t9.5 14.5q90 164 159 410q-44 -78 -101 -154.5t-101 -120.5
q-29 -30 -48 -30t-37 22q-53 32 -62 42q-19 21 -18 80q3 106 99 343q-118 -44 -172 -86q-12 -9 -18.5 -17t-7 -17.5t1 -15t7 -20t7.5 -22.5q4 -13 -8 -13q-14 0 -24 17z" />
    <glyph glyph-name="Z" unicode="Z" horiz-adv-x="547" 
d="M274 235q-69 -102 -104 -169q88 0 252 -29q8 -1 14.5 -1.5t10 -0.5t6 2t3.5 3t2 4l2 3q4 10 5.5 13t4.5 4.5t9 1.5q10 0 12.5 -3.5t7.5 -23.5l9 -32l1.5 -16.5t-4.5 -12.5t-8.5 -10t-11.5 -8.5t-12 -9.5q-8 -7 -33 3q-161 56 -304 56q-13 -17 -22 -21t-33 -4
q-14 0 -19.5 2.5t-15.5 15.5q-2 3 -6 8t-5 6.5t-2.5 5t-0.5 6t3 6.5t6 10q12 16 23.5 19.5t47.5 2.5q22 37 63 99q0 26 -4 54t-5.5 34.5t5.5 19.5q11 11 89 15q131 183 212 251q-20 5 -63.5 21t-81 26.5t-64.5 10.5q-49 0 -73 -42q-33 -61 -61 -150q-4 -12 -13 -16.5
t-15.5 2t-3.5 20.5q33 142 73 222q11 21 33 32t45 11q36 0 141 -40.5t141 -44.5q20 15 32.5 19t42.5 -2q13 -4 19 -9t7 -8t0 -10t-1 -9q0 -21 -34 -48q-4 -3 -7 -5t-7 -3.5t-6 -2.5t-6.5 -1h-6.5t-8 1t-8 1.5t-10 2t-11 2.5q-70 -37 -212 -229q102 -2 158 -7
q10 -1 16.5 -7.5t2 -13.5t-22.5 -8q-100 -8 -194 -19z" />
    <glyph glyph-name="bracketleft" unicode="[" horiz-adv-x="400" 
d="M101 -81q-21 -8 -30 3.5t-3 30.5q23 84 230 704q20 55 41 60q7 1 15 -2q9 -4 24 -5t41.5 0t34.5 1t11 -7t-1 -14t-13 -7q-47 -1 -65.5 -15t-34.5 -55q-12 -29 -97.5 -289t-94.5 -291q-15 -43 -3.5 -64t57.5 -21q9 0 13 -7t0.5 -14t-11.5 -7q-74 2 -114 -1z" />
    <glyph glyph-name="backslash" unicode="\" horiz-adv-x="400" 
d="M230 122q-6 -120 17 -136q8 -6 9 -13.5t-7.5 -13.5t-24.5 -5l-36 3q-32 0 -29 41l44 540q2 33 -1.5 71.5t-17.5 47.5q-8 5 -10 11t2 10.5t12 5.5l54 9q28 0 30 -38z" />
    <glyph glyph-name="bracketright" unicode="]" horiz-adv-x="400" 
d="M366 717q20 8 29.5 -3.5t3.5 -29.5q-8 -28 -116.5 -358.5t-114.5 -346.5q-20 -55 -40 -60q-7 -1 -15 2q-9 4 -24 5t-41.5 0t-34.5 -1t-11 7t0.5 14.5t12.5 7.5q47 1 65.5 15t35.5 55q11 27 96 286l96 294q14 42 2.5 63t-57.5 21q-9 0 -12.5 7t-0.5 14t11 7q74 -2 115 1z
" />
    <glyph glyph-name="asciicircum" unicode="^" 
d="M421 346h-57l-122 258l-122 -258h-57l159 326h40z" />
    <glyph glyph-name="underscore" unicode="_" horiz-adv-x="500" 
d="M0 -133h500v-47h-500v47z" />
    <glyph glyph-name="grave" unicode="`" horiz-adv-x="149" 
d="M32 603q22 12 44 -12q49 -52 72 -99q3 -7 0 -12.5t-9.5 -5t-12.5 8.5q-38 46 -70 71q-22 18 -36 18q-13 0 -19 9q-3 6 3 9z" />
    <glyph glyph-name="a" unicode="a" horiz-adv-x="389" 
d="M180 386q22 21 41 21q9 0 21 -7.5t19 -13.5t27 -25q8 -7 2.5 -13t-15.5 -2q-33 15 -56 -1q-46 -34 -106 -125t-73 -169q-3 -20 11 -18q18 2 38 22q54 53 117.5 135t81.5 125q2 4 5.5 13.5l6.5 17.5l5 13q6 22 14 22q6 0 34 -20q11 -9 12.5 -15.5t-4.5 -20.5
q-45 -125 -62 -209q7 7 19 21t15 17q11 14 20 7q6 -5 -2 -16q-47 -71 -61 -137q-3 -13 -7.5 -17t-12 -1t-24.5 14q-13 9 -15.5 15t0.5 21q21 127 51 206q-42 -69 -111 -147t-97 -98q-20 -14 -31 -14q-9 0 -27 14q-30 18 -25 55q9 73 63.5 169t125.5 161z" />
    <glyph glyph-name="b" unicode="b" horiz-adv-x="419" 
d="M32 57q57 311 135.5 502.5t132.5 241.5q7 7 13.5 10t13.5 2.5t12.5 -2t14.5 -8l15.5 -11.5t19.5 -16l22 -18q7 -5 6 -11t-7 -7.5t-14 1.5q-14 7 -21.5 9.5t-20.5 1t-27.5 -16t-31.5 -42.5q-62 -101 -112.5 -249t-78.5 -311l50.5 83.5t54.5 76t76 84.5q8 7 16 12t13.5 8
t12 3.5t10 0.5t9 -2.5t7 -3t7 -4.5t6.5 -4q13 -6 19.5 -10t14.5 -18t6 -34q-8 -94 -47 -184.5t-91 -141.5q-13 -13 -27.5 -14.5t-29.5 8.5t-29 25t-32 39q-13 16 -3.5 21t21.5 -6q27 -23 46 -24.5t42 23.5q33 43 62.5 121t29.5 144q0 19 -10.5 24t-28.5 -9
q-60 -52 -123.5 -151t-93.5 -193q-8 -25 -24 -14l-11.5 7.5t-10.5 7t-7 6t-6 7.5t-2.5 8.5t-1 12t2.5 15.5z" />
    <glyph glyph-name="c" unicode="c" horiz-adv-x="294" 
d="M187 -3q-11 -12 -36 -12l-38 6q-45 3 -73 30t-26 72q2 51 37.5 147t75.5 141q19 21 32 20.5t49 -21.5q21 10 49.5 6.5t28.5 -26.5q0 -74 -21 -122q-9 -20 -27 -9q-39 21 -21 34q16 46 15 73q-2 22 -22 22q-2 0 -9 1.5t-11.5 0.5t-14.5 -8.5t-22 -23.5q-28 -36 -50 -94.5
t-30 -97.5q-11 -60 1.5 -92t40.5 -31q40 1 122 104q9 12 16.5 9t1.5 -17q-8 -19 -30.5 -56.5t-37.5 -55.5z" />
    <glyph glyph-name="d" unicode="d" horiz-adv-x="402" 
d="M-6 56q11 73 66 169t125 161q22 21 41 21q20 -1 68 -46q8 -7 2.5 -13t-15.5 -2q-33 15 -56 -1q-46 -35 -106 -126t-70 -168q-3 -20 11 -18q18 2 38 22q54 53 117.5 135t81.5 125q14 36 16 45q51 180 106.5 293.5t92.5 147.5q7 7 13.5 10t13.5 2.5t12.5 -2t14.5 -8
l15.5 -11.5t19.5 -16l22 -18q7 -5 6 -11t-7 -7.5t-14 1.5q-15 8 -22.5 10t-20.5 0.5t-27 -16t-31 -42.5q-63 -102 -115 -257t-81 -327q13 12 25 26.5t17.5 20.5t10.5 6t6 -4t-4 -11q-47 -66 -62 -140q-8 -25 -25 -14l-11 7.5t-10 7t-7 6t-6 7.5t-2.5 8.5t-1 12t2.5 15.5
q19 105 35 168q-48 -69 -108.5 -138t-87.5 -86q-20 -14 -31 -14q-9 0 -27 14q-11 7 -17.5 12.5t-11 16.5t-2.5 26z" />
    <glyph glyph-name="e" unicode="e" horiz-adv-x="293" 
d="M14 76q10 71 36 148q-24 12 -17.5 21t25.5 -1q44 98 78 139q22 27 40 27t42 -14q-2 13 2 15t29 2q10 0 14.5 -0.5t5.5 -3t0.5 -5t-1.5 -8.5t-1 -11q0 -18 0.5 -43t0.5 -36t-1 -26.5t-4.5 -23.5t-10 -17t-17.5 -17q-8 -6 -16 -10.5t-17 -6.5l-16 -3.5t-16.5 -1.5h-15
t-15.5 2t-13.5 3t-13.5 3.5t-12 2.5q-8 -16 -20 -65.5t-11 -92.5q0 -34 31 -22q33 11 67 37.5t91 84.5q11 11 19 4.5t-2 -18.5q-52 -67 -85.5 -102t-59 -44t-41 -2.5t-39.5 28.5q-11 5 -14 7t-11.5 8.5t-10.5 17t0 24.5zM144 228q38 -2 59 18q8 8 11.5 22.5t4 24.5t0 33
t-0.5 29q0 30 -24 11q-48 -38 -84 -135q19 -3 34 -3z" />
    <glyph glyph-name="f" unicode="f" horiz-adv-x="243" 
d="M110 348q-36 -3 -46 -2t-14 10q-6 8 -6 15t16 11q9 2 23.5 5.5t22 5t14.5 5.5t9 10q54 157 91 242t59 111t44 26q31 0 107 -54q8 -6 7.5 -12.5t-7 -8.5t-15.5 2q-47 26 -78 7q-49 -32 -155 -326q79 -12 100 -12q8 0 10.5 -4.5t-0.5 -9.5t-10 -6q-48 -10 -116 -14
q-72 -214 -106.5 -375.5t-27.5 -200.5q3 -23 -1.5 -25t-36.5 16q-33 19 -28 45q41 217 144 539z" />
    <glyph glyph-name="g" unicode="g" horiz-adv-x="388" 
d="M9 82q2 64 48.5 157.5t95.5 140.5q10 10 19.5 15.5t16.5 9t16.5 1.5t13.5 -2.5t14.5 -8t13.5 -10l16 -14t16 -14.5q13 -12 4 -19q-8 -6 -25 2q-35 19 -66 -7q-36 -32 -77 -105.5t-50 -136.5q-5 -27 -2 -41t7.5 -20t13 -4.5t14.5 4.5t12 8q58 51 113.5 141.5t77.5 162.5
q8 25 8 49q0 10 2 14.5t7.5 4t14 -5.5t21.5 -15q15 -11 10 -44q-152 -778 -390 -777q-86 0 -187 95q-16 15 -6 28q9 11 23 -1q41 -35 73 -51.5t70 -16.5q201 0 335 591q-81 -140 -142 -201q-22 -22 -39 -24t-48 19q-47 23 -44 75z" />
    <glyph glyph-name="h" unicode="h" horiz-adv-x="418" 
d="M31 57q57 311 136 502.5t133 241.5q7 7 13.5 10t13.5 2.5t12.5 -2t14.5 -8t15 -11.5l19 -16l22 -18q12 -9 4 -16q-7 -7 -19 -1q-14 7 -21.5 9.5t-20.5 1t-27 -16t-31 -42.5q-61 -100 -111.5 -246t-79.5 -304q44 85 95 149t87 95q10 9 17 14t12.5 5.5t8 -0.5t9.5 -6l10 -7
q3 -1 10.5 -4t9.5 -4t8.5 -5t6.5 -7.5t4.5 -11t2.5 -16t-1 -22.5q-8 -86 -50 -210q38 50 48 60q13 14 17 6q3 -8 -5 -21q-52 -72 -75 -120l-19 -41q-10 -23 -35 -10q-2 1 -14 8q-13 7 -13.5 13t4.5 12q85 214 89 315q1 29 -8.5 29.5t-26.5 -16.5q-38 -31 -101.5 -120
t-102.5 -195q-7 -20 -12.5 -25.5t-13.5 -2.5t-27 18q-11 9 -8 34z" />
    <glyph glyph-name="i" unicode="i" horiz-adv-x="190" 
d="M6 23q26 47 57.5 154t35.5 158q1 20 -4 21.5t-16 -10.5l-30 -28q-6 -5 -11 -6t-5 3t4 11q21 30 49 61q14 15 38 -2q2 -1 9 -2.5t9 -2.5t7 -3t6.5 -5.5l3.5 -8.5t1.5 -13t-2.5 -18q-11 -63 -61 -219q9 8 39 46q6 8 10 3q3 -3 -1 -12q-3 -6 -10 -17.5l-16.5 -26.5
l-14.5 -23q-22 -34 -43 -83q-8 -23 -48 0q-12 6 -12.5 9t5.5 14zM114 498q43 37 59 56q8 13 16.5 12.5t37.5 -20.5q8 -6 8.5 -12.5t-7 -14.5t-14.5 -14t-21 -16q-28 -19 -54 -14q-16 4 -25 11q-11 8 -5 12q1 1 5 0z" />
    <glyph glyph-name="j" unicode="j" horiz-adv-x="190" 
d="M130 498q12 7 22 15t15 13.5t12 15t9 12.5q8 13 16.5 12.5t37.5 -20.5q8 -6 9 -12.5t-6.5 -14.5t-15 -14t-21.5 -16q-29 -20 -54 -14q-16 4 -25 11q-10 8 -5 12q2 1 6 0zM165 338q-66 -306 -125 -461q-116 -310 -268 -309q-85 0 -187 95q-16 15 -6 28q9 11 23 -1
q41 -35 73 -51.5t70 -16.5q200 0 336 592q17 82 24 123q-16 -16 -38.5 -41t-25.5 -29q-12 -11 -19 -2.5t2 19.5l71 87q8 10 8 13q0 39 53 -2q16 -12 9 -44z" />
    <glyph glyph-name="k" unicode="k" horiz-adv-x="387" 
d="M35 57q57 310 135.5 502t132.5 242q7 7 13.5 10t14 2.5t12.5 -2t14.5 -8t15.5 -11.5l19 -16l22 -18q12 -9 4 -16q-7 -7 -19 -1q-14 7 -21.5 9.5t-20.5 1t-27.5 -16t-31.5 -42.5q-62 -102 -112 -250t-77 -309q23 47 53 91q-8 17 -4.5 25t32.5 13q68 99 109 130
q20 13 26.5 11.5t22.5 -18.5l5 -5q25 -10 31.5 -20t1.5 -33q-10 -41 -26 -71q-8 -14 -14.5 -16t-25.5 5q-40 14 -24 27q2 2 5 3q19 16 25 69q0 6 -1 9t-4 3t-6 -1t-7 -4q-26 -19 -53 -54t-39 -59q32 -98 76.5 -178t92.5 -109q16 -8 30 -6.5t21 10.5q14 15 21 7q5 -4 -2 -15
q-1 -1 -6 -9.5t-7 -11t-7 -10t-7.5 -10.5t-8 -9t-9 -8.5l-8.5 -6t-10 -4.5t-10 -1q-34 0 -98 91.5t-109 205.5q-26 -31 -49 -80t-32 -88q-4 -18 -9 -21t-15 3q-35 15 -39 27.5t4 40.5z" />
    <glyph glyph-name="l" unicode="l" horiz-adv-x="190" 
d="M100 109q12 12 24 26.5t17.5 20.5t10.5 6t6 -4t-4 -11q-47 -69 -62 -140q-8 -25 -24 -14l-11.5 7.5t-10.5 7t-7 6t-6 7.5t-2.5 8.5t-1 12t2.5 15.5q30 165 69.5 305t77.5 227t68 139t52 73q16 13 29 13q7 0 16.5 -5.5t17 -11t23 -18.5l25.5 -21q12 -9 4 -16q-7 -7 -19 -1
q-14 7 -21.5 9.5t-20.5 1t-27.5 -16t-31.5 -42.5q-62 -102 -112.5 -250.5t-76.5 -308.5q-1 -4 -2.5 -12.5t-2.5 -12.5z" />
    <glyph glyph-name="m" unicode="m" horiz-adv-x="643" 
d="M77 13q-3 -9 -4 -11t-4 -7.5t-5.5 -4t-7.5 0.5q-12 4 -35 21q-15 8 3 26q20 42 47 153.5t23 165.5l-51 -50q-13 -13 -17 -1q-4 9 4 18q22 22 54 67l7 8.5t6 4t5 1t5 -1.5l4.5 -3t5.5 -5.5t5 -5.5q5 -2 12.5 -4t10 -3.5t7.5 -5t4 -8t0 -14.5q-13 -94 -38 -176
q87 155 161 221q13 10 22.5 9t28.5 -13q22 -9 28 -17.5t6 -25.5q0 -100 -23 -177q95 151 173 224q23 22 58 -10q38 -6 36 -46q-6 -118 -51 -228q18 21 38 50q8 14 18 9.5t0 -18.5q-39 -59 -95 -167l-3 -6t-3 -4.5l-4 -2t-7 0t-11 3.5q-26 7 -30.5 12t1.5 23q37 85 63 182
t25 149q0 14 -9 16.5t-23 -8.5q-42 -34 -114 -141t-105 -209q-4 -12 -7.5 -14t-8.5 2q-3 1 -4 1q-17 6 -32 17q-4 3 -6 5t-1.5 5.5t1 5t3 7t3.5 7.5q64 161 64 310q0 15 -8.5 15.5t-16.5 -8.5q-52 -44 -115 -149t-93 -195z" />
    <glyph glyph-name="n" unicode="n" horiz-adv-x="420" 
d="M241 24q32 65 58 163.5t22 151.5q-2 36 -29 9q-124 -120 -213 -321q-10 -22 -22 -24.5t-40 11.5q-10 5 -10 9t5 13q28 63 57 162t33 156q1 18 -1 18q0 -1 -13 -13l-37 -35q-10 -8 -16 -2q-4 4 4 12q7 7 28 34t27 33q20 20 36 -9q14 -4 20 -6.5t12 -10t5 -19.5
q-7 -58 -55 -194q33 63 95.5 141t92.5 92q18 8 23.5 7t18.5 -11q14 -5 20.5 -8t13 -13.5t6.5 -25.5q0 -34 -15 -102.5t-26 -104.5q11 13 36 47q7 8 12.5 3.5t1.5 -13.5q-1 -1 -12 -18.5l-22 -35t-23.5 -39.5t-18.5 -36q-5 -11 -10.5 -26.5t-8 -20.5t-8 -10t-13 -3t-21.5 8
q-17 7 -19 13.5t6 17.5z" />
    <glyph glyph-name="o" unicode="o" horiz-adv-x="348" 
d="M117 -9q-46 3 -75.5 30t-28.5 72q3 52 38 148.5t75 141.5q17 23 33 21.5t52 -34.5q11 4 21.5 9t20.5 9q21 9 34.5 4t32.5 -34q15 -24 14 -49q0 -18 -7.5 -61t-35 -114.5t-68.5 -115.5q-19 -20 -32 -26.5t-36 -6.5zM180 324q-16 -6 -19 -3q-2 2 -4 7q-28 -35 -49.5 -92.5
t-29.5 -99.5q-11 -60 1 -92t40 -31q17 1 40 15q41 28 76 109t43 158q6 40 2.5 53t-24.5 7z" />
    <glyph glyph-name="p" unicode="p" horiz-adv-x="412" 
d="M183 42q47 -19 84 41q24 38 47.5 112.5t20.5 133.5q-1 20 -10.5 25.5t-21.5 0t-25 -18.5q-159 -152 -223 -362q-16 -53 -27 -98.5t-17 -88t-8.5 -67.5t-5.5 -71.5t-4 -65.5q-1 -15 -4.5 -20.5t-14 -1.5t-29.5 22q-9 8 -13 18.5t-3 17.5l1 7q15 170 68 368.5t100 319
t70 156.5q14 22 24 31t23 9q22 -1 78 -37q11 -7 7 -13t-16 -4q-24 6 -40.5 -5.5t-38.5 -44.5q-20 -31 -49.5 -101t-42.5 -115q70 115 167 201q8 7 15 10.5t13 2t9 -2.5t8.5 -6t7.5 -6q36 -13 50 -33.5t12 -54.5q-6 -83 -42.5 -174.5t-70.5 -123.5q-18 -17 -37.5 -17t-33 7.5
t-43.5 27.5q-10 7 -10 14t7.5 9t17.5 -2z" />
    <glyph glyph-name="q" unicode="q" horiz-adv-x="358" 
d="M3 67q4 73 46 162.5t89 135.5q27 26 50.5 28.5t39.5 -8t42 -34.5q4 -5 7 -7q14 -12 2 -16q-7 -3 -17 1q-25 15 -49 12t-50 -36q-37 -46 -71 -117.5t-34 -130.5q0 -27 16 -33t38 15q51 49 96.5 123.5t66.5 123.5q18 41 27 75q0 2 0.5 11.5t3 15t7.5 5.5q12 0 39 -24
q4 -4 6 -8t2 -9t-0.5 -9.5t-3.5 -11.5l-5.5 -12.5l-6.5 -15t-7 -15.5q-32 -75 -68.5 -210.5t-49.5 -200.5q26 49 45 75q9 12 20 7t3 -20q-87 -148 -98 -341q-2 -42 -9.5 -44.5t-46.5 35.5q-4 4 -7 8.5t-4.5 10t-2 10t0.5 13.5t2 15t3.5 19.5t3.5 22.5q16 108 51.5 253
t51.5 191q-21 -37 -56 -77.5t-60 -60.5q-23 -19 -53 7q-33 11 -47 24.5t-13 41.5z" />
    <glyph glyph-name="r" unicode="r" horiz-adv-x="314" 
d="M45 282q53 69 64 88q11 21 23 21.5t37 -13.5q16 -8 5 -21q-11 -15 -40 -99.5t-40 -131.5q66 148 151 261q14 19 22.5 21t27.5 -11q14 -2 19.5 -3.5t10 -7.5t4.5 -19q0 -65 -17 -122q-4 -14 -10.5 -16.5t-14 2t-16.5 12.5q-2 3 -4 4q-12 9 -6 28q14 42 14 71q0 23 -23 -8
q-102 -133 -152 -297q-15 -48 -23 -51.5t-43 16.5q-11 6 -13 13t2 19q38 167 83 285q-38 -40 -46 -52q-4 -5 -10.5 -5.5t-8.5 4t4 12.5z" />
    <glyph glyph-name="s" unicode="s" horiz-adv-x="244" 
d="M111 72q17 31 -19 123t-34 115q4 61 113 85q4 1 7.5 -2t2.5 -7.5t-7 -7.5q-38 -17 -48 -33.5t0 -56.5q5 -22 26 -85.5t22 -91.5q2 -59 -65 -80q-6 -14 -9.5 -21t-13.5 -13.5t-26 -7.5q-14 -2 -30 1q-21 2 -34.5 4t-18.5 3t-9.5 2t-8.5 2q-12 2 -14 14q2 13 27 16
q50 5 97 11q14 2 24.5 9.5t14.5 14.5zM186 309q11 49 9 67q-2 9 -0.5 15t11.5 9l4 2q3 2 6.5 4t9 4t10 2t8 -1.5t6 -6.5t2.5 -13q0 -26 -12 -70q-1 -5 -2.5 -8.5t-2 -6t-2.5 -4.5t-2.5 -3t-3.5 -2t-3.5 -1.5t-4.5 -2t-5 -1.5q-16 -8 -24.5 -6.5t-3.5 23.5z" />
    <glyph glyph-name="t" unicode="t" horiz-adv-x="234" 
d="M124 406q52 161 82 209q10 17 18.5 23t26 3.5t46.5 -18.5q15 -8 13 -18q-1 -8 -16 -4q-21 4 -50 -40q-23 -35 -65 -157q-4 -12 -2 -13q3 -3 12 -4q44 -2 77 2q14 1 16.5 -11.5t-12.5 -15.5q-15 -2 -108 -9q-58 -170 -71 -290q-3 -28 8 -28q13 0 79 64q15 14 22 5
q5 -6 -3 -16q-37 -50 -78 -89q-17 -16 -27.5 -15.5t-32.5 17.5q-9 2 -13.5 4t-10 10.5t-3.5 22.5q19 129 71 310q-28 4 -47 7q-10 2 -9.5 12.5t10.5 13.5q5 1 15.5 4l20.5 6z" />
    <glyph glyph-name="u" unicode="u" horiz-adv-x="397" 
d="M33 47q5 59 20 125.5t31 106.5q-8 -6 -15.5 -13.5l-9.5 -9.5q-6 -6 -10 -3t2 11q27 40 31 51q14 35 32 59q9 11 18 11t39 -16q5 -3 6 -7t-0.5 -6l-5 -6.5t-4.5 -5.5q-24 -37 -52.5 -134.5t-29.5 -161.5q0 -40 34 -3q37 39 104 143.5t81 135.5q21 50 36 59q17 12 46 -7
q12 -8 14.5 -10.5t-2 -5.5t-5.5 -6q-64 -119 -97 -283l18 33t15 28q4 10 11 5.5t3 -14.5q-32 -73 -41 -110q-6 -23 -14.5 -24t-39.5 19q-11 8 -12.5 16t2.5 22q20 104 49 185q-93 -151 -158 -226q-25 -28 -63 -5q-21 4 -28 13.5t-5 33.5z" />
    <glyph glyph-name="v" unicode="v" horiz-adv-x="347" 
d="M355 353q-4 -12 -10 -26t-11.5 -25.5t-6.5 -14.5q3 -9 22 -33q6 -8 -6 -13q-16 -7 -29 9q-33 -73 -74.5 -150.5t-60.5 -96.5q-31 -32 -59 -4q-20 -11 -32.5 -7t-20.5 29q-15 57 -12 149t18 136q-10 -9 -41 -43q-8 -9 -17 -4.5t0 17.5q70 94 77 105q14 19 27.5 17.5
t42.5 -23.5q9 -9 5 -17.5t-16 -12.5q-33 -70 -41 -160t12 -145q10 -33 36 1q38 52 72.5 124t45.5 113q-19 32 15 118q3 7 6 11.5t6 7.5t7.5 3.5t7 0.5t8 -2.5t7.5 -3.5t8.5 -4.5t7.5 -4.5q12 -7 12.5 -18t-6.5 -33z" />
    <glyph glyph-name="w" unicode="w" horiz-adv-x="515" 
d="M20 297q37 51 43 63q2 5 5 8.5t5.5 6t6 4.5l6 3.5t8 3t8.5 2t10 2t11 2.5q19 5 22.5 -1.5t3.5 -39.5q0 -58 -10 -138.5t-24 -128.5q90 88 122 171q7 87 28 124q9 15 18 18.5t18.5 0t25.5 -14.5q13 -9 13.5 -16.5t-7.5 -26.5q-16 -43 -36 -71q-15 -101 15 -216
q11 -43 36 4q74 145 90 212q-2 4 -8 11t-9 12t-3 15t5 23q3 9 6 25t6 27.5t10 16.5q14 11 53 -10q10 -6 13.5 -16t0.5 -24t-7 -24.5t-11 -25.5t-9 -21q11 -9 14.5 -14t11.5 -12t7 -15.5t-7.5 -11t-14.5 1.5l-24 15q-24 -65 -56 -136t-49 -94q-16 -22 -31.5 -23.5t-36.5 8.5
q-23 7 -28.5 12.5t-10.5 27.5q-22 83 -22 144q-24 -34 -79 -100t-66 -82q-15 -23 -60 13q-9 10 -5.5 15.5t18.5 17.5q21 61 33.5 158t3.5 135q-3 -3 -43 -53q-5 -7 -12.5 -7t-9.5 5.5t2 13.5z" />
    <glyph glyph-name="x" unicode="x" horiz-adv-x="328" 
d="M-94 -110q1 40 65.5 123.5t154.5 167.5q-30 121 -51 149q-9 12 -15.5 12.5t-22.5 -10.5q-13 -9 -17 -1q-4 7 8 16q46 34 66 43q8 5 11 6t9.5 2t10 -3.5t6.5 -13.5q8 -24 44 -152l73 76.5t46.5 58.5t24.5 56q1 16 -4 28q-4 8 1 11.5t10 -3.5q18 -22 26 -35t8 -33.5
t-17 -40.5q-19 -23 -85 -84.5t-75 -73.5q31 -115 38 -131q5 -12 10.5 -17t12.5 -3.5t11 4t13 9.5q10 7 17 1t-1 -15q-44 -49 -67 -52q-27 -4 -41 32q-21 55 -40 131q-72 -76 -129 -156t-60 -132q-2 -27 8 -42q7 -12 1.5 -17t-14.5 6q-22 25 -29.5 40t-6.5 43z" />
    <glyph glyph-name="y" unicode="y" horiz-adv-x="407" 
d="M379 338q-66 -306 -124 -461q-117 -310 -268 -309q-86 0 -188 95q-9 9 -8.5 19t8.5 12.5t18 -4.5q40 -35 72 -51.5t70 -16.5q60 0 114 51.5t95.5 141.5t72 187.5t55.5 213.5l5.5 28.5t5.5 26.5q-51 -84 -113.5 -163.5t-97.5 -108.5q-12 -9 -19.5 -13.5t-15.5 -1.5
t-10 4.5t-12.5 14.5t-13.5 16q-6 8 -5 12.5t5 6.5l4 1q23 32 41 125.5t24 169.5q1 12 -1.5 15.5t-6 1t-10.5 -8.5q-6 -6 -9 -8q-5 -5 -12 -10.5t-11 -9.5t-7 -6q-7 -5 -12 -0.5t1 11.5q17 21 37 51q4 5 9 12.5l7 10.5t6 7t6 5t6 1.5t8.5 -1t10.5 -4.5q26 7 36 2t8 -37
q-5 -55 -27.5 -168.5t-36.5 -144.5q49 39 126.5 150.5t95.5 166.5q1 32 14 33t38 -21q16 -12 9 -44z" />
    <glyph glyph-name="z" unicode="z" horiz-adv-x="320" 
d="M24 71q43 48 62 78q-1 9 -5 24t-4 19t2 13q9 15 62 15l86 106q-42 11 -89 11q-30 0 -48 -11.5t-35 -44.5q-8 -14 -15.5 -11.5t-2.5 17.5q20 58 35 84q6 12 9.5 16.5t14.5 8.5t30 4q44 0 152 -26q2 2 7.5 6.5t7 5.5l5 3.5t6 2.5t6 -0.5t7.5 -2.5q10 -6 10 -15
q0 -14 -13 -44q-6 -14 -16 -16t-32 5q-40 -38 -83 -98q15 0 40 1.5t32 1.5q8 0 11 -3t0.5 -6.5t-9.5 -5.5q-91 -21 -113 -33q-57 -74 -74 -109q18 0 77 -7.5t81 -7.5q20 0 28.5 6t18.5 21q7 10 13 6.5t1 -14.5q-8 -20 -29 -57q-10 -18 -20 -24t-30 -6q-22 0 -78 16.5
t-84 16.5q-12 0 -21 -1q-14 -29 -30 -31q-11 0 -19 15q-19 32 0 51q8 10 19.5 15t18.5 5h8z" />
    <glyph glyph-name="braceleft" unicode="{" horiz-adv-x="400" 
d="M380 710q41 -1 106 -51q7 -6 7 -11q0 -12 -17 -12q-5 0 -8 1q-47 19 -63 19q-26 0 -65 -64q-10 -16 -20.5 -39.5t-16 -39l-18 -51l-16.5 -47.5q-9 -25 -34 -50t-55 -28q30 -25 30 -80q0 -26 -6 -50q-4 -18 -18 -61.5t-19 -76.5q-2 -11 -2 -31q0 -38 18.5 -57t60.5 -37
q12 -5 12 -17t-12 -12q-3 0 -5 1q-80 19 -110 40.5t-30 64.5q0 6 2 24q3 22 10 51t20.5 77t20.5 75q4 13 4 26q0 19 -10 31t-33 28q-12 9 -12 18q0 7 9 10q6 2 17.5 5t16.5 6q35 17 49 33t29 60l14.5 41.5l15 42.5t14 35.5t16.5 34.5q27 48 48 69.5t48 21.5h2z" />
    <glyph glyph-name="bar" unicode="|" horiz-adv-x="174" 
d="M122 -216h-50v910h50v-910z" />
    <glyph glyph-name="braceright" unicode="}" horiz-adv-x="500" 
d="M78 -88q-40 1 -106 52q-7 6 -7 11q0 12 17 12q5 0 8 -1q49 -20 63 -20q26 0 65 64q10 16 20 39t16.5 40.5l18 49.5l17.5 48q9 25 34 50t55 28q-29 24 -29 80q0 22 5 50q4 15 18.5 59.5t19.5 78.5q3 17 3 31q0 37 -19 57t-61 37q-12 6 -12 17q0 12 12 12q3 0 5 -1
q80 -19 110 -41t30 -65q0 -6 -2 -24q-2 -17 -7.5 -41.5t-11.5 -45l-16.5 -56.5t-16.5 -60q-4 -20 -4 -26q0 -18 10 -30.5t33 -28.5q12 -9 12 -17q0 -7 -9 -11q-6 -2 -17.5 -5t-16.5 -6q-35 -17 -49 -32.5t-30 -59.5l-14.5 -41.5l-15 -42.5t-14 -35.5t-16.5 -34.5
q-26 -47 -47.5 -69t-48.5 -22h-2z" />
    <glyph glyph-name="asciitilde" unicode="~" 
d="M390 302q-8 -50 -33 -80.5t-66 -30.5q-38 0 -91 39q-36 27 -60 27q-26 0 -40.5 -16.5t-25.5 -53.5l-34 15q7 43 30.5 76.5t70.5 33.5q38 0 85 -35q41 -30 69 -30q22 0 36 16.5t25 51.5z" />
    <glyph glyph-name="uni00A0" unicode="&#xa0;" horiz-adv-x="180" 
 />
    <glyph glyph-name="exclamdown" unicode="&#xa1;" horiz-adv-x="240" 
d="M87 15q-12 -22 -21 -25t-19 3q-53 14 -49 28q2 8 16 9q45 77 91.5 197.5t73.5 219.5q7 23 -1 36q-5 9 5 9.5t26 -11.5q17 -13 19.5 -18.5t-0.5 -27.5q-27 -116 -75 -250.5t-66 -169.5zM226 667q2 9 17 3q29 -13 34.5 -28.5t-1.5 -29.5l-2.5 -12l-2.5 -11.5t-2.5 -10.5
t-3 -8t-4 -5t-6 -2t-8.5 2q-31 12 -37.5 18t-1.5 19q6 13 18 65z" />
    <glyph glyph-name="cent" unicode="&#xa2;" horiz-adv-x="328" 
d="M103 47q-66 25 -63 94q2 51 37.5 147.5t75.5 140.5q19 21 32 21t50 -22q2 1 10 3l12 34q8 21 -6 31q-4 2 -2 7t7 4q15 -4 25 -10q7 -4 -3 -34l-10 -28q44 4 44 -27q0 -75 -21 -121q-9 -19 -27 -10q-38 21 -21 35q16 31 18 69q2 18 -4 24l-127 -342l4 -1q5 -1 7 -1
q27 2 63.5 37t58.5 67q8 14 16 10.5t2 -18.5q-8 -18 -30.5 -55.5t-37.5 -56.5q-13 -15 -37 -12l-37 6q-15 0 -16 3l-7 -20q-8 -22 2 -31q4 -2 2 -7t-7 -4l-22 11q-7 3 3 33zM113 74l125 338q-31 2 -59 -34q-27 -36 -50 -95.5t-29 -96.5q-16 -79 13 -112z" />
    <glyph glyph-name="sterling" unicode="&#xa3;" horiz-adv-x="510" 
d="M175 226q-28 -74 -46 -129q-5 -15 -11 -23.5t-9 -9.5l-3 -1q133 0 274 -15q8 -1 13 -0.5t8.5 0t6 3t3.5 4.5t3.5 8t4.5 10q13 25 25 2q21 -45 20.5 -58.5t-18.5 -29.5t-25.5 -18t-33.5 4q-25 7 -64.5 14.5t-114.5 15t-147 -0.5q-11 -1 -16 -1.5t-9 -2.5t-4.5 -3l-3 -6
t-4.5 -8q-10 -18 -26 -21t-20 10q-1 5 -4 13.5l-4.5 12.5t-3 11t-2 10.5t0 8.5t2 8t4.5 6.5t8 6.5q25 13 92 16q10 38 32 112q-23 64 -23 71q0 13 25 18q5 1 30 5q125 397 226 400q18 1 81 -28q41 3 49.5 -4.5t6.5 -44.5q-4 -80 -19 -127q-6 -21 -24 -23.5t-28 3.5
q-14 3 -16 5.5t5 18.5q10 16 15.5 56t1.5 68q-3 20 -18.5 27t-43.5 -11q-30 -23 -63 -80t-54 -107.5l-57 -142.5q111 8 185 10q12 0 20.5 -2.5t13 -10t6 -11.5t3.5 -14.5t2 -11.5q-1 -7 0.5 -9.5t-3 -6t-5.5 -4t-8 -3.5t-10 -4q-27 -13 -38 2q-10 13 -47 13l-29 1
q-29 1 -59.5 0.5t-52.5 -2.5z" />
    <glyph glyph-name="currency" unicode="&#xa4;" horiz-adv-x="580" 
d="M507 174l-42 -43l-67 67q-50 -39 -117 -39q-68 0 -117 39l-67 -67q-5 5 -19 20t-23 23l68 65q-38 55 -38 115q0 68 38 115l-68 66q9 8 23 23t19 20l67 -67q52 38 117 38q70 0 116 -38l68 67l42 -43l-68 -66q39 -52 39 -115q0 -60 -39 -115zM418 355q0 58 -41.5 96.5
t-94.5 38.5q-58 0 -98 -40t-40 -95q0 -56 40.5 -96.5t96.5 -40.5t96.5 40.5t40.5 96.5z" />
    <glyph glyph-name="yen" unicode="&#xa5;" horiz-adv-x="564" 
d="M444 298q36 2 47 15q5 6 11 6.5t7 -5.5t-3 -17l-5.5 -11.5t-4.5 -10t-4 -8t-4.5 -6t-6 -4.5t-8.5 -3t-11.5 -1.5t-15 -0.5t-19.5 0l-67 3q-11 -18 -32 -60q64 0 91 2q39 1 50 15q10 12 16 4q4 -6 -2 -20l-5.5 -13.5t-5 -10.5t-5 -8t-5.5 -6t-8 -4t-11.5 -2.5t-16 -1
t-21.5 0.5l-100 3q-69 -140 -69 -192q0 -45 13 -66q8 -14 -1.5 -22t-21.5 5q-31 34 -51 72q-14 25 1 58q22 50 77 145q-119 0 -128 -1q-3 0 -10 -1t-8.5 -1t-6 -1t-6 -2t-4.5 -2.5t-5 -3.5t-4 -5q-7 -10 -12 -6q-5 3 1 21q11 32 18.5 41t25.5 8q45 -5 148 -5q-2 10 -5.5 30
t-6.5 30q-103 -3 -106 -3q-4 0 -11 -0.5t-10 -1t-7.5 -2t-7 -4t-5.5 -7.5q-5 -10 -11 -7q-6 4 1 23q11 32 18.5 40.5t25.5 7.5q46 -4 101 -6q-52 174 -129 272q-8 10 -16 16t-17 5.5t-15 -1t-15.5 -7.5l-14 -10.5t-14 -13l-11.5 -11.5q-9 -8 -17 -7t-9 8.5t7 18.5
q67 82 99.5 102.5t56.5 -9.5q46 -65 98 -194.5t74 -203.5l110 179t81 141q-11 -5 -24 -17.5t-18 -20.5q-10 -14 -21 4q-6 9 -13 25q-9 20 17 42q24 23 75 59q5 4 11 6t10 2t9.5 -2t8.5 -3.5t8 -6t7 -6.5t7 -7.5t6 -6.5q8 -9 8.5 -15.5t-9.5 -24.5q-137 -202 -203 -312
q10 1 30 1h29z" />
    <glyph glyph-name="brokenbar" unicode="&#xa6;" horiz-adv-x="174" 
d="M122 361h-50v333h50v-333zM122 -215h-50v332h50v-332z" />
    <glyph glyph-name="section" unicode="&#xa7;" horiz-adv-x="450" 
d="M428 664l-39 -15q-36 -14 -50 -21q-16 -9 -16 -18q0 -11 17 -11q9 0 14 2l2 1h2l15 6h-1l37 10q15 4 26 4q16 0 16 -17q0 -20 -14.5 -57t-25.5 -41q-16 -5 -16 -15q0 -8 10 -15q30 -19 42 -19q14 0 28 20q30 48 50 109q5 17 5 23q0 12 -8 17.5t-31 14.5q-1 0 -2.5 1
t-2.5 1l-4 4q-16 24 -28 24q-6 0 -19 -5q-4 -2 -7 -3zM390 163q0 39 -52 130l-31 57l-21 43q-25 56 -26 104v6q0 42 38 80q5 4 5 9q0 9 -13 9q-6 0 -12 -3q-80 -63 -80 -120q0 -51 62 -171l5.5 -11.5t8.5 -16.5t6 -12q45 -86 48 -138v-4q0 -22 -6 -38t-11.5 -22.5
t-17.5 -16.5q-4 -2 -5 -3q-6 -5 -6 -10q0 -9 14 -9q5 0 11 3q82 60 83 134zM91 -129l-20 9q-72 31 -80 61q-3 16 -10 16q-6 0 -13 -15q-5 -8 -5 -11q-11 -22 -11 -30q0 -15 18 -32q28 -26 83 -48l25 -9h-1q26 -7 49 -7q39 0 62 38q31 18 60.5 56.5t29.5 84.5q0 35 -54 130
l-31 57l-21 43q-26 58 -27 104v6q0 41 39 80q5 4 5 9q0 9 -13 9q-6 0 -12 -3q-80 -61 -80 -120q0 -53 61 -171l21 -40q49 -92 51 -138v-4q0 -17 -3.5 -34t-19 -35t-41.5 -18q-24 0 -62 12z" />
    <glyph glyph-name="dieresis" unicode="&#xa8;" horiz-adv-x="166" 
d="M3 488q16 44 22 97q3 18 7 20q2 1 23 -22q5 -7 7 -16q2 -20 -16 -65q-10 -27 -15.5 -35.5t-11.5 -5.5q-17 9 -19 22q1 4 3 5zM107 489q15 40 23 97q2 17 6 19q3 1 23 -22q5 -5 7 -16q2 -21 -16 -64q-10 -27 -15.5 -36t-11.5 -6q-17 10 -19 22q0 6 3 6z" />
    <glyph glyph-name="copyright" unicode="&#xa9;" horiz-adv-x="821" 
d="M467 544q49 0 90 -16q1 0 2 3t2 3q5 10 18 10t14 -10l1 -18v-44q0 -28 1 -33q2 -13 1 -21q-2 -13 -15.5 -12.5t-13.5 13.5q-2 40 -29 66.5t-71 26.5q-102 0 -102 -177q0 -21 3.5 -43.5t13.5 -50.5t32.5 -45.5t54.5 -17.5q78 0 106 88l31 -8q-11 -44 -46.5 -78t-92.5 -34
q-50 0 -86.5 18.5t-55.5 48.5t-27.5 60t-8.5 60q0 35 8.5 69t27.5 67.5t55.5 54t86.5 20.5zM763 337q0 128 -90.5 218.5t-218.5 90.5q-126 0 -215.5 -90.5t-89.5 -218.5q0 -126 90 -215.5t215 -89.5q128 0 218.5 89.5t90.5 215.5zM808 339q0 -146 -103.5 -249.5
t-249.5 -103.5t-249.5 103t-103.5 249t103.5 250t248.5 104q147 0 250.5 -103.5t103.5 -249.5z" />
    <glyph glyph-name="ordfeminine" unicode="&#xaa;" horiz-adv-x="313" 
d="M190 581q13 11 29 11h2q18 0 42 -23q5 -5 5 -9q0 -8 -12 -8q-4 0 -7 1q-1 1 -4 1q-10 0 -23 -10q-32 -24 -73 -84.5t-52 -111.5q1 -4 7 -4q10 0 19 9q38 34 82 89.5t57 84.5q1 2 6.5 14t7.5 17q7 17 15 17q3 0 26 -14q12 -8 12 -17q0 -5 -3 -11q-27 -70 -46 -140q1 1 5 7
l8 12t7 9q7 8 14 8q8 0 8 -8q0 -3 -4 -11q-32 -45 -43 -91q-4 -19 -11 -19q-5 0 -26 13q-14 10 -14 22v5q7 44 25 105q-30 -40 -70.5 -80t-60.5 -54q-16 -10 -25 -10q-8 0 -21 10q-21 12 -21 36v5q8 51 48.5 118t90.5 111z" />
    <glyph glyph-name="guillemotleft" unicode="&#xab;" horiz-adv-x="435" 
d="M244 404q12 -12 9.5 -25t-28.5 -32q-8 -6 -27 -19t-35 -25.5t-30 -26.5l-7 -7l-6 -6t-4.5 -5t-3.5 -5l-2 -4t-1 -3.5t1 -3.5q43 -94 63 -150q10 -33 7 -45t-21 -22q-17 -10 -26 -14t-13 -2.5t-4 7.5t4 19q9 31 -16.5 90.5t-62.5 114.5q-9 13 52 55q52 37 78 64
q-2 18 2.5 25t32.5 24q20 13 26 9q5 -2 12 -13zM414 402q12 -12 9.5 -25t-28.5 -32q-8 -6 -27 -19t-35 -25.5t-30 -26.5q-27 -27 -23 -34q46 -100 63 -150q10 -33 7 -44.5t-21 -21.5q-41 -24 -43 -12q0 6 4 21q9 32 -16.5 91.5t-62.5 113.5q-9 13 52 55q52 37 78 64
q-2 18 2.5 25.5t32.5 24.5q20 12 25 9q5 -2 13 -14z" />
    <glyph glyph-name="logicalnot" unicode="&#xac;" 
d="M388 122h-50v179h-284v50h334v-229z" />
    <glyph glyph-name="uni00AD" unicode="&#xad;" horiz-adv-x="363" 
d="M252 192q17 0 26 3.5t11 6.5t7 13q3 7 9 5.5t5 -9.5q-4 -26 -5 -41q-2 -21 -6.5 -24t-14.5 -3q-71 0 -185 28q-26 5 -32.5 2.5t-12.5 -13.5q-4 -7 -9.5 -4t-3.5 11q1 5 9 40q1 2 1.5 7t1 6.5t1.5 4t2.5 3t3.5 1.5t5 0t8 -2q112 -34 179 -35z" />
    <glyph glyph-name="registered" unicode="&#xae;" horiz-adv-x="821" 
d="M409 329v-118q1 -11 5 -17.5t12.5 -9t11.5 -3t13 -1.5q12 -1 13 -11.5t-12 -12.5q-5 -1 -14.5 0t-10.5 1q-3 0 -16 1t-18 1h-29q-12 0 -30 -2t-26 -1t-11 6.5t0 11t10 6.5q1 0 3.5 0.5t3.5 0.5q9 1 13.5 3t9.5 10t6 23v253q0 14 -2 22t-9 11.5t-10 4t-15 1.5
q-12 2 -13 12.5t12 12.5q15 0 25 -1q2 0 12 -1t16 -1q9 0 22 0.5t25 0.5t23 0.5t18 1.5h7q141 0 141 -99q0 -46 -38.5 -73.5t-76.5 -29.5q27 -10 38.5 -22t31.5 -45l21 -33l16 -23t17 -18.5t15 -4.5q3 0 15 7t17.5 5t5.5 -9.5t-6 -12.5q-22 -25 -54 -25q-15 0 -27 4t-19.5 8
t-17.5 16.5t-13 17t-14 24t-14 23.5q-9 15 -16 29q-19 35 -28 45.5t-25 10.5h-14zM409 501v-143q2 0 11 -0.5t15 -0.5q89 0 89 76q0 70 -80 70zM763 337q0 128 -90.5 218.5t-218.5 90.5q-126 0 -215.5 -90.5t-89.5 -218.5q0 -126 90 -215.5t215 -89.5q128 0 218.5 89.5
t90.5 215.5zM808 339q0 -146 -103.5 -249.5t-249.5 -103.5t-249.5 103t-103.5 249t103.5 250t248.5 104q147 0 250.5 -103.5t103.5 -249.5z" />
    <glyph glyph-name="macron" unicode="&#xaf;" horiz-adv-x="240" 
d="M179 537q18 0 27.5 3t11.5 5t7 10q3 5 8 5q7 0 7 -7v-1q-3 -18 -5 -36q0 -1 -0.5 -5.5t-1 -5.5t-1 -4t-2 -3.5t-4 -1.5t-5.5 -1.5t-8 -0.5q-66 0 -153 17q-15 3 -24 3q-13 0 -22 -12q-3 -3 -7 -3q-8 0 -8 6q0 1 1 3q1 5 10 36q8 16 13 17q6 0 11 -1q99 -23 145 -23z" />
    <glyph glyph-name="degree" unicode="&#xb0;" horiz-adv-x="320" 
d="M341 656q22 -16 22 -35q0 -22 -35 -54q-54 -50 -95 -61q-4 -1 -11 -1q-19 0 -44 15l-11 10q-39 32 -39 58q0 11 7 25q12 21 52 52.5t70 39.5q10 2 12 2q10 0 15.5 -7t14.5 -30q2 -5 3 -7q1 -1 1 -2q0 -4 -7 -4q-5 0 -7 2q-3 5 -11 5q-2 0 -10 -2q-42 -14 -80 -63
q-19 -23 -19 -38q0 -13 12 -20q7 -4 17 -4q25 0 58.5 25t57.5 55q11 14 11 23q0 7 -4 12q-4 8 -4 11q0 5 4 5q5 0 20 -12z" />
    <glyph glyph-name="plusminus" unicode="&#xb1;" 
d="M391 273h-144v-167h-51v167h-143v50h143v165h51v-165h144v-50zM391 0h-338v50h338v-50z" />
    <glyph glyph-name="twosuperior" unicode="&#xb2;" horiz-adv-x="347" 
d="M99 393q-9 14 -9 22q0 10 13 17q93 63 146 63h2q18 0 33 -18q9 3 17 3q19 0 19 -41v-7q0 -17 -1.5 -26t-12 -25.5t-32.5 -38.5q-46 -46 -112 -98q76 -8 143 -34q23 -8 23 -29q0 -9 -3 -17q-4 -11 -19 -11q-12 0 -17 9v1q-6 9 -15 12q-77 20 -168 22l-16 -16q-7 -5 -16 -5
q-5 0 -8 1q0 1 -2 1q-1 1 -5 1q-15 6 -15 16v2q2 21 7 37q6 18 33 18q6 0 28 -2h2l2 -1q60 47 117 113q26 33 26 66q0 7 -0.5 10t-4.5 5.5t-13 2.5h-7q-34 -5 -80 -38q-6 -8 -6 -17q0 -4 1 -6l1 -1v-4v-5q0 -13 -9 -13t-21 10z" />
    <glyph glyph-name="threesuperior" unicode="&#xb3;" horiz-adv-x="347" 
d="M132 389l-8 11q-9 11 -9 18q0 12 18 24q51 33 92 46q13 3 22 3q19 0 29 -17q2 -4 4 -6q28 -24 28 -40q0 -14 -18 -29q-34 -28 -88 -61q62 -8 102 -35q15 -10 15 -22q0 -7 -4 -14q5 -12 5 -23q0 -24 -16 -41q-46 -45 -111.5 -83.5t-109.5 -38.5q-32 0 -67 35l-1 1
q0 1 -3 4q-1 2 -2 2q-6 6 -6 12q0 11 16 11q7 0 10 -2q1 -1 5 -2.5t5 -2.5q20 -10 28 -10q15 0 55 14q43 19 86 47.5t59 53.5q8 11 8 21t-9 17q-33 19 -71 19q-11 0 -17 -1q-3 0 -13 -2t-15 -2q-14 0 -15 10q-3 13 -3 33q0 6 4 10t17 10q5 3 10 5q68 34 91 63q2 6 2 7
q0 9 -15 9q-13 0 -31 -9q-42 -21 -48 -39q-5 -15 -16 -15q-7 0 -15 9z" />
    <glyph glyph-name="acute" unicode="&#xb4;" horiz-adv-x="149" 
d="M117 603l28 -13q12 -6 -4 -15q-6 -3 -12 -3q-14 0 -36 -18q-32 -25 -70 -71q-6 -8 -12.5 -8.5t-9.5 5t0 12.5q23 47 72 99q22 24 44 12z" />
    <glyph glyph-name="mu" unicode="&#xb5;" horiz-adv-x="500" 
d="M139 -255h-85v755h85v-329q0 -59 22 -84t66 -25q94 0 122 128v310h86v-500h-86v65q-43 -82 -122 -82q-67 0 -88 48v-286z" />
    <glyph glyph-name="paragraph" unicode="&#xb6;" horiz-adv-x="582" 
d="M247 611q58 55 115 57q115 0 248 -47q7 -3 9 -7t0 -15l-5 -36q-2 -13 -5.5 -15.5t-11.5 1.5q-20 7 -57 17q-86 -177 -146 -463h7q5 10 13 24l20 34q6 9 16 5q8 -3 4 -12q-2 -3 -5.5 -11.5t-4.5 -11.5q-27 -64 -34 -116q-4 -26 -11 -28q-5 -1 -12 2q-8 3 -32 17
q-6 3 -6 37q0 90 46.5 252.5t104.5 281.5q-34 8 -53 11q-95 -178 -159 -485q-13 -71 -15 -88q-2 -14 -4 -16t-8 0q-1 0 -11 6q-7 4 -7 35q0 95 49.5 265.5t109.5 289.5q-60 6 -94 6q-46 0 -59 -11q-25 -21 -35 -39q-72 -134 -27 -212q14 -18 56 -18q14 0 18.5 -3.5
t-0.5 -8.5t-17 -9q-8 -2 -23 -7l-23 -7.5t-20.5 -5.5t-20 -3t-17 1t-16.5 5.5t-13 12.5q-19 30 -13.5 89.5t29.5 114.5q20 46 41.5 66t78.5 45z" />
    <glyph glyph-name="periodcentered" unicode="&#xb7;" horiz-adv-x="168" 
d="M61 289q26 59 31 80q5 18 10 20t38 -8q8 -3 11 -8t1.5 -13.5t-5.5 -18l-10 -24.5q-3 -6 -4 -9q-13 -32 -26.5 -35.5t-42.5 3.5q-6 1 -7.5 6t4.5 7z" />
    <glyph glyph-name="cedilla" unicode="&#xb8;" horiz-adv-x="149" 
d="M60 10l16 -7q-2 -3 -13 -24t-16 -34q10 2 40 2h21q15 -2 19 -7.5t6 -25.5q16 -22 16 -34t-16 -22q-50 -33 -95 -43q-3 -1 -9 -1q-17 0 -27 33q-1 4 -1 9q0 9 6 9q5 0 14 -7q1 0 2 -0.5t2 -0.5q13 0 36.5 8t41.5 22q14 11 14 17q0 8 -20 9q-29 0 -61 -8q-1 0 -3 -1h-2
q-6 0 -9 4t-8 19q-2 6 -2 9q0 5 8 17q9 15 40 57z" />
    <glyph glyph-name="onesuperior" unicode="&#xb9;" horiz-adv-x="252" 
d="M135 189q-2 2 -5 2q-13 6 -17 8.5t-8.5 8.5t-4.5 16q0 9 3 21q15 72 41 130q-40 -40 -48 -47q-3 -3 -9 -3q-7 0 -13 4.5t-6 9.5q0 4 4 7q51 37 102 122q8 12 13 12q3 0 6 -1q10 15 21 15q14 0 37 -16l-1 1q7 -4 7 -9q0 -10 -16 -13q-27 -36 -50 -98t-31 -125
q-1 -7 -1 -14q0 -8 4 -13q3 -3 3 -9q0 -13 -14 -13q-8 0 -17 4z" />
    <glyph glyph-name="ordmasculine" unicode="&#xba;" horiz-adv-x="313" 
d="M232 571q12 6 28 11q10 3 19 3q16 0 36 -25q11 -15 11 -30v-5q0 -12 -5.5 -41.5t-25.5 -78t-50 -79.5q-14 -15 -24 -19.5t-29 -4.5q-4 0 -8 0.5t-7 1l-6 1t-4 1.5h-1q-34 2 -57.5 21.5t-23.5 49.5v2q2 34 28 100t55 98q14 16 25 16t39 -22zM192 526q-33 -44 -49 -118
q-4 -22 -4 -33q0 -48 28 -48q8 0 25 10q27 21 51.5 76t29.5 103q2 11 2 25q0 13 -6 13h-1l-2 -1q-2 0 -19 -7l-45 -19q-4 -2 -6 -2q-3 0 -4 1z" />
    <glyph glyph-name="guillemotright" unicode="&#xbb;" horiz-adv-x="435" 
d="M192 20q-6 9 -8 13t-2 11t7 14.5t21 18.5q7 6 27 19t35.5 25t29.5 26l5.5 5.5t5.5 5t4.5 4.5t3.5 4t2.5 3t2 3.5l1 3t0.5 3t-1 2.5q-10 20 -33 74t-31 77q-10 32 -6.5 44t20.5 22t26 14t13 2.5t4 -7.5t-4 -19q-9 -31 17 -90.5t63 -114.5q9 -13 -53 -55q-56 -38 -77 -64
q2 -18 -3 -25t-32 -24q-21 -12 -25.5 -9.5t-12.5 14.5zM22 21q-12 12 -10 25t28 32l27 18.5t35.5 26t29.5 26.5l5.5 5.5t5.5 5t4.5 4.5t3.5 4t2.5 3t2 3.5l1 3t0.5 3t-1 2.5q-37 74 -64 150q-10 33 -6.5 45t20.5 22t26 14t13 2.5t4 -7.5t-4 -19q-9 -31 16.5 -90t63.5 -115
q8 -13 -53 -55q-59 -44 -77 -64q2 -18 -3 -25t-32 -24q-20 -13 -26 -10q-4 2 -12 14z" />
    <glyph glyph-name="onequarter" unicode="&#xbc;" horiz-adv-x="786" 
d="M419 38v3q0 16 17 19l23.5 21t44.5 48.5t46 67.5q-1 1 -3.5 4t-3.5 5q-7 12 -7 13q-1 2 -2 3q-2 4 -2 6q0 10 21 12q0 1 2 3l1 2q23 32 38 55q7 12 19 12q7 0 27 -10q2 -2 3 -2q9 -3 9 -10q0 -6 -5 -16q-23 -51 -71 -115.5t-82 -98.5v-1q47 -5 81 -5h29q21 77 49 133
q11 23 32 23h5h4q18 0 18 -5q0 -4 -9 -13q-21 -24 -49 -134q14 2 19 13q3 5 12 5q2 0 4 0.5t3 0.5q8 0 10 -3.5t4 -14.5q0 -3 2 -7q0 -2 1 -5t1 -5t1 -3q0 -1 0.5 -2t0.5 -2q0 -16 -27 -21l-41 -3q-10 -36 -12 -76v-7q0 -7 4 -8q1 -1 1 -4q0 -12 -19 -12q-5 0 -8 1l-2 1h-2
q-18 6 -25 13h1q-7 7 -7 16q0 10 13 59q2 6 4 16h-25q-5 0 -15.5 -0.5t-14.5 -0.5q-34 0 -70 2q-5 -11 -14 -11q-2 0 -12 2q-13 3 -17.5 9.5t-4.5 26.5zM285 123q-18 -26 -42 -68.5t-24 -63.5q0 -5 1 -7q3 -7 3 -13q0 -10 -8 -10q-6 0 -11 4l-30 21q-13 7 -13 23q0 13 12 31
l353 501q57 84 57 121q0 5 -2 9q-3 7 -3 12q0 11 9 11q5 0 10 -4l30 -20q14 -9 14 -22q0 -11 -10 -30zM165 302q-2 2 -5 2q-13 6 -17 8.5t-8.5 8.5t-4.5 16q0 9 3 21q15 72 41 130q-40 -40 -48 -47q-3 -3 -9 -3q-7 0 -13 4.5t-6 9.5q0 4 4 7q51 37 102 122q8 12 13 12
q3 0 6 -1q10 15 21 15q14 0 37 -16l-1 1q7 -4 7 -9q0 -10 -16 -13q-27 -36 -50 -98t-31 -125q-1 -7 -1 -14q0 -8 4 -13q3 -3 3 -9q0 -13 -14 -13q-8 0 -17 4z" />
    <glyph glyph-name="onehalf" unicode="&#xbd;" horiz-adv-x="786" 
d="M488 198q-9 14 -9 22q0 10 13 17q39 27 80.5 45t65.5 18h2q18 0 33 -18q9 3 17 3q19 0 19 -41v-7q0 -17 -1.5 -26t-12 -25.5t-32.5 -37.5q-46 -46 -113 -98q76 -8 144 -34q23 -8 23 -29q0 -11 -3 -18q-4 -11 -19 -11q-13 0 -17 9v1q-6 9 -15 12q-73 21 -168 23l-16 -16
q-7 -6 -16 -6q-2 0 -8 2q0 1 -3 1h-2l-2 1q-15 6 -15 16v2q2 21 7 37q6 18 33 18q6 0 28 -2q1 0 2 -0.5t2 -0.5q63 50 117 113q26 32 26 65q0 7 -0.5 10t-4.5 5.5t-13 2.5h-7q-35 -5 -81 -38q-6 -8 -6 -17q0 -4 1 -6l1 -2v-3v-5q0 -12 -9 -12q-7 0 -20 9zM278 123
q-18 -26 -42 -68.5t-24 -63.5q0 -5 1 -7q3 -7 3 -13q0 -10 -8 -10q-6 0 -11 4l-30 21q-13 7 -13 23q0 13 12 31l353 501q57 84 57 121q0 5 -2 9q-3 7 -3 12q0 11 9 11q5 0 10 -4l30 -20q14 -9 14 -22q0 -11 -10 -30zM170 302q-2 2 -5 2q-13 6 -17 8.5t-8.5 8.5t-4.5 16
q0 9 3 21q15 72 41 130q-40 -40 -48 -47q-3 -3 -9 -3q-7 0 -13 4.5t-6 9.5q0 4 4 7q51 37 102 122q7 12 13 12q3 0 6 -1q10 15 21 15q14 0 37 -16l-1 1q7 -4 7 -9q0 -10 -16 -13q-27 -36 -50 -98t-31 -125q-1 -7 -1 -14q0 -8 4 -13q3 -3 3 -9q0 -13 -14 -13q-8 0 -17 4z" />
    <glyph glyph-name="threequarters" unicode="&#xbe;" horiz-adv-x="786" 
d="M444 38v3q0 16 17 19q8 6 23.5 21t44.5 49t46 67q-1 1 -3.5 4t-3.5 5q-7 12 -7 13q-1 2 -2 3q-2 4 -2 6q0 10 21 12q0 1 2 3l1 2q23 32 38 55q7 12 19 12q7 0 27 -10q2 -2 3 -2q9 -3 9 -10q0 -6 -5 -16q-23 -51 -71 -115.5t-82 -98.5v-1q45 -5 81 -5h29q21 77 49 133
q12 23 32 23h5h4q18 0 18 -5q0 -4 -9 -13q-21 -24 -49 -134q14 2 19 13q3 5 12 5q2 0 4 0.5t3 0.5q8 0 10 -3.5t4 -14.5q0 -3 2 -7q1 -2 1 -5t1 -5q0 -2 1 -3q0 -1 0.5 -2t0.5 -2q0 -16 -27 -21l-41 -3q-10 -36 -12 -76v-7q0 -7 4 -8q1 -1 1 -4q0 -12 -19 -12q-5 0 -8 1
q-1 0 -2 0.5t-2 0.5q-18 6 -25 13h1q-7 7 -7 16q0 10 13 59q2 6 4 16h-25q-5 0 -15.5 -0.5t-14.5 -0.5q-34 0 -70 2q-5 -11 -14 -11q-2 0 -12 2q-13 3 -17.5 9.5t-4.5 26.5zM167 504l-8 11q-9 9 -9 17q0 12 18 24q47 32 92 46q13 3 22 3q19 0 29 -17q2 -4 4 -6
q28 -19 28 -40q0 -13 -18 -28q-34 -28 -88 -61q62 -8 102 -35q15 -10 15 -22q0 -7 -4 -14q5 -12 5 -23q0 -25 -16 -41q-45 -45 -111 -84t-110 -39q-32 0 -67 35l-1 1q0 1 -3 4q-1 2 -2 2q-5 5 -5 12q0 13 16 13q7 0 10 -2q1 -1 4.5 -2.5t5.5 -2.5q20 -10 28 -10q15 0 55 14
q44 19 86.5 47t58.5 53q8 11 8 20q0 10 -10 18q-2 0 -3 1q-36 18 -69 18q-10 0 -16 -1q-4 0 -14 -2t-15 -2q-13 0 -14 10q-3 13 -3 33q0 6 4 9.5t16 10.5q5 3 10 5q68 33 92 62q2 6 2 7q0 9 -15 9q-13 0 -31 -9q-44 -23 -49 -38t-16 -15q-8 0 -14 9zM360 123
q-18 -26 -42 -68.5t-24 -63.5q0 -5 1 -7q3 -7 3 -13q0 -10 -8 -10q-6 0 -11 4l-30 21q-13 7 -13 23q0 13 12 31l353 501q57 84 57 121q0 5 -2 9q-3 7 -3 12q0 11 9 11q5 0 10 -4l30 -20q14 -9 14 -22q0 -11 -10 -30z" />
    <glyph glyph-name="questiondown" unicode="&#xbf;" horiz-adv-x="467" 
d="M384 225q21 -25 26.5 -33.5t4.5 -21.5t-16 -28q-115 -115 -213 -151q-22 -8 -36.5 -9t-26 6t-17.5 13.5t-19 23.5q-26 5 -49 17.5t-23 29.5q0 47 73 153.5t148 184.5q-27 -7 -50 -16q-12 -4 -17 8t12 18q85 33 111 56q9 8 16 9.5t13 -4.5t10 -15t10 -26q0 -4 1 -5.5
t-1 -5t-3 -5t-4.5 -4.5t-5.5 -4.5t-6.5 -5.5t-7.5 -6q-73 -61 -146 -160t-79 -156q-3 -32 22 -44.5t53 0.5q105 45 185 136q10 11 4.5 31.5t0.5 24.5q15 10 30 -11zM380 631q-47 -40 -64 -61q-9 -15 -18.5 -14.5t-41.5 23.5q-20 14 3 38q6 7 30 28q12 11 19.5 16t17.5 4.5
t13.5 -1t19 -8.5t22.5 -11q10 -5 6 -12q-1 -3 -7 -2z" />
    <glyph glyph-name="Agrave" unicode="&#xc0;" horiz-adv-x="640" 
d="M608 668q20 8 25 -0.5t-8 -27.5q-30 -43 -57 -233q-24 -169 -22 -261q1 -30 4.5 -50t6.5 -29t11.5 -12t11.5 -2.5t13 4.5q3 1 4 1q15 6 19 -1t-6 -16q-30 -26 -75 -48q-39 -21 -51 33t-4 203q-117 -7 -221 -19l-97 -118q2 0 9.5 1.5t10.5 1.5t9 -2t9.5 -7t8.5 -15t9 -24
q6 -23 -1 -28t-22 2q-40 11 -125 -43q-5 -3 -11 -8t-8 -5t-6 1t-11 6q-22 15 -32 38q-3 10 0 15.5t17 14.5q30 19 83 65.5t69 67.5q-4 29 -4 48t10 28q13 13 73 16q48 59 106.5 145t88.5 143q-19 -10 -48.5 -20l-81 -26.5t-93.5 -31.5q-62 -22 -51 -88q2 -11 -2.5 -15.5
t-10.5 -2.5t-9 8q-27 56 -32 79l-2 6q-2 5 -2 8.5v9.5t2.5 11.5t7.5 11.5q25 29 117 43q48 7 112 24.5t100 33.5q14 14 17 26q7 26 43 -15q6 -6 6.5 -13.5t-0.5 -11t-7.5 -13t-7.5 -12.5q-37 -65 -100.5 -161t-100.5 -138q116 0 182 6q3 31 9.5 73.5t13.5 83l13 74t11.5 60
t5.5 28.5q6 51 71 77zM443 843q22 12 44 -12q49 -52 72 -99q3 -7 0 -12.5t-9.5 -5t-12.5 8.5q-38 46 -70 71q-22 18 -36 18q-13 0 -19 9q-3 6 3 9z" />
    <glyph glyph-name="Aacute" unicode="&#xc1;" horiz-adv-x="640" 
d="M608 668q20 8 25 -0.5t-8 -27.5q-30 -43 -57 -233q-24 -169 -22 -261q1 -30 4.5 -50t6.5 -29t11.5 -12t11.5 -2.5t13 4.5q3 1 4 1q15 6 19 -1t-6 -16q-30 -26 -75 -48q-39 -21 -51 33t-4 203q-117 -7 -221 -19l-97 -118q2 0 9.5 1.5t10.5 1.5t9 -2t9.5 -7t8.5 -15t9 -24
q6 -23 -1 -28t-22 2q-40 11 -125 -43q-5 -3 -11 -8t-8 -5t-6 1t-11 6q-22 15 -32 38q-3 10 0 15.5t17 14.5q30 19 83 65.5t69 67.5q-4 29 -4 48t10 28q13 13 73 16q48 59 106.5 145t88.5 143q-19 -10 -48.5 -20l-81 -26.5t-93.5 -31.5q-62 -22 -51 -88q2 -11 -2.5 -15.5
t-10.5 -2.5t-9 8q-27 56 -32 79l-2 6q-2 5 -2 8.5v9.5t2.5 11.5t7.5 11.5q25 29 117 43q48 7 112 24.5t100 33.5q14 14 17 26q7 26 43 -15q6 -6 6.5 -13.5t-0.5 -11t-7.5 -13t-7.5 -12.5q-37 -65 -100.5 -161t-100.5 -138q116 0 182 6q3 31 9.5 73.5t13.5 83l13 74t11.5 60
t5.5 28.5q6 51 71 77zM668 843l28 -13q12 -6 -4 -15q-6 -3 -12 -3q-14 0 -36 -18q-32 -25 -70 -71q-6 -8 -12.5 -8.5t-9.5 5t0 12.5q23 47 72 99q22 24 44 12z" />
    <glyph glyph-name="Acircumflex" unicode="&#xc2;" horiz-adv-x="640" 
d="M608 668q20 8 25 -0.5t-8 -27.5q-30 -43 -57 -233q-24 -169 -22 -261q1 -30 4.5 -50t6.5 -29t11.5 -12t11.5 -2.5t13 4.5q3 1 4 1q15 6 19 -1t-6 -16q-30 -26 -75 -48q-39 -21 -51 33t-4 203q-117 -7 -221 -19l-97 -118q2 0 9.5 1.5t10.5 1.5t9 -2t9.5 -7t8.5 -15t9 -24
q6 -23 -1 -28t-22 2q-40 11 -125 -43q-5 -3 -11 -8t-8 -5t-6 1t-11 6q-22 15 -32 38q-3 10 0 15.5t17 14.5q30 19 83 65.5t69 67.5q-4 29 -4 48t10 28q13 13 73 16q48 59 106.5 145t88.5 143q-19 -10 -48.5 -20l-81 -26.5t-93.5 -31.5q-62 -22 -51 -88q2 -11 -2.5 -15.5
t-10.5 -2.5t-9 8q-27 56 -32 79l-2 6q-2 5 -2 8.5v9.5t2.5 11.5t7.5 11.5q25 29 117 43q48 7 112 24.5t100 33.5q14 14 17 26q7 26 43 -15q6 -6 6.5 -13.5t-0.5 -11t-7.5 -13t-7.5 -12.5q-37 -65 -100.5 -161t-100.5 -138q116 0 182 6q3 31 9.5 73.5t13.5 83l13 74t11.5 60
t5.5 28.5q6 51 71 77zM466 722q-3 14 -0.5 16.5t12.5 4.5q9 1 46 26t54 39q8 6 11.5 15t13.5 12q1 0 3 1q12 4 14 -3q6 -27 22 -57.5t28 -38.5q23 -7 -4 -18q-17 -8 -24 -7.5t-15 13.5q-15 25 -34 66q-1 4 -15 -5q-6 -4 -42.5 -31.5t-44.5 -32.5t-11.5 -6.5t-6.5 -2t-4 1.5
t-3 7z" />
    <glyph glyph-name="Atilde" unicode="&#xc3;" horiz-adv-x="640" 
d="M608 668q20 8 25 -0.5t-8 -27.5q-30 -43 -57 -233q-24 -169 -22 -261q1 -30 4.5 -50t6.5 -29t11.5 -12t11.5 -2.5t13 4.5q3 1 4 1q15 6 19 -1t-6 -16q-30 -26 -75 -48q-39 -21 -51 33t-4 203q-117 -7 -221 -19l-97 -118q2 0 9.5 1.5t10.5 1.5t9 -2t9.5 -7t8.5 -15t9 -24
q6 -23 -1 -28t-22 2q-40 11 -125 -43q-5 -3 -11 -8t-8 -5t-6 1t-11 6q-22 15 -32 38q-3 10 0 15.5t17 14.5q30 19 83 65.5t69 67.5q-4 29 -4 48t10 28q13 13 73 16q48 59 106.5 145t88.5 143q-19 -10 -48.5 -20l-81 -26.5t-93.5 -31.5q-62 -22 -51 -88q2 -11 -2.5 -15.5
t-10.5 -2.5t-9 8q-27 56 -32 79l-2 6q-2 5 -2 8.5v9.5t2.5 11.5t7.5 11.5q25 29 117 43q48 7 112 24.5t100 33.5q14 14 17 26q7 26 43 -15q6 -6 6.5 -13.5t-0.5 -11t-7.5 -13t-7.5 -12.5q-37 -65 -100.5 -161t-100.5 -138q116 0 182 6q3 31 9.5 73.5t13.5 83l13 74t11.5 60
t5.5 28.5q6 51 71 77zM584 791q20 -19 44 -26q16 -3 56 44q1 10 8 10.5t13 -7.5q1 -2 4.5 -5.5t4 -4.5t1.5 -4t0 -5t-3 -5q-17 -20 -44 -45.5t-33 -24.5q-23 5 -63 50q-24 22 -45 26q-13 4 -56 -43q0 -11 -7 -11t-13 8q-9 10 -10 11.5t2 11.5q16 21 43.5 46.5t34.5 24.5
q21 -4 63 -51z" />
    <glyph glyph-name="Adieresis" unicode="&#xc4;" horiz-adv-x="640" 
d="M608 668q20 8 25 -0.5t-8 -27.5q-30 -43 -57 -233q-24 -169 -22 -261q1 -30 4.5 -50t6.5 -29t11.5 -12t11.5 -2.5t13 4.5q3 1 4 1q15 6 19 -1t-6 -16q-30 -26 -75 -48q-39 -21 -51 33t-4 203q-117 -7 -221 -19l-97 -118q2 0 9.5 1.5t10.5 1.5t9 -2t9.5 -7t8.5 -15t9 -24
q6 -23 -1 -28t-22 2q-40 11 -125 -43q-5 -3 -11 -8t-8 -5t-6 1t-11 6q-22 15 -32 38q-3 10 0 15.5t17 14.5q30 19 83 65.5t69 67.5q-4 29 -4 48t10 28q13 13 73 16q48 59 106.5 145t88.5 143q-19 -10 -48.5 -20l-81 -26.5t-93.5 -31.5q-62 -22 -51 -88q2 -11 -2.5 -15.5
t-10.5 -2.5t-9 8q-27 56 -32 79l-2 6q-2 5 -2 8.5v9.5t2.5 11.5t7.5 11.5q25 29 117 43q48 7 112 24.5t100 33.5q14 14 17 26q7 26 43 -15q6 -6 6.5 -13.5t-0.5 -11t-7.5 -13t-7.5 -12.5q-37 -65 -100.5 -161t-100.5 -138q116 0 182 6q3 31 9.5 73.5t13.5 83l13 74t11.5 60
t5.5 28.5q6 51 71 77zM490 728q16 44 22 97q3 18 7 20q2 1 23 -22q5 -7 7 -16q2 -20 -16 -65q-10 -27 -15.5 -35.5t-11.5 -5.5q-17 9 -19 22q1 4 3 5zM594 729q15 40 23 97q2 17 6 19q3 1 23 -22q6 -5 7 -16q2 -21 -16 -64q-10 -27 -15.5 -36t-11.5 -6q-17 10 -19 22
q0 6 3 6z" />
    <glyph glyph-name="Aring" unicode="&#xc5;" horiz-adv-x="640" 
d="M608 668q20 8 25 -0.5t-8 -27.5q-30 -43 -57 -233q-24 -169 -22 -261q1 -30 4.5 -50t6.5 -29t11.5 -12t11.5 -2.5t13 4.5q3 1 4 1q15 6 19 -1t-6 -16q-30 -26 -75 -48q-39 -21 -51 33t-4 203q-117 -7 -221 -19l-97 -118q2 0 9.5 1.5t10.5 1.5t9 -2t9.5 -7t8.5 -15t9 -24
q6 -23 -1 -28t-22 2q-40 11 -125 -43q-5 -3 -11 -8t-8 -5t-6 1t-11 6q-22 15 -32 38q-3 10 0 15.5t17 14.5q30 19 83 65.5t69 67.5q-4 29 -4 48t10 28q13 13 73 16q48 59 106.5 145t88.5 143q-19 -10 -48.5 -20l-81 -26.5t-93.5 -31.5q-62 -22 -51 -88q2 -11 -2.5 -15.5
t-10.5 -2.5t-9 8q-27 56 -32 79l-2 6q-2 5 -2 8.5v9.5t2.5 11.5t7.5 11.5q25 29 117 43q48 7 112 24.5t100 33.5q14 14 17 26q7 26 43 -15q6 -6 6.5 -13.5t-0.5 -11t-7.5 -13t-7.5 -12.5q-37 -65 -100.5 -161t-100.5 -138q116 0 182 6q3 31 9.5 73.5t13.5 83l13 74t11.5 60
t5.5 28.5q6 51 71 77zM640 808q33 -25 -9 -64q-40 -36 -68 -43q-17 -4 -39 10l-8 7q-38 30 -23 59q9 15 37.5 37.5t49.5 28.5q13 3 17.5 -1.5t12.5 -24.5l2 -4q2 -4 -3 -5q-5 0 -6 2q-3 5 -15 2q-31 -10 -57 -45q-26 -30 -5 -41q17 -10 45 8.5t50 45.5q11 15 5 25
q-7 10 -1 11q4 1 15 -8z" />
    <glyph glyph-name="AE" unicode="&#xc6;" horiz-adv-x="870" 
d="M544 573l-21 3l-6 -12q-114 -199 -193 -297q115 0 170 5q7 63 50 301zM124 107q10 8 54 60q-7 68 9 82q15 13 80 15q44 54 110 154t100 163q-11 1 -37.5 4.5t-43.5 5.5t-41.5 4t-47 1.5t-43.5 -2.5q-52 -6 -63.5 -41t5.5 -101q3 -17 -10 -19.5t-18 11.5q-35 107 -19 181
q5 21 36.5 30.5t90 8t123.5 -9t157 -21.5q20 22 52 35q20 8 25 -0.5t-8 -27.5q-6 -10 -9 -17q125 -22 220 -42q30 -5 48 17q5 5 11.5 7t13 -1.5t8.5 -13.5q10 -37 8.5 -44t-25.5 -20q-21 -12 -69 -3q-217 40 -233 42q-23 -91 -34 -192q122 11 212 13q12 0 20.5 -2.5t13 -10
t6 -11.5t3.5 -15t2 -12q3 -13 -5 -19t-32 -11q-24 -4 -33 -3.5t-14 9.5q-6 9 -10 11t-17 2q-1 0 -31.5 1t-64 1t-56.5 -2q-20 -177 -15 -235q69 -2 227 -15q12 -1 16 6.5t5.5 16.5t7.5 9q13 2 16 -11q5 -15 9 -34t5 -22q1 -5 -2 -11t-6.5 -9t-11.5 -9t-10 -8
q-3 -3 -5.5 -4.5t-5 -2t-4.5 -1t-5.5 0.5t-6 1.5t-8.5 2.5t-10 3l-27 7l-33 8.5t-29.5 6t-36.5 4.5t-36 0q-25 -1 -30.5 -4.5t-26.5 -30.5q-13 -17 -30.5 -6.5t-22.5 41.5q-43 -1 -77 -6q-6 -12 -15 -10.5t-14 15.5q-6 18 -6.5 25t7 16.5t31.5 13.5t69 6q-2 72 1 133
q-33 -2 -113 -4.5t-97 -4.5q-162 -192 -181 -211q-28 -26 -47 -23q-3 1 -7 3.5t-8 7l-7 8t-7.5 10t-5.5 7.5q-21 10 -19.5 22t26.5 37q45 45 45 68q0 8 8.5 11t12.5 -1q35 -38 36 -44z" />
    <glyph glyph-name="Ccedilla" unicode="&#xc7;" horiz-adv-x="505" 
d="M168 -5q-12 6 -23 19q-95 36 -95 109t24 153.5t61 148.5t80 124t83 89t67 35q8 1 15.5 -1t17.5 -8.5t14.5 -10t19 -16t18.5 -15.5q2 12 6 16.5t15.5 0.5t31.5 -19q15 -12 17 -20.5t-5 -36.5q-24 -97 -54 -147q-10 -18 -18.5 -22.5t-22.5 0.5q-39 12 -37 28q1 7 10 9
q43 65 51 155q-27 24 -51 24q-51 0 -118.5 -87t-114 -204.5t-45.5 -197.5q1 -51 28 -69q37 -26 79 -11q116 43 206 138q6 7 9 12t4 7t1.5 7.5t0.5 7.5q1 10 8.5 11t11.5 -9q21 -58 15.5 -74t-52.5 -51q-106 -79 -178 -97q-34 -10 -58 -5q-2 -6 -12 -41q13 3 50 0
q15 -2 19 -7.5t6 -25.5q29 -39 0 -61q-32 -27 -95 -41q-11 -3 -18.5 2t-10 12l-7.5 21q-4 16 3 17.5t16 -6.5q7 -3 34.5 5.5t47.5 23.5q30 24 -6 26q-29 0 -61 -8q-10 -1 -13.5 2.5t-8.5 19.5q-4 10 6 26q15 24 28 42z" />
    <glyph glyph-name="Egrave" unicode="&#xc8;" horiz-adv-x="603" 
d="M76 3q-16 55 -4 68t101 17q51 95 79 187q-4 11 -11 26.5t-10 24t-1 15.5q5 17 53 26q7 29 28.5 112t27.5 108q-95 16 -149 9q-40 -6 -50 -42.5t7 -100.5q3 -10 -1 -15.5t-10.5 -3t-9.5 11.5q-33 109 -11 176q12 37 57.5 43t182.5 -18q44 32 42 8q-1 -6 -4 -16
q27 -8 193 -45q22 -5 35 17q4 5 9 7t9.5 -1.5t6.5 -13.5q4 -38 2 -42.5t-23 -20.5l-6 -4t-5 -3t-5 -1.5t-4.5 -0.5t-5 0.5t-5 1l-6 2t-6.5 1.5q-92 23 -206 42l-49 -203q112 9 184 11q12 0 20.5 -2.5t13 -10t6 -11.5t3.5 -15t2 -12q3 -13 -5 -19t-33 -11q-24 -4 -32.5 -3.5
t-14.5 9.5q-5 9 -9 11t-17 2q-109 0 -133 -4q-32 -102 -39 -122q-17 -50 -30 -69t-42 -39q72 3 304 -16q15 -2 18 15t10 17q13 2 17 -11q5 -17 13 -56q1 -5 -2 -10.5t-6.5 -9t-11.5 -9.5t-10 -8q-3 -3 -5 -4.5t-5 -2t-4.5 -1t-5.5 0.5l-6 1.5t-8.5 2.5t-10.5 3
q-146 38 -350 24q-42 -37 -53 -36q-7 1 -9 13zM330 843q22 12 44 -12q49 -52 72 -99q3 -7 0 -12.5t-9.5 -5t-12.5 8.5q-38 46 -70 71q-22 18 -36 18q-13 0 -19 9q-3 6 3 9z" />
    <glyph glyph-name="Eacute" unicode="&#xc9;" horiz-adv-x="603" 
d="M76 3q-16 55 -4 68t101 17q51 95 79 187q-4 11 -11 26.5t-10 24t-1 15.5q5 17 53 26q7 29 28.5 112t27.5 108q-95 16 -149 9q-40 -6 -50 -42.5t7 -100.5q3 -10 -1 -15.5t-10.5 -3t-9.5 11.5q-33 109 -11 176q12 37 57.5 43t182.5 -18q44 32 42 8q-1 -6 -4 -16
q27 -8 193 -45q22 -5 35 17q4 5 9 7t9.5 -1.5t6.5 -13.5q4 -38 2 -42.5t-23 -20.5l-6 -4t-5 -3t-5 -1.5t-4.5 -0.5t-5 0.5t-5 1l-6 2t-6.5 1.5q-92 23 -206 42l-49 -203q112 9 184 11q12 0 20.5 -2.5t13 -10t6 -11.5t3.5 -15t2 -12q3 -13 -5 -19t-33 -11q-24 -4 -32.5 -3.5
t-14.5 9.5q-5 9 -9 11t-17 2q-109 0 -133 -4q-32 -102 -39 -122q-17 -50 -30 -69t-42 -39q72 3 304 -16q15 -2 18 15t10 17q13 2 17 -11q5 -17 13 -56q1 -5 -2 -10.5t-6.5 -9t-11.5 -9.5t-10 -8q-3 -3 -5 -4.5t-5 -2t-4.5 -1t-5.5 0.5l-6 1.5t-8.5 2.5t-10.5 3
q-146 38 -350 24q-42 -37 -53 -36q-7 1 -9 13zM495 843l28 -13q12 -6 -4 -15q-6 -3 -12 -3q-14 0 -36 -18q-32 -25 -70 -71q-6 -8 -12.5 -8.5t-9.5 5t0 12.5q23 47 72 99q22 24 44 12z" />
    <glyph glyph-name="Ecircumflex" unicode="&#xca;" horiz-adv-x="603" 
d="M76 3q-16 55 -4 68t101 17q51 95 79 187q-4 11 -11 26.5t-10 24t-1 15.5q5 17 53 26q7 29 28.5 112t27.5 108q-95 16 -149 9q-40 -6 -50 -42.5t7 -100.5q3 -10 -1 -15.5t-10.5 -3t-9.5 11.5q-33 109 -11 176q12 37 57.5 43t182.5 -18q44 32 42 8q-1 -6 -4 -16
q27 -8 193 -45q22 -5 35 17q4 5 9 7t9.5 -1.5t6.5 -13.5q4 -38 2 -42.5t-23 -20.5l-6 -4t-5 -3t-5 -1.5t-4.5 -0.5t-5 0.5t-5 1l-6 2t-6.5 1.5q-92 23 -206 42l-49 -203q112 9 184 11q12 0 20.5 -2.5t13 -10t6 -11.5t3.5 -15t2 -12q3 -13 -5 -19t-33 -11q-24 -4 -32.5 -3.5
t-14.5 9.5q-5 9 -9 11t-17 2q-109 0 -133 -4q-32 -102 -39 -122q-17 -50 -30 -69t-42 -39q72 3 304 -16q15 -2 18 15t10 17q13 2 17 -11q5 -17 13 -56q1 -5 -2 -10.5t-6.5 -9t-11.5 -9.5t-10 -8q-3 -3 -5 -4.5t-5 -2t-4.5 -1t-5.5 0.5l-6 1.5t-8.5 2.5t-10.5 3
q-146 38 -350 24q-42 -37 -53 -36q-7 1 -9 13zM284 722q-3 14 -0.5 16.5t12.5 4.5q9 1 46 26t54 39q8 6 11.5 15t13.5 12q1 0 3 1q12 4 14 -3q6 -27 22 -57.5t28 -38.5q23 -7 -4 -18q-17 -8 -24 -7.5t-15 13.5q-15 25 -34 66q-1 4 -15 -5q-6 -4 -42.5 -31.5t-44.5 -32.5
t-11.5 -6.5t-6.5 -2t-4 1.5t-3 7z" />
    <glyph glyph-name="Edieresis" unicode="&#xcb;" horiz-adv-x="603" 
d="M76 3q-16 55 -4 68t101 17q51 95 79 187q-4 11 -11 26.5t-10 24t-1 15.5q5 17 53 26q7 29 28.5 112t27.5 108q-95 16 -149 9q-40 -6 -50 -42.5t7 -100.5q3 -10 -1 -15.5t-10.5 -3t-9.5 11.5q-33 109 -11 176q12 37 57.5 43t182.5 -18q44 32 42 8q-1 -6 -4 -16
q27 -8 193 -45q22 -5 35 17q4 5 9 7t9.5 -1.5t6.5 -13.5q4 -38 2 -42.5t-23 -20.5l-6 -4t-5 -3t-5 -1.5t-4.5 -0.5t-5 0.5t-5 1l-6 2t-6.5 1.5q-92 23 -206 42l-49 -203q112 9 184 11q12 0 20.5 -2.5t13 -10t6 -11.5t3.5 -15t2 -12q3 -13 -5 -19t-33 -11q-24 -4 -32.5 -3.5
t-14.5 9.5q-5 9 -9 11t-17 2q-109 0 -133 -4q-32 -102 -39 -122q-17 -50 -30 -69t-42 -39q72 3 304 -16q15 -2 18 15t10 17q13 2 17 -11q5 -17 13 -56q1 -5 -2 -10.5t-6.5 -9t-11.5 -9.5t-10 -8q-3 -3 -5 -4.5t-5 -2t-4.5 -1t-5.5 0.5l-6 1.5t-8.5 2.5t-10.5 3
q-146 38 -350 24q-42 -37 -53 -36q-7 1 -9 13zM325 728q16 44 22 97q3 18 7 20q2 1 23 -22q5 -7 7 -16q2 -20 -16 -65q-10 -27 -15.5 -35.5t-11.5 -5.5q-17 9 -19 22q1 4 3 5zM429 729q15 40 23 97q2 17 6 19q3 1 23 -22q5 -5 7 -16q2 -21 -16 -64q-10 -27 -15.5 -36
t-11.5 -6q-17 10 -19 22q0 6 3 6z" />
    <glyph glyph-name="Igrave" unicode="&#xcc;" horiz-adv-x="414" 
d="M257 650q18 7 72 -9q12 15 85 -32q26 -18 14 -109q-7 -59 -31 -144.5t-58 -171t-79 -146t-87 -61.5q-49 0 -118 52q-10 8 -2.5 20.5t20.5 5.5q44 -22 72 -22q43 -1 95.5 92t88.5 218.5t39 219.5q1 32 -18 42t-47 5q-38 -5 -89 -63.5t-73 -137.5q-5 -8 -2.5 -19t2 -15.5
t6 -12.5l8.5 -10.5t9 -9t9 -8.5q11 -12 0.5 -17.5t-19.5 0.5q-32 18 -47.5 30.5t-23.5 29.5t-4.5 36.5t16.5 50.5q25 59 74.5 114.5t87.5 71.5zM248 843q22 12 44 -12q49 -52 72 -99q3 -7 0 -12.5t-9.5 -5t-12.5 8.5q-38 46 -70 71q-22 18 -36 18q-13 0 -19 9q-3 6 3 9z" />
    <glyph glyph-name="Iacute" unicode="&#xcd;" horiz-adv-x="414" 
d="M257 650q18 7 72 -9q12 15 85 -32q26 -18 14 -109q-7 -59 -31 -144.5t-58 -171t-79 -146t-87 -61.5q-49 0 -118 52q-10 8 -2.5 20.5t20.5 5.5q44 -22 72 -22q43 -1 95.5 92t88.5 218.5t39 219.5q1 32 -18 42t-47 5q-38 -5 -89 -63.5t-73 -137.5q-5 -8 -2.5 -19t2 -15.5
t6 -12.5l8.5 -10.5t9 -9t9 -8.5q11 -12 0.5 -17.5t-19.5 0.5q-32 18 -47.5 30.5t-23.5 29.5t-4.5 36.5t16.5 50.5q25 59 74.5 114.5t87.5 71.5zM458 843l28 -13q12 -6 -4 -15q-6 -3 -12 -3q-14 0 -36 -18q-32 -25 -70 -71q-6 -8 -12.5 -8.5t-9.5 5t0 12.5q23 47 72 99
q22 24 44 12z" />
    <glyph glyph-name="Icircumflex" unicode="&#xce;" horiz-adv-x="414" 
d="M257 650q18 7 72 -9q12 15 85 -32q26 -18 14 -109q-7 -59 -31 -144.5t-58 -171t-79 -146t-87 -61.5q-49 0 -118 52q-10 8 -2.5 20.5t20.5 5.5q44 -22 72 -22q43 -1 95.5 92t88.5 218.5t39 219.5q1 32 -18 42t-47 5q-38 -5 -89 -63.5t-73 -137.5q-5 -8 -2.5 -19t2 -15.5
t6 -12.5l8.5 -10.5t9 -9t9 -8.5q11 -12 0.5 -17.5t-19.5 0.5q-32 18 -47.5 30.5t-23.5 29.5t-4.5 36.5t16.5 50.5q25 59 74.5 114.5t87.5 71.5zM253 722q-3 14 -0.5 16.5t12.5 4.5q9 1 46 26t54 39q8 6 11.5 15t13.5 12q1 0 3 1q12 4 14 -3q6 -27 22 -57.5t28 -38.5
q23 -7 -4 -18q-17 -8 -24 -7.5t-15 13.5q-15 25 -34 66q-1 4 -15 -5q-6 -4 -42.5 -31.5t-44.5 -32.5t-11.5 -6.5t-6.5 -2t-4 1.5t-3 7z" />
    <glyph glyph-name="Idieresis" unicode="&#xcf;" horiz-adv-x="414" 
d="M257 650q18 7 72 -9q12 15 85 -32q26 -18 14 -109q-7 -59 -31 -144.5t-58 -171t-79 -146t-87 -61.5q-49 0 -118 52q-10 8 -2.5 20.5t20.5 5.5q44 -22 72 -22q43 -1 95.5 92t88.5 218.5t39 219.5q1 32 -18 42t-47 5q-38 -5 -89 -63.5t-73 -137.5q-5 -8 -2.5 -19t2 -15.5
t6 -12.5l8.5 -10.5t9 -9t9 -8.5q11 -12 0.5 -17.5t-19.5 0.5q-32 18 -47.5 30.5t-23.5 29.5t-4.5 36.5t16.5 50.5q25 59 74.5 114.5t87.5 71.5zM286 728q16 44 22 97q3 18 7 20q2 1 23 -22q5 -7 7 -16q2 -20 -16 -65q-10 -27 -15.5 -35.5t-11.5 -5.5q-17 9 -19 22q1 4 3 5z
M390 729q15 40 23 97q2 17 6 19q3 1 23 -22q6 -5 7 -16q2 -21 -16 -64q-10 -27 -15.5 -36t-11.5 -6q-17 10 -19 22q0 6 3 6z" />
    <glyph glyph-name="Eth" unicode="&#xd0;" horiz-adv-x="640" 
d="M156 -11q-25 12 -34.5 22t-9.5 30q0 36 13 98q5 15 10 15q6 0 34 -23l18 61q-33 58 -33 81q0 7 3 11q10 18 58 18h7l73 216q-107 -67 -168 -132q-14 -15 -14 -35q0 -24 21 -58q3 -5 3 -9q0 -9 -11 -9q-9 0 -15 6l-33.5 40.5t-18 28t-9.5 30.5q0 28 39 64q79 73 239 165
q16 36 23 48t15 12q10 0 36 -26q12 5 29 13.5t25 12t18 6.5t19 3q22 0 62 -27q2 2 7 2q28 0 83 -51q30 -27 30 -60q0 -12 -1 -18q-12 -86 -49 -184t-81 -173.5t-89.5 -126.5t-74.5 -51q-47 0 -138 60q-7 6 -7 12t5.5 10.5t12.5 4.5q5 0 10 -3q38 -22 81 -25h2q40 0 99.5 86
t107 205t57.5 209v7q0 23 -15 38t-34 22q-9 4 -17 4h-5q-94 -13 -182 -68q-42 -98 -90 -248q95 -2 150 -7q8 -1 14 -6t6 -10q0 -12 -24 -13q-90 -7 -162 -15q-41 -140 -61 -242q-4 -25 -20 -25q-7 0 -14 4z" />
    <glyph glyph-name="Ntilde" unicode="&#xd1;" horiz-adv-x="699" 
d="M96 -9q-25 10 -37.5 19.5t-11.5 20.5q0 25 77 71q40 72 96 215t71 194q-33 53 -70 75q-9 9 -29 7t-51 -26q-18 -13 -27 -3.5t8 25.5q65 63 83 73q16 9 30 8q30 -4 78 -71q10 25 6 39q-4 11 6 11q9 -1 27 -16q8 -7 9.5 -18.5t-1 -20.5t-8.5 -24.5t-7 -19.5
q67 -93 134.5 -217t90.5 -188q17 111 83 366q-13 8 -31 24q-9 9 -8 16t16 6q5 0 11 3t13 9.5t13.5 13.5t14.5 16.5t12.5 15.5l11 14.5t8.5 10.5q9 12 15 16t18 0t29 -23q15 -17 -4 -45q-8 -12 -29 -34t-25 -27q-40 -112 -76.5 -252.5t-37.5 -211.5q11 -20 7 -36.5t-35 -37.5
q-13 -5 -18.5 -3.5t-12 9.5t-7.5 9q-7 5 0 42q-43 113 -115 248.5t-101 171.5q-15 -47 -44 -123.5l-56 -145l-29 -73.5q14 5 41 -50q2 -5 2.5 -8.5t-1.5 -5t-5 -2.5t-7.5 -1.5t-8 -0.5t-8.5 0.5t-7 0.5q-30 0 -51 -21q-3 -3 -8.5 -19.5t-15.5 -25t-28 -0.5zM559 791
q20 -19 44 -26q16 -3 56 44q1 10 8 10.5t13 -7.5q1 -2 4.5 -5.5t4 -4.5t1.5 -4t0 -5t-3 -5q-17 -20 -44 -45.5t-33 -24.5q-23 5 -63 50q-24 22 -45 26q-13 4 -56 -43q0 -11 -7 -11t-13 8q-9 10 -10 11.5t2 11.5q16 21 43.5 46.5t34.5 24.5q21 -4 63 -51z" />
    <glyph glyph-name="Ograve" unicode="&#xd2;" horiz-adv-x="583" 
d="M413 621q33 36 65 60q47 30 85 -18q51 -3 60.5 -19t1.5 -86q-7 -56 -32.5 -144t-67.5 -186t-106.5 -168.5t-135.5 -73.5q-52 -2 -68 11q-4 3 -3 6q-80 19 -117 50t-34 105q5 142 76.5 287t131.5 201q26 23 46 23q6 0 11.5 -1t10 -2t10.5 -4t10 -4.5t12 -7t12 -8t15 -10z
M392 601q-41 31 -67 12q-22 -16 -55.5 -63.5t-67 -111t-56 -141t-19.5 -141.5q2 -49 18 -73t53 -43q30 -15 59 -12q66 7 134.5 100.5t114.5 223.5t54 247q2 33 -12.5 36.5t-51.5 -21.5q-75 -52 -170 -143q-17 -15 -25 -10t4 25q45 69 87 115zM400 843q22 12 44 -12
q49 -52 72 -99q3 -7 0 -12.5t-9.5 -5t-12.5 8.5q-38 46 -70 71q-22 18 -36 18q-13 0 -19 9q-3 6 3 9z" />
    <glyph glyph-name="Oacute" unicode="&#xd3;" horiz-adv-x="583" 
d="M413 621q33 36 65 60q47 30 85 -18q51 -3 60.5 -19t1.5 -86q-7 -56 -32.5 -144t-67.5 -186t-106.5 -168.5t-135.5 -73.5q-52 -2 -68 11q-4 3 -3 6q-80 19 -117 50t-34 105q5 142 76.5 287t131.5 201q26 23 46 23q6 0 11.5 -1t10 -2t10.5 -4t10 -4.5t12 -7t12 -8t15 -10z
M392 601q-41 31 -67 12q-22 -16 -55.5 -63.5t-67 -111t-56 -141t-19.5 -141.5q2 -49 18 -73t53 -43q30 -15 59 -12q66 7 134.5 100.5t114.5 223.5t54 247q2 33 -12.5 36.5t-51.5 -21.5q-75 -52 -170 -143q-17 -15 -25 -10t4 25q45 69 87 115zM567 843l28 -13q12 -6 -4 -15
q-6 -3 -12 -3q-14 0 -36 -18q-32 -25 -70 -71q-6 -8 -12.5 -8.5t-9.5 5t0 12.5q23 47 72 99q22 24 44 12z" />
    <glyph glyph-name="Ocircumflex" unicode="&#xd4;" horiz-adv-x="583" 
d="M413 621q33 36 65 60q47 30 85 -18q51 -3 60.5 -19t1.5 -86q-7 -56 -32.5 -144t-67.5 -186t-106.5 -168.5t-135.5 -73.5q-52 -2 -68 11q-4 3 -3 6q-80 19 -117 50t-34 105q5 142 76.5 287t131.5 201q26 23 46 23q6 0 11.5 -1t10 -2t10.5 -4t10 -4.5t12 -7t12 -8t15 -10z
M392 601q-41 31 -67 12q-22 -16 -55.5 -63.5t-67 -111t-56 -141t-19.5 -141.5q2 -49 18 -73t53 -43q30 -15 59 -12q66 7 134.5 100.5t114.5 223.5t54 247q2 33 -12.5 36.5t-51.5 -21.5q-75 -52 -170 -143q-17 -15 -25 -10t4 25q45 69 87 115zM385 722q-3 14 -0.5 16.5
t12.5 4.5q9 1 46 26t54 39q8 6 11.5 15t13.5 12q1 0 3 1q12 4 14 -3q6 -27 22 -57.5t28 -38.5q23 -7 -4 -18q-17 -8 -24 -7.5t-15 13.5q-15 25 -34 66q-1 4 -15 -5q-6 -4 -42.5 -31.5t-44.5 -32.5t-11.5 -6.5t-6.5 -2t-4 1.5t-3 7z" />
    <glyph glyph-name="Otilde" unicode="&#xd5;" horiz-adv-x="583" 
d="M413 621q33 36 65 60q47 30 85 -18q51 -3 60.5 -19t1.5 -86q-7 -56 -32.5 -144t-67.5 -186t-106.5 -168.5t-135.5 -73.5q-52 -2 -68 11q-4 3 -3 6q-80 19 -117 50t-34 105q5 142 76.5 287t131.5 201q26 23 46 23q6 0 11.5 -1t10 -2t10.5 -4t10 -4.5t12 -7t12 -8t15 -10z
M392 601q-41 31 -67 12q-22 -16 -55.5 -63.5t-67 -111t-56 -141t-19.5 -141.5q2 -49 18 -73t53 -43q30 -15 59 -12q66 7 134.5 100.5t114.5 223.5t54 247q2 33 -12.5 36.5t-51.5 -21.5q-75 -52 -170 -143q-17 -15 -25 -10t4 25q45 69 87 115zM508 791q20 -19 44 -26
q16 -3 56 44q1 10 8 10.5t13 -7.5q1 -2 4.5 -5.5t4 -4.5t1.5 -4t0 -5t-3 -5q-17 -20 -44 -45.5t-33 -24.5q-23 5 -63 50q-24 22 -45 26q-13 4 -56 -43q0 -11 -7 -11t-13 8q-9 10 -10 11.5t2 11.5q16 21 43.5 46.5t34.5 24.5q21 -4 63 -51z" />
    <glyph glyph-name="Odieresis" unicode="&#xd6;" horiz-adv-x="583" 
d="M413 621q33 36 65 60q47 30 85 -18q51 -3 60.5 -19t1.5 -86q-7 -56 -32.5 -144t-67.5 -186t-106.5 -168.5t-135.5 -73.5q-52 -2 -68 11q-4 3 -3 6q-80 19 -117 50t-34 105q5 142 76.5 287t131.5 201q26 23 46 23q6 0 11.5 -1t10 -2t10.5 -4t10 -4.5t12 -7t12 -8t15 -10z
M392 601q-41 31 -67 12q-22 -16 -55.5 -63.5t-67 -111t-56 -141t-19.5 -141.5q2 -49 18 -73t53 -43q30 -15 59 -12q66 7 134.5 100.5t114.5 223.5t54 247q2 33 -12.5 36.5t-51.5 -21.5q-75 -52 -170 -143q-17 -15 -25 -10t4 25q45 69 87 115zM389 747q16 44 22 97q3 18 7 20
q1 0 2.5 -0.5t3.5 -2.5t4 -4.5t6 -6.5t7 -8q5 -7 7 -16q2 -20 -16 -65q-10 -27 -15.5 -35.5t-11.5 -5.5q-17 9 -19 22q1 4 3 5zM493 748q15 40 23 97q2 17 6 19q3 1 23 -22q5 -6 7 -16q2 -21 -16 -64q-10 -27 -15.5 -36t-11.5 -6q-17 10 -19 22q0 6 3 6z" />
    <glyph glyph-name="multiply" unicode="&#xd7;" horiz-adv-x="424" 
d="M396 98l-35 -36l-139 139l-140 -140l-35 36l139 139l-138 139l36 35l138 -138l139 138l35 -35l-139 -139z" />
    <glyph glyph-name="Oslash" unicode="&#xd8;" horiz-adv-x="580" 
d="M497 690q37 11 66 -27q51 -3 60.5 -19t1.5 -86q-7 -56 -32.5 -144t-67.5 -186t-106.5 -168.5t-135.5 -73.5q-51 -2 -69 10q-4 2 -3 5l-47 -88q-12 -21 -27 -22t-22 5q-10 2 -10 10t9 12q11 5 16.5 13t45.5 81q-60 18 -88.5 49t-26.5 97q5 142 76.5 287t131.5 201
q26 23 46 23q6 0 11.5 -1t10 -2t10.5 -4t10 -4.5t12 -7t12 -8t15 -10l17 -11.5q17 18 33 33q24 74 17 94q-2 4 0 8.5t6 5t10 -6.5q29 -31 18 -65zM468 605q-126 -338 -244 -575q18 -3 33 -2q66 7 134.5 100.5t114.5 223.5t54 247q2 33 -15.5 40t-54.5 -18q-5 -3 -13 -9
t-9 -7zM416 564q-45 -41 -90 -93q-11 -12 -21 -5.5t0 20.5q45 69 87 115q-41 31 -67 12q-22 -16 -55.5 -63.5t-67 -111t-56 -141t-19.5 -141.5q2 -47 16.5 -71t48.5 -42q131 257 224 521z" />
    <glyph glyph-name="Ugrave" unicode="&#xd9;" horiz-adv-x="749" 
d="M624 321q-46 -85 -103.5 -170.5t-95.5 -129.5q-33 -34 -63 -32.5t-50 29.5l-14 11q-30 23 -41.5 35.5t-18 37.5t-4.5 69q4 72 41 189.5t86 213.5q-135 -44 -191 -84q-12 -9 -18.5 -16.5t-7 -17t0.5 -15t5.5 -20t6.5 -22.5q3 -14 -8 -13q-13 0 -24 17l-18.5 33t-14.5 29.5
t-8.5 30.5t3.5 25t16.5 23.5t35.5 16.5l114.5 32t125.5 38q15 24 27 31.5t30 0.5t47 -34q11 -11 1 -17t-41 -13q-59 -97 -100 -238.5t-44 -225.5q-1 -32 10 -55t27 -31t35 -4t34 21q86 101 153 216t155 293q16 33 44 76q18 21 39.5 13t66.5 -47q9 -7 0 -14q-7 -4 -19 -2
q-11 2 -19.5 2t-18.5 -10.5t-22 -32.5q-103 -196 -139 -455q5 15 10 24t12 18t10 14q9 14 18 8.5t0 -24.5q-34 -73 -44 -139q-5 -25 -19 -26.5t-51 26.5q-10 8 -14 12t-5.5 7.5t-1 5.5t2.5 8t3 13q13 102 58 269zM516 843q22 12 44 -12q49 -52 72 -99q3 -7 0 -12.5t-9.5 -5
t-12.5 8.5q-38 46 -70 71q-22 18 -36 18q-13 0 -19 9q-3 6 3 9z" />
    <glyph glyph-name="Uacute" unicode="&#xda;" horiz-adv-x="749" 
d="M624 321q-46 -85 -103.5 -170.5t-95.5 -129.5q-33 -34 -63 -32.5t-50 29.5l-14 11q-30 23 -41.5 35.5t-18 37.5t-4.5 69q4 72 41 189.5t86 213.5q-135 -44 -191 -84q-12 -9 -18.5 -16.5t-7 -17t0.5 -15t5.5 -20t6.5 -22.5q3 -14 -8 -13q-13 0 -24 17l-18.5 33t-14.5 29.5
t-8.5 30.5t3.5 25t16.5 23.5t35.5 16.5l114.5 32t125.5 38q15 24 27 31.5t30 0.5t47 -34q11 -11 1 -17t-41 -13q-59 -97 -100 -238.5t-44 -225.5q-1 -32 10 -55t27 -31t35 -4t34 21q86 101 153 216t155 293q16 33 44 76q18 21 39.5 13t66.5 -47q9 -7 0 -14q-7 -4 -19 -2
q-11 2 -19.5 2t-18.5 -10.5t-22 -32.5q-103 -196 -139 -455q5 15 10 24t12 18t10 14q9 14 18 8.5t0 -24.5q-34 -73 -44 -139q-5 -25 -19 -26.5t-51 26.5q-10 8 -14 12t-5.5 7.5t-1 5.5t2.5 8t3 13q13 102 58 269zM715 843l28 -13q12 -6 -4 -15q-6 -3 -12 -3q-14 0 -36 -18
q-32 -25 -70 -71q-6 -8 -12.5 -8.5t-9.5 5t0 12.5q23 47 72 99q22 24 44 12z" />
    <glyph glyph-name="Ucircumflex" unicode="&#xdb;" horiz-adv-x="749" 
d="M624 321q-46 -85 -103.5 -170.5t-95.5 -129.5q-33 -34 -63 -32.5t-50 29.5l-14 11q-30 23 -41.5 35.5t-18 37.5t-4.5 69q4 72 41 189.5t86 213.5q-135 -44 -191 -84q-12 -9 -18.5 -16.5t-7 -17t0.5 -15t5.5 -20t6.5 -22.5q3 -14 -8 -13q-13 0 -24 17l-18.5 33t-14.5 29.5
t-8.5 30.5t3.5 25t16.5 23.5t35.5 16.5l114.5 32t125.5 38q15 24 27 31.5t30 0.5t47 -34q11 -11 1 -17t-41 -13q-59 -97 -100 -238.5t-44 -225.5q-1 -32 10 -55t27 -31t35 -4t34 21q86 101 153 216t155 293q16 33 44 76q18 21 39.5 13t66.5 -47q9 -7 0 -14q-7 -4 -19 -2
q-11 2 -19.5 2t-18.5 -10.5t-22 -32.5q-103 -196 -139 -455q5 15 10 24t12 18t10 14q9 14 18 8.5t0 -24.5q-34 -73 -44 -139q-5 -25 -19 -26.5t-51 26.5q-10 8 -14 12t-5.5 7.5t-1 5.5t2.5 8t3 13q13 102 58 269zM519 722q-3 14 -0.5 16.5t12.5 4.5q9 1 46 26t54 39
q8 6 11.5 15t13.5 12q1 0 3 1q12 4 14 -3q6 -27 22 -57.5t28 -38.5q23 -7 -4 -18q-17 -8 -24 -7.5t-15 13.5q-15 25 -34 66q-1 4 -15 -5q-6 -4 -42.5 -31.5t-44.5 -32.5t-11.5 -6.5t-6.5 -2t-4 1.5t-3 7z" />
    <glyph glyph-name="Udieresis" unicode="&#xdc;" horiz-adv-x="749" 
d="M624 321q-46 -85 -103.5 -170.5t-95.5 -129.5q-33 -34 -63 -32.5t-50 29.5l-14 11q-30 23 -41.5 35.5t-18 37.5t-4.5 69q4 72 41 189.5t86 213.5q-135 -44 -191 -84q-12 -9 -18.5 -16.5t-7 -17t0.5 -15t5.5 -20t6.5 -22.5q3 -14 -8 -13q-13 0 -24 17l-18.5 33t-14.5 29.5
t-8.5 30.5t3.5 25t16.5 23.5t35.5 16.5l114.5 32t125.5 38q15 24 27 31.5t30 0.5t47 -34q11 -11 1 -17t-41 -13q-59 -97 -100 -238.5t-44 -225.5q-1 -32 10 -55t27 -31t35 -4t34 21q86 101 153 216t155 293q16 33 44 76q18 21 39.5 13t66.5 -47q9 -7 0 -14q-7 -4 -19 -2
q-11 2 -19.5 2t-18.5 -10.5t-22 -32.5q-103 -196 -139 -455q5 15 10 24t12 18t10 14q9 14 18 8.5t0 -24.5q-34 -73 -44 -139q-5 -25 -19 -26.5t-51 26.5q-10 8 -14 12t-5.5 7.5t-1 5.5t2.5 8t3 13q13 102 58 269zM544 728q16 44 22 97q3 18 7 20q2 1 23 -22q5 -7 7 -16
q2 -20 -16 -65q-10 -27 -15.5 -35.5t-11.5 -5.5q-17 9 -19 22q1 4 3 5zM648 729q15 40 23 97q2 17 6 19q3 1 23 -22q6 -5 7 -16q2 -21 -16 -64q-10 -27 -15.5 -36t-11.5 -6q-17 10 -19 22q0 6 3 6z" />
    <glyph glyph-name="Yacute" unicode="&#xdd;" horiz-adv-x="667" 
d="M119 392q-45 72 -45 101q0 38 53 56q19 7 114 37t124 42q22 38 42 38q21 0 61 -36q7 -6 7 -10q0 -11 -44 -22q-59 -81 -96.5 -204.5t-37.5 -194.5q0 -34 10.5 -52t27.5 -18t36 19q174 175 302 443q13 50 32 50q14 0 35 -24q7 -9 7 -17q0 -24 -60 -109q-14 -34 -76.5 -241
t-96.5 -289q-22 -53 -37 -74t-37 -21q-34 0 -128 67q-11 7 -11 15q0 11 17 11q3 0 11 -2q52 -21 65 -21q28 0 48 38q90 164 159 410q-44 -78 -101 -154.5t-101 -120.5q-30 -30 -48 -30q-15 0 -37 22l-19 11.5l-16.5 10t-12.5 8.5t-11.5 9.5t-7.5 9t-6.5 11.5t-3 13t-3 17
t-0.5 20v12q3 106 99 343q-118 -44 -172 -86q-26 -21 -26 -39q0 -6 2.5 -13.5t7 -19.5t6.5 -20q1 -2 1 -5q0 -8 -8 -8q-14 0 -25 17zM677 843l28 -13q4 -1 4 -5t-7 -8.5t-13 -4.5q-14 0 -36 -18q-32 -25 -70 -71q-5 -8 -13 -8q-10 0 -10 11q0 4 1 6q23 47 72 99q17 17 29 17
q7 0 15 -5z" />
    <glyph glyph-name="Thorn" unicode="&#xde;" horiz-adv-x="566" 
d="M354 537l30 93q1 2 1.5 4t1 3t1 2.5t0.5 2.5q0 4 -14 18q-21 20 -31 20q-8 0 -8 -19q0 -15 -6 -39l-27 -103q-59 -22 -131.5 -62.5t-96.5 -63.5q-36 -33 -36 -62q0 -12 6 -24q24 -49 46 -77q6 -7 13 -7q10 0 10 13q0 6 -2 9q-6 14 -9 25q-3 10 -3 21q0 20 15 41.5t32 36
t49 32.5t45.5 24l41.5 19q-88 -260 -148 -399q-14 -3 -16 -12v-3q0 -8 13 -21q24 -22 39 -22q13 0 23 11q21 21 49 36.5t42 15.5h2h4q13 0 13 11q0 10 -11 32q-14 26 -28 28h-2q-6 0 -13 -3.5t-17.5 -10t-18.5 -10.5q74 204 121 368q70 29 146 33q2 1 14 1q25 0 37 -12
q10 -10 10 -28q0 -7 -1 -11q-10 -77 -59 -147t-92 -95q-26 -18 -68 -18q-26 0 -26 -10q0 -7 11 -11q7 -2 19.5 -7.5t19.5 -8t17.5 -5t19.5 -2.5q27 0 54 19q38 21 91 100.5t66 133.5q7 32 7 44q0 21 -11.5 35t-40.5 32q-21 55 -77 57q-13 0 -30.5 -3.5t-30 -7t-31.5 -9.5z
" />
    <glyph glyph-name="germandbls" unicode="&#xdf;" horiz-adv-x="445" 
d="M-52 -205q12 124 -15 140q-26 17 4 32q16 8 36 9q9 1 15 0t9 -6.5t3.5 -7.5t3.5 -11q20 110 100 348q-26 16 -37.5 28t-13.5 20.5t12 18t26 15t42 17.5q7 3 10 4l49 122t46.5 95.5t52.5 74.5q20 25 46.5 24.5t88.5 -37.5q43 -6 55 -13.5t8 -33.5q-5 -41 -61 -149
q-7 -14 -18 -18.5t-17.5 3.5t-1.5 24q23 76 30 142q3 27 -20.5 31t-51.5 -14q-44 -27 -90 -114.5t-74 -170.5q14 3 55 14.5t67.5 16.5t53.5 5q7 0 13 -1t9.5 -2t8.5 -5.5t7 -6.5t8.5 -10t9.5 -12q20 -24 -24 -60t-85 -51q108 -118 107 -171q-1 -16 -16.5 -33.5t-35.5 -25.5
q-7 -17 -31 -29t-46 -11q-36 0 -75.5 18t-69.5 49l-8.5 10.5t-5 10t-2.5 8t1 9t2 8t4 11t5 11.5q3 8 7.5 12t7 5.5t8 0t7 -2.5t7.5 -6l7 -4q6 -4 7.5 -8.5t0.5 -9.5t1 -13q1 -5 1 -8.5t-0.5 -4.5t1 -3t3 -3t6.5 -4q1 -1 9.5 -6l14.5 -8.5t17 -9t20.5 -9t22.5 -6t25 -2.5
q36 0 42.5 18.5t-8.5 52.5q-25 65 -100 129q-23 -1 -27.5 2.5t-7.5 26.5q-2 13 2.5 19.5t19.5 13.5q7 4 14 3.5t10.5 -2t11.5 -6t9 -5.5q56 34 69 47.5t6 30.5q-3 8 -68.5 -5.5t-118.5 -34.5q-36 -96 -76.5 -247.5t-51.5 -226.5q-2 -17 -4.5 -27t-4.5 -16.5t-8 -10.5
t-8.5 -5.5t-14.5 -5.5l-18 -6q-18 -7 -25 -2t-5 21z" />
    <glyph glyph-name="agrave" unicode="&#xe0;" horiz-adv-x="389" 
d="M180 386q22 21 41 21q9 0 21 -7.5t19 -13.5t27 -25q8 -7 2.5 -13t-15.5 -2q-33 15 -56 -1q-46 -34 -106 -125t-73 -169q-3 -20 11 -18q18 2 38 22q54 53 117.5 135t81.5 125q2 4 5.5 13.5l6.5 17.5l5 13q6 22 14 22q6 0 34 -20q11 -9 12.5 -15.5t-4.5 -20.5
q-45 -125 -62 -209q7 7 19 21t15 17q11 14 20 7q6 -5 -2 -16q-47 -71 -61 -137q-3 -13 -7.5 -17t-12 -1t-24.5 14q-13 9 -15.5 15t0.5 21q21 127 51 206q-42 -69 -111 -147t-97 -98q-20 -14 -31 -14q-9 0 -27 14q-30 18 -25 55q9 73 63.5 169t125.5 161zM205 603
q22 12 44 -12q49 -52 72 -99q3 -7 0 -12.5t-9.5 -5t-12.5 8.5q-38 46 -70 71q-22 18 -36 18q-13 0 -19 9q-3 6 3 9z" />
    <glyph glyph-name="aacute" unicode="&#xe1;" horiz-adv-x="389" 
d="M180 386q22 21 41 21q9 0 21 -7.5t19 -13.5t27 -25q8 -7 2.5 -13t-15.5 -2q-33 15 -56 -1q-46 -34 -106 -125t-73 -169q-3 -20 11 -18q18 2 38 22q54 53 117.5 135t81.5 125q2 4 5.5 13.5l6.5 17.5l5 13q6 22 14 22q6 0 34 -20q11 -9 12.5 -15.5t-4.5 -20.5
q-45 -125 -62 -209q7 7 19 21t15 17q11 14 20 7q6 -5 -2 -16q-47 -71 -61 -137q-3 -13 -7.5 -17t-12 -1t-24.5 14q-13 9 -15.5 15t0.5 21q21 127 51 206q-42 -69 -111 -147t-97 -98q-20 -14 -31 -14q-9 0 -27 14q-30 18 -25 55q9 73 63.5 169t125.5 161zM401 603l28 -13
q12 -6 -4 -15q-6 -3 -12 -3q-14 0 -36 -18q-32 -25 -70 -71q-6 -8 -12.5 -8.5t-9.5 5t0 12.5q23 47 72 99q22 24 44 12z" />
    <glyph glyph-name="acircumflex" unicode="&#xe2;" horiz-adv-x="389" 
d="M180 386q22 21 41 21q9 0 21 -7.5t19 -13.5t27 -25q8 -7 2.5 -13t-15.5 -2q-33 15 -56 -1q-46 -34 -106 -125t-73 -169q-3 -20 11 -18q18 2 38 22q54 53 117.5 135t81.5 125q2 4 5.5 13.5l6.5 17.5l5 13q6 22 14 22q6 0 34 -20q11 -9 12.5 -15.5t-4.5 -20.5
q-45 -125 -62 -209q7 7 19 21t15 17q11 14 20 7q6 -5 -2 -16q-47 -71 -61 -137q-3 -13 -7.5 -17t-12 -1t-24.5 14q-13 9 -15.5 15t0.5 21q21 127 51 206q-42 -69 -111 -147t-97 -98q-20 -14 -31 -14q-9 0 -27 14q-30 18 -25 55q9 73 63.5 169t125.5 161zM187 482
q-3 14 -0.5 16.5t12.5 4.5q9 1 46 26t54 39q8 6 11.5 15t13.5 12q1 0 3 1q12 4 14 -3q6 -27 22 -57.5t28 -38.5q23 -7 -4 -18q-17 -8 -24 -7.5t-15 13.5q-15 25 -34 66q-1 4 -15 -5q-6 -4 -42.5 -31.5t-44.5 -32.5t-11.5 -6.5t-6.5 -2t-4 1.5t-3 7z" />
    <glyph glyph-name="atilde" unicode="&#xe3;" horiz-adv-x="389" 
d="M180 386q22 21 41 21q9 0 21 -7.5t19 -13.5t27 -25q8 -7 2.5 -13t-15.5 -2q-33 15 -56 -1q-46 -34 -106 -125t-73 -169q-3 -20 11 -18q18 2 38 22q54 53 117.5 135t81.5 125q2 4 5.5 13.5l6.5 17.5l5 13q6 22 14 22q6 0 34 -20q11 -9 12.5 -15.5t-4.5 -20.5
q-45 -125 -62 -209q7 7 19 21t15 17q11 14 20 7q6 -5 -2 -16q-47 -71 -61 -137q-3 -13 -7.5 -17t-12 -1t-24.5 14q-13 9 -15.5 15t0.5 21q21 127 51 206q-42 -69 -111 -147t-97 -98q-20 -14 -31 -14q-9 0 -27 14q-30 18 -25 55q9 73 63.5 169t125.5 161zM308 551
q20 -19 44 -26q16 -3 56 44q1 10 8 10.5t13 -7.5q1 -2 4.5 -5.5t4 -4.5t1.5 -4t0 -5t-3 -5q-17 -20 -44 -45.5t-33 -24.5q-23 5 -63 50q-24 22 -45 26q-13 4 -56 -43q0 -11 -7 -11t-13 8q-9 10 -10 11.5t2 11.5q16 21 43.5 46.5t34.5 24.5q21 -4 63 -51z" />
    <glyph glyph-name="adieresis" unicode="&#xe4;" horiz-adv-x="389" 
d="M180 386q22 21 41 21q9 0 21 -7.5t19 -13.5t27 -25q8 -7 2.5 -13t-15.5 -2q-33 15 -56 -1q-46 -34 -106 -125t-73 -169q-3 -20 11 -18q18 2 38 22q54 53 117.5 135t81.5 125q2 4 5.5 13.5l6.5 17.5l5 13q6 22 14 22q6 0 34 -20q11 -9 12.5 -15.5t-4.5 -20.5
q-45 -125 -62 -209q7 7 19 21t15 17q11 14 20 7q6 -5 -2 -16q-47 -71 -61 -137q-3 -13 -7.5 -17t-12 -1t-24.5 14q-13 9 -15.5 15t0.5 21q21 127 51 206q-42 -69 -111 -147t-97 -98q-20 -14 -31 -14q-9 0 -27 14q-30 18 -25 55q9 73 63.5 169t125.5 161zM222 488
q16 44 22 97q3 18 7 20q2 1 23 -22q5 -7 7 -16q2 -20 -16 -65q-10 -27 -15.5 -35.5t-11.5 -5.5q-17 9 -19 22q1 4 3 5zM326 489q15 40 23 97q2 17 6 19q3 1 23 -22q6 -5 7 -16q2 -21 -16 -64q-10 -27 -15.5 -36t-11.5 -6q-17 10 -19 22q0 6 3 6z" />
    <glyph glyph-name="aring" unicode="&#xe5;" horiz-adv-x="389" 
d="M180 386q22 21 41 21q9 0 21 -7.5t19 -13.5t27 -25q8 -7 2.5 -13t-15.5 -2q-33 15 -56 -1q-46 -34 -106 -125t-73 -169q-3 -20 11 -18q18 2 38 22q54 53 117.5 135t81.5 125q2 4 5.5 13.5l6.5 17.5l5 13q6 22 14 22q6 0 34 -20q11 -9 12.5 -15.5t-4.5 -20.5
q-45 -125 -62 -209q7 7 19 21t15 17q11 14 20 7q6 -5 -2 -16q-47 -71 -61 -137q-3 -13 -7.5 -17t-12 -1t-24.5 14q-13 9 -15.5 15t0.5 21q21 127 51 206q-42 -69 -111 -147t-97 -98q-20 -14 -31 -14q-9 0 -27 14q-30 18 -25 55q9 73 63.5 169t125.5 161zM385 568
q33 -25 -9 -64q-40 -36 -68 -43q-17 -4 -39 10l-8 7q-38 30 -23 59q9 15 37.5 37.5t49.5 28.5q13 3 17.5 -1.5t12.5 -24.5l2 -4q2 -4 -3 -5q-5 0 -6 2q-3 5 -15 2q-31 -10 -57 -45q-26 -30 -5 -41q17 -10 45 8.5t50 45.5q11 15 5 25q-7 10 -1 11q4 1 15 -8z" />
    <glyph glyph-name="ae" unicode="&#xe6;" horiz-adv-x="489" 
d="M236 227q22 85 20 108t-37 19q-65 -7 -104 -28q-12 -6 -15 -13t-3 -21q0 -8 -3.5 -10t-7.5 1t-7 7l-18 29q-13 29 8 43q68 44 157 46q25 1 32.5 -5t13.5 -32q29 -10 32 -27q10 17 28 39q22 27 40 27t42 -14q-3 13 1.5 15t28.5 2q12 0 16.5 -2t5 -4t-1 -9t-1.5 -13
q0 -18 0.5 -43t0.5 -36t-1 -26.5t-4.5 -23.5t-10 -17t-17.5 -17q-9 -7 -18.5 -11.5t-17 -7t-18.5 -3t-16 -1t-17 1.5t-15.5 2.5t-17 4t-15.5 3.5q-9 -14 -21 -64.5t-11 -93.5q1 -17 7.5 -22.5t24.5 0.5q32 11 66 37.5t91 84.5q11 11 19.5 5t-0.5 -19q-108 -152 -173 -150
q-21 0 -54 30q-7 5 -19 12q-36 18 5 131q-26 -45 -75.5 -99.5t-71.5 -66.5q-22 -11 -42 -8t-23 13q-36 24 -27 58q24 87 68.5 140.5t70.5 52.5q20 -1 68 -46q8 -7 2.5 -13t-15.5 -2q-33 16 -51 6q-31 -14 -58 -61t-39 -89q-8 -28 11 -26q16 2 42 26q35 32 76.5 83.5
t68.5 96.5zM340 227q35 -4 58 19q8 8 12 22.5t4.5 24t0 33.5t-0.5 29q0 31 -24 11q-47 -38 -85 -135q20 -2 35 -4z" />
    <glyph glyph-name="ccedilla" unicode="&#xe7;" horiz-adv-x="294" 
d="M69 1q-58 26 -55 92q2 51 37.5 147t75.5 141q19 21 32 20.5t49 -21.5q21 10 49.5 6.5t28.5 -26.5q0 -74 -21 -122q-9 -20 -27 -9q-39 21 -21 34q16 46 15 73q-2 22 -22 22q-2 0 -9 1.5t-11.5 0.5t-14.5 -8.5t-22 -23.5q-28 -36 -50 -94.5t-30 -97.5q-11 -60 1.5 -92
t40.5 -31q40 1 122 104q9 12 16.5 9t1.5 -17q-8 -19 -30.5 -56.5t-37.5 -55.5q-11 -12 -36 -12l-38 6q-11 0 -27 4q-14 -24 -28 -54q31 8 63 6q15 -2 19 -7.5t6 -25.5q15 -20 15.5 -29.5t-13.5 -22.5q-17 -13 -49.5 -27.5t-50.5 -18.5q-15 -3 -21 4t-12 27q-4 16 3.5 17.5
t15.5 -6.5q7 -3 34.5 5.5t47.5 23.5q30 24 -6 26q-26 0 -61 -8q-9 -1 -12.5 2.5t-9.5 19.5q-4 10 6 26q4 6 36 48z" />
    <glyph glyph-name="egrave" unicode="&#xe8;" horiz-adv-x="293" 
d="M14 76q10 71 36 148q-24 12 -17.5 21t25.5 -1q44 98 78 139q22 27 40 27t42 -14q-2 13 2 15t29 2q10 0 14.5 -0.5t5.5 -3t0.5 -5t-1.5 -8.5t-1 -11q0 -18 0.5 -43t0.5 -36t-1 -26.5t-4.5 -23.5t-10 -17t-17.5 -17q-8 -6 -16 -10.5t-17 -6.5l-16 -3.5t-16.5 -1.5h-15
t-15.5 2t-13.5 3t-13.5 3.5t-12 2.5q-8 -16 -20 -65.5t-11 -92.5q0 -34 31 -22q33 11 67 37.5t91 84.5q11 11 19 4.5t-2 -18.5q-52 -67 -85.5 -102t-59 -44t-41 -2.5t-39.5 28.5q-11 5 -14 7t-11.5 8.5t-10.5 17t0 24.5zM144 228q38 -2 59 18q8 8 11.5 22.5t4 24.5t0 33
t-0.5 29q0 30 -24 11q-48 -38 -84 -135q19 -3 34 -3zM134 603q22 12 44 -12q49 -52 72 -99q3 -7 0 -12.5t-9.5 -5t-12.5 8.5q-38 46 -70 71q-22 18 -36 18q-13 0 -19 9q-3 6 3 9z" />
    <glyph glyph-name="eacute" unicode="&#xe9;" horiz-adv-x="293" 
d="M14 76q10 71 36 148q-24 12 -17.5 21t25.5 -1q44 98 78 139q22 27 40 27t42 -14q-2 13 2 15t29 2q10 0 14.5 -0.5t5.5 -3t0.5 -5t-1.5 -8.5t-1 -11q0 -18 0.5 -43t0.5 -36t-1 -26.5t-4.5 -23.5t-10 -17t-17.5 -17q-8 -6 -16 -10.5t-17 -6.5l-16 -3.5t-16.5 -1.5h-15
t-15.5 2t-13.5 3t-13.5 3.5t-12 2.5q-8 -16 -20 -65.5t-11 -92.5q0 -34 31 -22q33 11 67 37.5t91 84.5q11 11 19 4.5t-2 -18.5q-52 -67 -85.5 -102t-59 -44t-41 -2.5t-39.5 28.5q-11 5 -14 7t-11.5 8.5t-10.5 17t0 24.5zM144 228q38 -2 59 18q8 8 11.5 22.5t4 24.5t0 33
t-0.5 29q0 30 -24 11q-48 -38 -84 -135q19 -3 34 -3zM321 603l28 -13q12 -6 -4 -15q-6 -3 -12 -3q-14 0 -36 -18q-32 -25 -70 -71q-6 -8 -12.5 -8.5t-9.5 5t0 12.5q23 47 72 99q22 24 44 12z" />
    <glyph glyph-name="ecircumflex" unicode="&#xea;" horiz-adv-x="293" 
d="M14 76q10 71 36 148q-24 12 -17.5 21t25.5 -1q44 98 78 139q22 27 40 27t42 -14q-2 13 2 15t29 2q10 0 14.5 -0.5t5.5 -3t0.5 -5t-1.5 -8.5t-1 -11q0 -18 0.5 -43t0.5 -36t-1 -26.5t-4.5 -23.5t-10 -17t-17.5 -17q-8 -6 -16 -10.5t-17 -6.5l-16 -3.5t-16.5 -1.5h-15
t-15.5 2t-13.5 3t-13.5 3.5t-12 2.5q-8 -16 -20 -65.5t-11 -92.5q0 -34 31 -22q33 11 67 37.5t91 84.5q11 11 19 4.5t-2 -18.5q-52 -67 -85.5 -102t-59 -44t-41 -2.5t-39.5 28.5q-11 5 -14 7t-11.5 8.5t-10.5 17t0 24.5zM144 228q38 -2 59 18q8 8 11.5 22.5t4 24.5t0 33
t-0.5 29q0 30 -24 11q-48 -38 -84 -135q19 -3 34 -3zM122 482q-3 14 -0.5 16.5t12.5 4.5q9 1 46 26t54 39q8 6 11.5 15t13.5 12q1 0 3 1q12 4 14 -3q6 -27 22 -57.5t28 -38.5q23 -7 -4 -18q-17 -8 -24 -7.5t-15 13.5q-15 25 -34 66q0 1 -1.5 1t-3.5 -0.5t-4.5 -2t-5.5 -3.5
q-6 -4 -42.5 -31.5t-44.5 -32.5t-11.5 -6.5t-6.5 -2t-4 1.5t-3 7z" />
    <glyph glyph-name="edieresis" unicode="&#xeb;" horiz-adv-x="293" 
d="M14 76q10 71 36 148q-24 12 -17.5 21t25.5 -1q44 98 78 139q22 27 40 27t42 -14q-2 13 2 15t29 2q10 0 14.5 -0.5t5.5 -3t0.5 -5t-1.5 -8.5t-1 -11q0 -18 0.5 -43t0.5 -36t-1 -26.5t-4.5 -23.5t-10 -17t-17.5 -17q-8 -6 -16 -10.5t-17 -6.5l-16 -3.5t-16.5 -1.5h-15
t-15.5 2t-13.5 3t-13.5 3.5t-12 2.5q-8 -16 -20 -65.5t-11 -92.5q0 -34 31 -22q33 11 67 37.5t91 84.5q11 11 19 4.5t-2 -18.5q-52 -67 -85.5 -102t-59 -44t-41 -2.5t-39.5 28.5q-11 5 -14 7t-11.5 8.5t-10.5 17t0 24.5zM144 228q38 -2 59 18q8 8 11.5 22.5t4 24.5t0 33
t-0.5 29q0 30 -24 11q-48 -38 -84 -135q19 -3 34 -3zM148 488q16 44 22 97q3 18 7 20q2 1 23 -22q5 -7 7 -16q2 -20 -16 -65q-10 -27 -15.5 -35.5t-11.5 -5.5q-17 9 -19 22q1 4 3 5zM252 489q15 40 23 97q2 17 6 19q3 1 23 -22q6 -5 7 -16q2 -21 -16 -64q-10 -27 -15.5 -36
t-11.5 -6q-17 10 -19 22q0 6 3 6z" />
    <glyph glyph-name="igrave" unicode="&#xec;" horiz-adv-x="190" 
d="M5 23q27 46 58.5 153t35.5 159q1 20 -4 21.5t-16 -10.5l-30 -28q-6 -5 -11 -6t-5 3t4 11q21 30 49 61q14 15 38 -2q2 -1 9 -2.5t9 -2.5t7 -3t6.5 -5.5l3.5 -8.5t1.5 -13t-2.5 -18q-11 -63 -61 -219q9 8 39 46q6 8 10 3q3 -3 -1 -12q-3 -6 -10 -17.5l-16.5 -26.5
l-14.5 -23q-22 -34 -43 -83q-8 -23 -48 0q-12 6 -13 9t5 14zM92 603q22 12 44 -12q49 -52 72 -99q3 -7 0 -12.5t-9.5 -5t-12.5 8.5q-38 46 -70 71q-22 18 -36 18q-13 0 -19 9q-3 6 3 9z" />
    <glyph glyph-name="iacute" unicode="&#xed;" horiz-adv-x="190" 
d="M5 23q27 46 58.5 153t35.5 159q1 20 -4 21.5t-16 -10.5l-30 -28q-6 -5 -11 -6t-5 3t4 11q21 30 49 61q14 15 38 -2q2 -1 9 -2.5t9 -2.5t7 -3t6.5 -5.5l3.5 -8.5t1.5 -13t-2.5 -18q-11 -63 -61 -219q9 8 39 46q6 8 10 3q3 -3 -1 -12q-3 -6 -10 -17.5l-16.5 -26.5
l-14.5 -23q-22 -34 -43 -83q-8 -23 -48 0q-12 6 -13 9t5 14zM238 603l28 -13q12 -6 -4 -15q-6 -3 -12 -3q-14 0 -36 -18q-32 -25 -70 -71q-6 -8 -12.5 -8.5t-9.5 5t0 12.5q23 47 72 99q22 24 44 12z" />
    <glyph glyph-name="icircumflex" unicode="&#xee;" horiz-adv-x="190" 
d="M5 23q27 46 58.5 153t35.5 159q1 20 -4 21.5t-16 -10.5l-30 -28q-6 -5 -11 -6t-5 3t4 11q21 30 49 61q14 15 38 -2q2 -1 9 -2.5t9 -2.5t7 -3t6.5 -5.5l3.5 -8.5t1.5 -13t-2.5 -18q-11 -63 -61 -219q9 8 39 46q6 8 10 3q3 -3 -1 -12q-3 -6 -10 -17.5l-16.5 -26.5
l-14.5 -23q-22 -34 -43 -83q-8 -23 -48 0q-12 6 -13 9t5 14zM53 482q-3 14 -0.5 16.5t12.5 4.5q9 1 46 26t54 39q8 6 11.5 15t13.5 12q1 0 3 1q12 4 14 -3q6 -27 22 -57.5t28 -38.5q23 -7 -4 -18q-17 -8 -24 -7.5t-15 13.5q-15 25 -34 66q0 1 -1.5 1t-3.5 -0.5t-4.5 -2
t-5.5 -3.5q-6 -4 -42.5 -31.5t-44.5 -32.5t-11.5 -6.5t-6.5 -2t-4 1.5t-3 7z" />
    <glyph glyph-name="idieresis" unicode="&#xef;" horiz-adv-x="190" 
d="M5 23q27 46 58.5 153t35.5 159q1 20 -4 21.5t-16 -10.5l-30 -28q-6 -5 -11 -6t-5 3t4 11q21 30 49 61q14 15 38 -2q2 -1 9 -2.5t9 -2.5t7 -3t6.5 -5.5l3.5 -8.5t1.5 -13t-2.5 -18q-11 -63 -61 -219q9 8 39 46q6 8 10 3q3 -3 -1 -12q-3 -6 -10 -17.5l-16.5 -26.5
l-14.5 -23q-22 -34 -43 -83q-8 -23 -48 0q-12 6 -13 9t5 14zM87 488q16 44 22 97q3 18 7 20q2 1 23 -22q5 -7 7 -16q2 -20 -16 -65q-10 -27 -15.5 -35.5t-11.5 -5.5q-17 9 -19 22q1 4 3 5zM191 489q15 40 23 97q2 17 6 19q3 1 23 -22q5 -5 7 -16q2 -21 -16 -64
q-10 -27 -15.5 -36t-11.5 -6q-17 10 -19 22q0 6 3 6z" />
    <glyph glyph-name="eth" unicode="&#xf0;" horiz-adv-x="348" 
d="M262 529q-48 -24 -65 -34.5t-17 -18.5q-2 -12 -8 -12q-5 0 -9 19q-3 19 -3 29q0 11 4 15.5t17 9.5q1 1 11 5l27.5 11.5l33.5 14.5q-7 26 -15 50.5t-16 44l-15.5 37t-14 29.5l-11.5 21.5t-8 13.5l-3 5l32 18q64 -90 99 -196q3 1 8 4t7 4l20.5 10t18 9l14 8l12.5 7.5
t8.5 6.5t6.5 8t2 8q2 17 8 17q5 0 5 -15q0 -6 1.5 -17t1.5 -15q0 -13 -8.5 -22t-35.5 -22l-54 -26l-1 -1q-1 -1 -2 -1q25 -89 25 -194q0 -78 -23 -158q-32 -119 -92 -184q-19 -20 -32 -26.5t-36 -6.5l-38 6q-45 3 -74.5 29t-29.5 69v4q3 52 38 148.5t75 141.5q19 21 31 21
q17 0 54 -34q9 5 15 10.5t10.5 8t12.5 6.5q6 2 8 2q5 0 9 -2.5t8.5 -7t7.5 -6.5q0 72 -20 148zM180 324q-12 -5 -14 -5q-5 0 -9 9q-28 -35 -49.5 -92.5t-29.5 -99.5q-5 -30 -5 -49q0 -74 45 -74h1q17 1 40 15q41 28 76 109t43 158q4 36 4 42q0 20 -14 20q-2 0 -12 -2z" />
    <glyph glyph-name="ntilde" unicode="&#xf1;" horiz-adv-x="420" 
d="M241 24q32 65 58 163.5t22 151.5q-2 36 -29 9q-124 -120 -213 -321q-10 -22 -22 -24.5t-40 11.5q-10 5 -10 9t5 13q28 63 57 162t33 156q1 18 -1 18q0 -1 -13 -13l-37 -35q-10 -8 -16 -2q-4 4 4 12q7 7 28 34t27 33q20 20 36 -9q14 -4 20 -6.5t12 -10t5 -19.5
q-7 -58 -55 -194q33 63 95.5 141t92.5 92q18 8 23.5 7t18.5 -11q14 -5 20.5 -8t13 -13.5t6.5 -25.5q0 -34 -15 -102.5t-26 -104.5q11 13 36 47q7 8 12.5 3.5t1.5 -13.5q-1 -1 -12 -18.5l-22 -35t-23.5 -39.5t-18.5 -36q-5 -11 -10.5 -26.5t-8 -20.5t-8 -10t-13 -3t-21.5 8
q-17 7 -19 13.5t6 17.5zM291 551q20 -19 44 -26q16 -3 56 44q1 10 8 10.5t13 -7.5q1 -2 4.5 -5.5t4 -4.5t1.5 -4t0 -5t-3 -5q-17 -20 -44 -45.5t-33 -24.5q-23 5 -63 50q-24 22 -45 26q-13 4 -56 -43q0 -11 -7 -11t-13 8q-9 10 -10 11.5t2 11.5q16 21 43.5 46.5t34.5 24.5
q21 -4 63 -51z" />
    <glyph glyph-name="ograve" unicode="&#xf2;" horiz-adv-x="348" 
d="M117 -9q-46 3 -75.5 30t-28.5 72q3 52 38 148.5t75 141.5q17 23 33 21.5t52 -34.5q11 4 21.5 9t20.5 9q21 9 34.5 4t32.5 -34q15 -24 14 -49q0 -18 -7.5 -61t-35 -114.5t-68.5 -115.5q-19 -20 -32 -26.5t-36 -6.5zM180 324q-16 -6 -19 -3q-2 2 -4 7q-28 -35 -49.5 -92.5
t-29.5 -99.5q-11 -60 1 -92t40 -31q17 1 40 15q41 28 76 109t43 158q6 40 2.5 53t-24.5 7zM156 603q22 12 44 -12q49 -52 72 -99q3 -7 0 -12.5t-9.5 -5t-12.5 8.5q-38 46 -70 71q-22 18 -36 18q-13 0 -19 9q-3 6 3 9z" />
    <glyph glyph-name="oacute" unicode="&#xf3;" horiz-adv-x="348" 
d="M117 -9q-46 3 -75.5 30t-28.5 72q3 52 38 148.5t75 141.5q17 23 33 21.5t52 -34.5q11 4 21.5 9t20.5 9q21 9 34.5 4t32.5 -34q15 -24 14 -49q0 -18 -7.5 -61t-35 -114.5t-68.5 -115.5q-19 -20 -32 -26.5t-36 -6.5zM180 324q-16 -6 -19 -3q-2 2 -4 7q-28 -35 -49.5 -92.5
t-29.5 -99.5q-11 -60 1 -92t40 -31q17 1 40 15q41 28 76 109t43 158q6 40 2.5 53t-24.5 7zM353 603l28 -13q12 -6 -4 -15q-6 -3 -12 -3q-14 0 -36 -18q-32 -25 -70 -71q-6 -8 -12.5 -8.5t-9.5 5t0 12.5q23 47 72 99q22 24 44 12z" />
    <glyph glyph-name="ocircumflex" unicode="&#xf4;" horiz-adv-x="348" 
d="M117 -9q-46 3 -75.5 30t-28.5 72q3 52 38 148.5t75 141.5q17 23 33 21.5t52 -34.5q11 4 21.5 9t20.5 9q21 9 34.5 4t32.5 -34q15 -24 14 -49q0 -18 -7.5 -61t-35 -114.5t-68.5 -115.5q-19 -20 -32 -26.5t-36 -6.5zM180 324q-16 -6 -19 -3q-2 2 -4 7q-28 -35 -49.5 -92.5
t-29.5 -99.5q-11 -60 1 -92t40 -31q17 1 40 15q41 28 76 109t43 158q6 40 2.5 53t-24.5 7zM152 482q-3 14 -0.5 16.5t12.5 4.5q9 1 46 26t54 39q8 6 11.5 15t13.5 12q1 0 3 1q12 4 14 -3q6 -27 22 -57.5t28 -38.5q23 -7 -4 -18q-17 -8 -24 -7.5t-15 13.5q-15 25 -34 66
q-1 4 -15 -5q-6 -4 -42.5 -31.5t-44.5 -32.5t-11.5 -6.5t-6.5 -2t-4 1.5t-3 7z" />
    <glyph glyph-name="otilde" unicode="&#xf5;" horiz-adv-x="348" 
d="M117 -9q-46 3 -75.5 30t-28.5 72q3 52 38 148.5t75 141.5q17 23 33 21.5t52 -34.5q11 4 21.5 9t20.5 9q21 9 34.5 4t32.5 -34q15 -24 14 -49q0 -18 -7.5 -61t-35 -114.5t-68.5 -115.5q-19 -20 -32 -26.5t-36 -6.5zM180 324q-16 -6 -19 -3q-2 2 -4 7q-28 -35 -49.5 -92.5
t-29.5 -99.5q-11 -60 1 -92t40 -31q17 1 40 15q41 28 76 109t43 158q6 40 2.5 53t-24.5 7zM274 551q20 -19 44 -26q16 -3 56 44q1 10 8 10.5t13 -7.5q1 -2 4.5 -5.5t4 -4.5t1.5 -4t0 -5t-3 -5q-17 -20 -44 -45.5t-33 -24.5q-23 5 -63 50q-24 22 -45 26q-13 4 -56 -43
q0 -11 -7 -11t-13 8q-9 10 -10 11.5t2 11.5q16 21 43.5 46.5t34.5 24.5q21 -4 63 -51z" />
    <glyph glyph-name="odieresis" unicode="&#xf6;" horiz-adv-x="348" 
d="M117 -9q-46 3 -75.5 30t-28.5 72q3 52 38 148.5t75 141.5q17 23 33 21.5t52 -34.5q11 4 21.5 9t20.5 9q21 9 34.5 4t32.5 -34q15 -24 14 -49q0 -18 -7.5 -61t-35 -114.5t-68.5 -115.5q-19 -20 -32 -26.5t-36 -6.5zM180 324q-16 -6 -19 -3q-2 2 -4 7q-28 -35 -49.5 -92.5
t-29.5 -99.5q-11 -60 1 -92t40 -31q17 1 40 15q41 28 76 109t43 158q6 40 2.5 53t-24.5 7zM188 488q16 44 22 97q3 18 7 20q2 1 23 -22q5 -7 7 -16q2 -20 -16 -65q-10 -27 -15.5 -35.5t-11.5 -5.5q-17 9 -19 22q1 4 3 5zM292 489q15 40 23 97q2 17 6 19q3 1 23 -22
q6 -5 7 -16q2 -21 -16 -64q-10 -27 -15.5 -36t-11.5 -6q-17 10 -19 22q0 6 3 6z" />
    <glyph glyph-name="divide" unicode="&#xf7;" 
d="M269 386q0 -20 -13.5 -33.5t-33.5 -13.5t-34 13.5t-14 33.5t14 34t34 14t33.5 -14t13.5 -34zM391 211h-338v50h338v-50zM269 86q0 -20 -13.5 -34t-33.5 -14t-34 14t-14 34t14 33.5t34 13.5t33.5 -13.5t13.5 -33.5z" />
    <glyph glyph-name="oslash" unicode="&#xf8;" horiz-adv-x="348" 
d="M87 29l146 317q-8 -4 -28 -12l-25 -10q-9 -4 -12.5 -4.5t-6.5 1t-4 7.5q-28 -35 -49.5 -92.5t-29.5 -99.5q-14 -75 9 -107zM74 1q-62 24 -61 92q3 52 38 148.5t75 141.5q17 23 33 21.5t52 -34.5q12 7 42 18l14 33q8 21 -4 32q-2 2 -2 4.5t2.5 4.5t5.5 1q6 -2 27 -15
q7 -5 -5 -33l-9 -22q16 -1 38 -35q15 -24 14 -49q0 -18 -7.5 -61t-35 -114.5t-68.5 -115.5q-19 -20 -32 -26.5t-36 -6.5l-38 6q-11 0 -21 3l-19 -45q-8 -22 4 -32q3 -3 0.5 -7.5t-6.5 -2.5q-7 2 -28 15q-6 4 6 33zM106 15q22 -8 53 13q41 28 76 109t43 158q5 35 3 49t-16 12
z" />
    <glyph glyph-name="ugrave" unicode="&#xf9;" horiz-adv-x="397" 
d="M33 47q5 59 20 125.5t31 106.5q-8 -6 -15.5 -13.5l-9.5 -9.5q-6 -6 -10 -3t2 11q27 40 31 51q14 35 32 59q9 11 18 11t39 -16q5 -3 6 -7t-0.5 -6l-5 -6.5t-4.5 -5.5q-24 -37 -52.5 -134.5t-29.5 -161.5q0 -40 34 -3q37 39 104 143.5t81 135.5q21 50 36 59q17 12 46 -7
q12 -8 14.5 -10.5t-2 -5.5t-5.5 -6q-64 -119 -97 -283l18 33t15 28q4 10 11 5.5t3 -14.5q-32 -73 -41 -110q-6 -23 -14.5 -24t-39.5 19q-11 8 -12.5 16t2.5 22q20 104 49 185q-93 -151 -158 -226q-25 -28 -63 -5q-21 4 -28 13.5t-5 33.5zM173 603q22 12 44 -12
q49 -52 72 -99q3 -7 0 -12.5t-9.5 -5t-12.5 8.5q-38 46 -70 71q-22 18 -36 18q-13 0 -19 9q-3 6 3 9z" />
    <glyph glyph-name="uacute" unicode="&#xfa;" horiz-adv-x="397" 
d="M33 47q5 59 20 125.5t31 106.5q-8 -6 -15.5 -13.5l-9.5 -9.5q-6 -6 -10 -3t2 11q27 40 31 51q14 35 32 59q9 11 18 11t39 -16q5 -3 6 -7t-0.5 -6l-5 -6.5t-4.5 -5.5q-24 -37 -52.5 -134.5t-29.5 -161.5q0 -40 34 -3q37 39 104 143.5t81 135.5q21 50 36 59q17 12 46 -7
q12 -8 14.5 -10.5t-2 -5.5t-5.5 -6q-64 -119 -97 -283l18 33t15 28q4 10 11 5.5t3 -14.5q-32 -73 -41 -110q-6 -23 -14.5 -24t-39.5 19q-11 8 -12.5 16t2.5 22q20 104 49 185q-93 -151 -158 -226q-25 -28 -63 -5q-21 4 -28 13.5t-5 33.5zM382 603l28 -13q12 -6 -4 -15
q-6 -3 -12 -3q-14 0 -36 -18q-32 -25 -70 -71q-6 -8 -12.5 -8.5t-9.5 5t0 12.5q23 47 72 99q22 24 44 12z" />
    <glyph glyph-name="ucircumflex" unicode="&#xfb;" horiz-adv-x="397" 
d="M33 47q5 59 20 125.5t31 106.5q-8 -6 -15.5 -13.5l-9.5 -9.5q-6 -6 -10 -3t2 11q27 40 31 51q14 35 32 59q9 11 18 11t39 -16q5 -3 6 -7t-0.5 -6l-5 -6.5t-4.5 -5.5q-24 -37 -52.5 -134.5t-29.5 -161.5q0 -40 34 -3q37 39 104 143.5t81 135.5q21 50 36 59q17 12 46 -7
q12 -8 14.5 -10.5t-2 -5.5t-5.5 -6q-64 -119 -97 -283l18 33t15 28q4 10 11 5.5t3 -14.5q-32 -73 -41 -110q-6 -23 -14.5 -24t-39.5 19q-11 8 -12.5 16t2.5 22q20 104 49 185q-93 -151 -158 -226q-25 -28 -63 -5q-21 4 -28 13.5t-5 33.5zM175 482q-3 14 -0.5 16.5t12.5 4.5
q9 1 46 26t54 39q8 6 11.5 15t13.5 12q1 0 3 1q12 4 14 -3q6 -27 22 -57.5t28 -38.5q23 -7 -4 -18q-17 -8 -24 -7.5t-15 13.5q-15 25 -34 66q-1 4 -15 -5q-6 -4 -42.5 -31.5t-44.5 -32.5t-11.5 -6.5t-6.5 -2t-4 1.5t-3 7z" />
    <glyph glyph-name="udieresis" unicode="&#xfc;" horiz-adv-x="397" 
d="M33 47q5 59 20 125.5t31 106.5q-8 -6 -15.5 -13.5l-9.5 -9.5q-6 -6 -10 -3t2 11q27 40 31 51q14 35 32 59q9 11 18 11t39 -16q5 -3 6 -7t-0.5 -6l-5 -6.5t-4.5 -5.5q-24 -37 -52.5 -134.5t-29.5 -161.5q0 -40 34 -3q37 39 104 143.5t81 135.5q21 50 36 59q17 12 46 -7
q12 -8 14.5 -10.5t-2 -5.5t-5.5 -6q-64 -119 -97 -283l18 33t15 28q4 10 11 5.5t3 -14.5q-32 -73 -41 -110q-6 -23 -14.5 -24t-39.5 19q-11 8 -12.5 16t2.5 22q20 104 49 185q-93 -151 -158 -226q-25 -28 -63 -5q-21 4 -28 13.5t-5 33.5zM194 488q16 44 22 97q3 18 7 20
q2 1 23 -22q5 -7 7 -16q2 -20 -16 -65q-10 -27 -15.5 -35.5t-11.5 -5.5q-17 9 -19 22q1 4 3 5zM298 489q15 40 23 97q2 17 6 19q3 1 23 -22q6 -5 7 -16q2 -21 -16 -64q-10 -27 -15.5 -36t-11.5 -6q-17 10 -19 22q0 6 3 6z" />
    <glyph glyph-name="yacute" unicode="&#xfd;" horiz-adv-x="407" 
d="M379 338q-67 -308 -125 -463q-116 -307 -266 -307h-1q-86 0 -188 95q-9 9 -9 18q0 14 14 14q7 0 13 -5q40 -35 72 -51.5t70 -16.5q60 0 114 51.5t95.5 141.5t72 187.5t55.5 213.5l5.5 28.5t5.5 26.5q-51 -84 -113.5 -163.5t-97.5 -108.5q-20 -16 -31 -16q-5 0 -10 3
t-8.5 7t-10 12.5t-11.5 13.5q-5 8 -5 11t2 5.5t4 2.5l3 1q23 32 41 125.5t24 169.5v6q0 12 -4 12q-2 0 -5.5 -2.5t-9 -7.5t-8.5 -8q-5 -5 -12 -10.5t-11 -9.5t-7 -6q-3 -3 -7 -3q-7 0 -7 7q0 4 3 7q17 21 37 51l7.5 10.5l6.5 9.5t5 7t5.5 6t5 3t5.5 1q6 0 18 -6q24 4 28 4
q17 0 17 -27q0 -1 -0.5 -5t-0.5 -7q-5 -55 -27.5 -168.5t-36.5 -144.5q49 39 126.5 150.5t95.5 166.5q1 33 14 33q12 0 38 -21q12 -8 12 -26q0 -3 -3 -18zM348 603l28 -13q4 -1 4 -5t-7 -8.5t-13 -4.5q-14 0 -36 -18q-32 -25 -70 -71q-5 -8 -13 -8q-10 0 -10 11q0 4 1 6
q23 47 72 99q17 17 29 17q7 0 15 -5z" />
    <glyph glyph-name="thorn" unicode="&#xfe;" horiz-adv-x="412" 
d="M327 693q-65 -96 -125 -233t-97 -279q73 119 175 210q14 13 26 13q7 0 27 -15q33 -12 47.5 -30t14.5 -48v-10q-6 -83 -42.5 -174.5t-70.5 -123.5q-18 -18 -39 -18q-23 0 -75 36q-10 7 -10 14q0 10 13 10q6 0 12 -3q9 -4 21 -4q36 0 63 45q22 35 45 105t23 128v13
q-1 28 -19 28q-15 0 -38 -21q-159 -152 -223 -362q-16 -53 -27 -98.5t-17 -88t-8.5 -67.5t-5.5 -71.5t-4 -65.5q-2 -24 -12 -24q-11 0 -36 24q-16 15 -16 34l1 9q2 139 70 393t165.5 485t174.5 297q16 13 29 13q6 0 12.5 -3t14.5 -8.5t14 -11l18 -16l20 -17.5q6 -4 6 -9
q0 -10 -13 -10q-6 0 -10 2q-22 12 -33 12q-30 0 -71 -60z" />
    <glyph glyph-name="ydieresis" unicode="&#xff;" horiz-adv-x="407" 
d="M379 338q-66 -306 -124 -461q-117 -310 -268 -309q-86 0 -188 95q-9 9 -8.5 19t8.5 12.5t18 -4.5q40 -35 72 -51.5t70 -16.5q60 0 114 51.5t95.5 141.5t72 187.5t55.5 213.5l5.5 28.5t5.5 26.5q-51 -84 -113.5 -163.5t-97.5 -108.5q-12 -9 -19.5 -13.5t-15.5 -1.5
t-10 4.5t-12.5 14.5t-13.5 16q-6 8 -5 12.5t5 6.5l4 1q23 32 41 125.5t24 169.5q1 12 -1.5 15.5t-6 1t-10.5 -8.5q-6 -6 -9 -8q-5 -5 -12 -10.5t-11 -9.5t-7 -6q-7 -5 -12 -0.5t1 11.5q17 21 37 51q4 5 9 12.5l7 10.5t6 7t6 5t6 1.5t8.5 -1t10.5 -4.5q26 7 36 2t8 -37
q-5 -55 -27.5 -168.5t-36.5 -144.5q49 39 126.5 150.5t95.5 166.5q1 32 14 33t38 -21q16 -12 9 -44zM192 488q16 44 22 97q3 18 7 20q2 1 23 -22q5 -7 7 -16q2 -20 -16 -65q-10 -27 -15.5 -35.5t-11.5 -5.5q-17 9 -19 22q1 4 3 5zM296 489q15 40 23 97q2 17 6 19q3 1 23 -22
q6 -5 7 -16q2 -21 -16 -64q-10 -27 -15.5 -36t-11.5 -6q-17 10 -19 22q0 6 3 6z" />
    <glyph glyph-name="dotlessi" unicode="&#x131;" horiz-adv-x="190" 
d="M5 23q27 46 58.5 153t35.5 159q1 20 -4 21.5t-16 -10.5l-30 -28q-6 -5 -11 -6t-5 3t4 11q21 30 49 61q14 15 38 -2q2 -1 9 -2.5t9 -2.5t7 -3t6.5 -5.5l3.5 -8.5t1.5 -13t-2.5 -18q-11 -63 -61 -219q9 8 39 46q6 8 10 3q3 -3 -1 -12q-3 -6 -10 -17.5l-16.5 -26.5
l-14.5 -23q-22 -34 -43 -83q-8 -23 -48 0q-12 6 -13 9t5 14z" />
    <glyph glyph-name="Lslash" unicode="&#x141;" horiz-adv-x="531" 
d="M282 270q-16 -2 -49 -8q-22 -59 -55 -158q-11 -35 -36 -41q134 0 273 -15q3 0 8 -0.5t6 -0.5q4 0 7 1t5 1.5t4 3.5l3 4.5t3.5 7t3.5 8.5q7 13 13 13t11 -11q21 -39 21 -57q0 -15 -19 -31q-20 -19 -31 -19q-12 0 -27 5q-112 32 -251 32q-36 0 -75 -3l-16.5 -1.5t-9.5 -2.5
t-4.5 -3l-3 -6t-4.5 -8q-13 -22 -30 -22q-10 0 -15 11q-14 42 -14 52q0 17 15 25q25 13 91 16q24 85 58 186q-62 -15 -75 -26q-11 -10 -21 -10q-8 0 -8 7q0 1 2 7l12 35q8 20 65 30l43 8q66 178 129 274t105 102h4q17 0 77 -29q10 1 25 1q21 0 26 -9t5 -41v-6
q0 -70 -27 -144q-7 -19 -34 -28.5t-57 -9.5h-13q-4 0 -4 3q0 12 42 38q10 18 20 59t10 77v11q-2 28 -29 28q-16 0 -33 -13q-86 -66 -176 -301q123 23 147 42q13 13 24 13q6 0 6 -6q0 -3 -1 -5l-13 -36q-8 -26 -61 -36z" />
    <glyph glyph-name="lslash" unicode="&#x142;" horiz-adv-x="230" 
d="M110 109q12 12 24 26.5t17.5 20.5t10.5 6q6 0 6 -6q0 -4 -4 -9q-47 -69 -62 -140q-5 -18 -14 -18q-5 0 -10 4l-9.5 6.5t-8.5 5.5t-6.5 5t-6 6l-4 5.5t-3 7.5t-0.5 9q0 3 2 19q19 109 52 239q-39 -22 -55 -43q-14 -18 -20 -18q-3 0 -3 3q0 5 3 11l9 32q6 21 53 43
q16 8 24 13q52 191 109 309.5t95 154.5q16 13 29 13q7 0 16.5 -5.5t17 -11t23 -18.5l25.5 -21q7 -4 7 -10q0 -9 -12 -9q-6 0 -10 2q-22 12 -33 12q-31 0 -68 -60q-80 -131 -138 -330l6 3q69 38 82 55q17 23 23 23q2 0 2 -4t-1 -7l-10 -34q-2 -10 -10 -18t-31 -22
q-26 -17 -73 -39q-25 -98 -39 -186q-1 -4 -2.5 -12.5t-2.5 -12.5z" />
    <glyph glyph-name="OE" unicode="&#x152;" horiz-adv-x="826" 
d="M260 -18q-16 -1 -33 2.5t-27.5 9.5t-7.5 13q-67 17 -99.5 49t-29.5 101q5 141 76.5 286.5t131.5 200.5q23 23 46 23q39 0 82 -21q28 36 145 20q55 -8 150.5 -32t128.5 -26q24 32 36 30q17 -3 13 -53q-1 -8 -1.5 -12.5t-2.5 -7t-3.5 -3.5t-6 -3.5t-7.5 -3.5
q-23 -11 -43 -5l-21 5q-57 16 -167 34q12 -29 5.5 -66.5t-38.5 -128.5q102 10 155 6q12 -1 20 -4t11.5 -9t5 -9.5t2 -14t1.5 -14.5q1 -5 0 -9.5t-4 -7.5t-6 -5t-9.5 -3.5l-11 -2.5l-13 -3t-14.5 -3q-17 -3 -23.5 3t-11 14.5t-14.5 8.5q-61 0 -109 -5q-16 -45 -57 -124.5
t-67 -110.5q191 0 291 -11q12 -1 16.5 5.5t4 14.5t3 14.5t13.5 5.5q2 0 4 -1.5t4 -4.5t3.5 -5.5t3 -7t3 -8t2.5 -9.5t2 -9.5t2.5 -10.5t2.5 -10q2 -10 -1 -16.5t-13 -16t-14 -14.5q-5 -7 -11 -9t-10 -1.5t-14.5 3.5l-17.5 5q-39 9 -63 13.5t-71.5 10.5t-85 4.5t-103.5 -5.5
q-31 -31 -58 -43t-75 -13zM299 26q-6 40 8 51.5t57 13.5q22 16 60.5 79t55.5 109q-14 23 -19 40t-5.5 26.5t8 16t14 8.5t21.5 5l21 4q23 55 40 123t13 94q-49 13 -82 10t-64 -35q-21 -21 -34.5 -72t-16.5 -83.5t-4 -59.5q-2 -24 -14 -23q-10 0 -11 20q-9 136 34 266
q-38 5 -54 -8q-54 -40 -129 -188t-70 -269q3 -49 18.5 -72.5t52.5 -42.5q55 -28 100 -13z" />
    <glyph glyph-name="oe" unicode="&#x153;" horiz-adv-x="506" 
d="M236 38q-2 -2 -6.5 -7t-6.5 -8q-19 -20 -32.5 -26.5t-35.5 -6.5l-38 6q-46 3 -75.5 30t-28.5 72q3 52 38 148.5t75 141.5q17 23 33 21.5t52 -34.5q11 4 21.5 9t20.5 9q20 10 36 3t37 -44q16 22 24 32q22 26 40 26.5t42 -13.5q-2 13 2 15t28 2q12 0 16.5 -2t5 -4t-1 -9
t-1.5 -13q0 -18 1 -49.5t0.5 -42t-3.5 -27.5t-10 -26t-20 -18q-10 -8 -19.5 -13t-20.5 -7t-16.5 -3.5t-18.5 0.5t-16 2.5t-18.5 4.5t-17.5 4q-11 -21 -26 -68t-14 -89q1 -18 7.5 -23t24.5 0q32 12 67 38.5t91 83.5q11 11 18.5 5.5t-1.5 -18.5q-49 -66 -83 -101.5
t-59.5 -44.5t-42.5 -2.5t-40 28.5q-12 11 -21 15q-2 1 -5 2q-1 1 -2 1zM265 224q-25 13 -19 22q6 8 22 -1q6 23 10 55q6 40 2.5 53t-24.5 7l-76 -31q-16 -6 -19 -3q-2 2 -4 7q-28 -35 -49.5 -92.5t-29.5 -99.5q-11 -60 1 -92t40 -31q17 1 40 15q31 22 59.5 75t46.5 116z
M357 228q36 -4 60 19q8 8 11.5 22.5t4 24.5t0 33t-0.5 29q0 30 -24 11q-42 -34 -79 -135q13 -2 28 -4z" />
    <glyph glyph-name="Scaron" unicode="&#x160;" horiz-adv-x="547" 
d="M329 -34q-73 1 -156 60t-112 110q-28 48 -28 60q0 15 22 34q19 18 33 18q11 0 11 -14q0 -7 -3 -16q26 -70 109 -130.5t151 -60.5h1q34 0 47 21t13 61q0 39 -35 108.5l-70 143t-35 120.5q0 38 19.5 65.5t65.5 61.5q7 6 17 6q13 0 13 -11q0 -7 -9 -16q-38 -35 -38 -87
q0 -45 35.5 -117.5l70.5 -138.5t35 -96q0 -87 -90 -142q-21 -40 -64 -40h-3zM430 631q50 24 108 46q16 6 25 6q11 0 26 -25l3 -6q36 -11 41 -19q3 -5 3 -13q0 -11 -4 -24q-18 -63 -52 -116q-15 -22 -28 -22q-12 0 -44 21q-10 7 -10 13q0 10 17 15q13 4 28.5 43.5t15.5 61.5
q0 13 -3 18t-15 5q-4 0 -16 -2q-22 -4 -82 -26q-5 -2 -13 -2q-15 0 -15 9q0 10 15 17zM634 828q2 -10 2 -11q0 -7 -14 -10q-9 -1 -46 -26t-54 -39q-8 -6 -11.5 -15t-13.5 -12q-9 -3 -12 -3q-4 0 -5 5q-6 27 -22 57.5t-28 38.5q-11 4 -11 7q0 6 15 11q19 7 23 7q8 0 16 -13
q15 -25 34 -66q0 -1 2 -1q1 0 13 6q6 4 42.5 31.5t44.5 32.5q15 9 18 9q4 0 7 -9z" />
    <glyph glyph-name="scaron" unicode="&#x161;" horiz-adv-x="244" 
d="M111 72q6 10 6 28q0 31 -29.5 106t-29.5 100v4q4 61 113 85h2q9 0 9 -8q0 -6 -8 -9q-29 -13 -41 -24.5t-12 -31.5q0 -11 5 -34q5 -22 26 -85.5t22 -91.5v-3q0 -56 -65 -77q-6 -14 -9.5 -21t-13.5 -13.5t-26 -7.5q-3 -1 -11 -1q-5 0 -19 2q-21 2 -34.5 4t-18.5 3t-9.5 2
t-8.5 2q-12 2 -14 14q2 13 27 16q50 5 97 11q14 2 24.5 9.5t14.5 14.5zM186 309q10 43 10 54q0 8 -1 13q-1 4 -1 10q0 10 12 14l6 4q5 3 12 5.5t13 2.5q15 0 15 -21q0 -26 -12 -70q-1 -5 -2.5 -8.5t-2 -6t-2.5 -4.5t-2.5 -3t-3.5 -2t-3.5 -1.5t-4.5 -2t-5 -1.5
q-21 -7 -22 -7q-8 0 -8 10q0 2 2 14zM339 588q2 -10 2 -11q0 -7 -14 -10q-9 -1 -46 -26t-54 -39q-8 -6 -11.5 -15t-13.5 -12q-9 -3 -12 -3q-4 0 -5 5q-6 27 -22 57.5t-28 38.5q-11 4 -11 7q0 6 15 11q19 7 23 7q8 0 16 -13q15 -25 34 -66q0 -1 2 -1q1 0 13 6q6 4 42.5 31.5
t44.5 32.5q15 9 18 9q4 0 7 -9z" />
    <glyph glyph-name="Ydieresis" unicode="&#x178;" horiz-adv-x="640" 
d="M119 392l-19.5 31.5t-16 29.5t-9.5 30t2.5 25t15.5 24t35 17q19 7 114 37t124 42q21 36 39.5 38t63.5 -36q18 -16 -18 -27q-8 -2 -19 -5q-59 -81 -96.5 -204.5t-37.5 -194.5q0 -53 24.5 -66t49.5 15q174 175 302 443q10 41 24.5 48t42.5 -22q13 -9 2.5 -35.5t-55.5 -90.5
q-14 -34 -76.5 -241t-96.5 -289q-20 -48 -32 -68t-34.5 -25t-51.5 10.5t-84 54.5q-5 4 -7.5 7.5t-3 6.5t0.5 5.5t4 4t6.5 2.5t8 0.5t8.5 -2.5t15 -6.5t14.5 -5.5t12.5 -4t12 -3t10.5 -1t11 0.5l9.5 4t10 7t8.5 11t9.5 14.5q90 164 159 410q-44 -78 -101 -154.5t-101 -120.5
q-29 -30 -48 -30t-37 22q-53 32 -62 42q-19 21 -18 80q3 106 99 343q-118 -44 -172 -86q-12 -9 -18.5 -17t-7 -17.5t1 -15t7 -20t7.5 -22.5q4 -13 -8 -13q-14 0 -24 17zM500 728q16 44 22 97q3 18 7 20q2 1 23 -22q5 -7 7 -16q2 -20 -16 -65q-10 -27 -15.5 -35.5t-11.5 -5.5
q-17 9 -19 22q1 4 3 5zM604 729q15 40 23 97q2 17 6 19q3 1 23 -22q6 -5 7 -16q2 -21 -16 -64q-10 -27 -15.5 -36t-11.5 -6q-17 10 -19 22q0 6 3 6z" />
    <glyph glyph-name="Zcaron" unicode="&#x17d;" horiz-adv-x="547" 
d="M274 235q-69 -102 -104 -169q88 0 252 -29q16 -2 19 -2q5 0 8 0.5t5 2t2.5 3t2 3.5t1.5 3q4 10 5.5 13t4.5 4.5t9 1.5q10 0 12.5 -3.5t7.5 -23.5l9 -32q2 -10 2 -13q0 -8 -4 -14.5t-8.5 -10.5t-12.5 -10l-12 -9q-4 -4 -10 -4q-5 0 -23 7q-161 56 -304 56q-13 -17 -22 -21
t-33 -4q-14 0 -19.5 2.5t-15.5 15.5q-14 19 -14 23q0 5 9 19q10 14 20 18t33 4h18q22 37 63 99v5q0 26 -4.5 55t-4.5 33q0 11 5 15q11 11 89 15q131 183 212 251q-20 5 -63.5 21t-81 26.5t-64.5 10.5q-49 0 -73 -42q-33 -61 -61 -150q-7 -18 -20 -18t-13 16q0 5 1 8
q33 142 73 222q11 21 33 32t45 11q36 0 141 -40.5t141 -44.5q29 22 49 22q9 0 26 -5q27 -9 27 -22q0 -2 -1 -6.5t-1 -7.5q0 -21 -34 -48q-15 -12 -30 -12q-8 0 -40 7q-70 -37 -212 -229q102 -2 158 -7q8 -1 14 -6t6 -10q0 -12 -24 -13q-100 -8 -194 -19zM567 828
q2 -10 2 -11q0 -7 -14 -10q-9 -1 -46 -26t-54 -39q-8 -6 -11.5 -15t-13.5 -12q-9 -3 -12 -3q-4 0 -5 5q-6 27 -22 57.5t-28 38.5q-11 4 -11 7q0 6 15 11q19 7 23 7q8 0 16 -13q15 -25 34 -66q0 -1 2 -1q1 0 13 6q6 4 42.5 31.5t44.5 32.5q15 9 18 9q4 0 7 -9z" />
    <glyph glyph-name="zcaron" unicode="&#x17e;" horiz-adv-x="320" 
d="M24 71q43 48 62 78q-1 9 -5 25t-4 22t2 9q9 15 62 15l86 106q-42 11 -89 11q-30 0 -48 -11.5t-35 -44.5q-6 -12 -14 -12q-6 0 -6 9q0 1 2 9q20 58 35 84q6 12 9.5 16.5t14.5 8.5t30 4q44 0 152 -26q21 18 28 18q5 0 11 -3q10 -6 10 -15q0 -14 -13 -44q-7 -16 -20 -16
q-8 0 -28 5q-40 -38 -83 -98q15 0 40 1.5t32 1.5q13 0 13 -6t-11 -9q-91 -21 -113 -33q-57 -74 -74 -109q18 0 77 -7.5t81 -7.5q20 0 28.5 6t18.5 21q6 8 10 8q6 0 6 -8q0 -2 -2 -8q-8 -20 -29 -57q-10 -18 -20 -24t-30 -6q-22 0 -78 16.5t-84 16.5q-12 0 -21 -1
q-14 -29 -30 -31q-11 0 -19 15q-10 18 -10 29q0 12 10 22q17 20 44 20h2zM371 588q2 -10 2 -11q0 -7 -14 -10q-9 -1 -46 -26t-54 -39q-8 -6 -11.5 -15t-13.5 -12q-9 -3 -12 -3q-4 0 -5 5q-6 27 -22 57.5t-28 38.5q-11 4 -11 7q0 6 15 11q19 7 23 7q8 0 16 -13q15 -25 34 -66
q0 -1 2 -1q1 0 13 6q6 4 42.5 31.5t44.5 32.5q15 9 18 9q4 0 7 -9z" />
    <glyph glyph-name="florin" unicode="&#x192;" horiz-adv-x="554" 
d="M261 352q-74 0 -92 -3t-24 -14q-6 -10 -11 -6q-5 3 1 21q10 33 17 41.5t23 7.5l65 -5q20 -1 41 -1q131 257 215 316q23 15 36 19t36 -5t61 -38q47 -13 57 -20t5 -32q-12 -63 -37 -111q-10 -19 -21 -25t-30 0q-33 11 -32 26q1 8 14 11q27 38 38 110q4 24 -21.5 31.5
t-48.5 -6.5q-88 -53 -202 -275q74 2 82 6q4 2 10 10q9 12 14 4q5 -6 -1 -20q-2 -5 -5.5 -13t-4.5 -10.5t-4 -8.5t-5 -6t-7.5 -4t-10.5 -2.5t-14.5 -1t-19.5 0.5q-8 1 -28.5 1.5t-29.5 0.5l-17 -35.5l-15 -30.5q43 0 63.5 2t25 4.5t10.5 10.5q9 11 14 3q5 -6 -1 -19
q-2 -5 -5.5 -13t-4.5 -10.5t-4 -8.5t-5 -6t-7.5 -4t-10.5 -2.5t-14.5 -1t-19.5 0.5q-8 0 -29.5 0.5t-31.5 0.5q-101 -215 -136 -348q-5 -18 -8 -26t-5 -15.5t-9.5 -10.5t-9 -4.5t-17.5 -4t-23 -4.5q-22 -4 -26 0t-1 23q7 38 6 89t-11 54q-15 2 -16 14q-1 6 8.5 10t30.5 8
q35 5 42 0.5t9 -26.5q27 81 100 243q-71 0 -89.5 -3t-23.5 -14q-6 -11 -11 -7t1 22q11 32 17 41t22 7l41.5 -2.5t43.5 -1.5l18 -1q20 43 33 67z" />
    <glyph glyph-name="circumflex" unicode="&#x2c6;" horiz-adv-x="217" 
d="M2 482q-3 14 -0.5 16.5t12.5 4.5q9 1 46 26t54 39q8 6 11.5 15t13.5 12q1 0 3 1q12 4 14 -3q6 -27 22 -57.5t28 -38.5q23 -7 -4 -18q-17 -8 -24 -7.5t-15 13.5q-15 25 -34 66q0 1 -1.5 1t-3.5 -0.5t-4.5 -2t-5.5 -3.5q-6 -4 -42.5 -31.5t-44.5 -32.5t-11.5 -6.5t-6.5 -2
t-4 1.5t-3 7z" />
    <glyph glyph-name="caron" unicode="&#x2c7;" horiz-adv-x="217" 
d="M239 588q2 -10 2 -11q0 -7 -14 -10q-9 -1 -46 -26t-54 -39q-8 -6 -11.5 -15t-13.5 -12q-9 -3 -12 -3q-4 0 -5 5q-6 27 -22 57.5t-28 38.5q-11 4 -11 7q0 6 15 11q19 7 23 7q8 0 16 -13q15 -25 34 -66q0 -1 2 -1q1 0 13 6q6 4 42.5 31.5t44.5 32.5q15 9 18 9q4 0 7 -9z
" />
    <glyph glyph-name="uni02C9" unicode="&#x2c9;" horiz-adv-x="240" 
d="M179 537q18 0 27.5 3t11.5 5t7 10q3 5 8 5q7 0 7 -7v-1q-3 -18 -5 -36q0 -1 -0.5 -5.5t-1 -5.5t-1 -4t-2 -3.5t-4 -1.5t-5.5 -1.5t-8 -0.5q-66 0 -153 17q-15 3 -24 3q-13 0 -22 -12q-3 -3 -7 -3q-8 0 -8 6q0 1 1 3q1 5 10 36q8 16 13 17q6 0 11 -1q99 -23 145 -23z" />
    <glyph glyph-name="breve" unicode="&#x2d8;" horiz-adv-x="217" 
d="M205 574q11 0 11 -3v-3q-6 -37 -31.5 -59t-47.5 -27.5t-44 -5.5q-16 0 -30 2.5t-30 9t-25.5 21.5t-9.5 37q0 16 2 23q2 5 13 5q9 0 11 -1t1 -7q-1 -4 -1 -7q0 -45 78 -45q31 0 57.5 14t32.5 41q1 5 13 5z" />
    <glyph glyph-name="dotaccent" unicode="&#x2d9;" horiz-adv-x="65" 
d="M3 487q17 44 23 100q3 19 7 21h1q3 0 23 -23q5 -6 8 -16v-3q0 -21 -17 -65t-25 -44q-1 0 -3 1q-18 10 -20 23q0 6 3 6z" />
    <glyph glyph-name="ring" unicode="&#x2da;" horiz-adv-x="168" 
d="M152 568q16 -12 16 -25q0 -16 -25 -39q-40 -36 -68 -43q-1 0 -4 -0.5t-4 -0.5q-11 0 -31 11l-8 7q-28 22 -28 41q0 8 5 18q9 15 37.5 37.5t49.5 28.5q8 2 9 2q7 0 10.5 -5.5t10.5 -21.5q1 -3 2 -5q1 -1 1 -2q0 -3 -5 -3q-3 0 -5 2q-1 3 -8 3q-4 0 -7 -1q-31 -10 -57 -45
q-14 -19 -14 -27q0 -9 9 -14q6 -3 12 -3q18 0 42 17.5t41 39.5q8 9 8 17q0 3 -3 8t-3 8t3 3q5 0 14 -8z" />
    <glyph glyph-name="ogonek" unicode="&#x2db;" horiz-adv-x="171" 
d="M121 11h30q-104 -62 -104 -135v-1q0 -14 7.5 -23t17.5 -9q2 0 8 2q34 16 61 45q3 2 3 8q0 3 -1.5 8t-1.5 6q0 2 1 3q4 2 5 2q5 0 9 -6q15 -18 15 -28q0 -8 -7 -15q-32 -35 -72 -53q-9 -4 -18 -4q-16 0 -29 21q-13 1 -29 7t-16 13v2q0 92 121 157z" />
    <glyph glyph-name="tilde" unicode="&#x2dc;" horiz-adv-x="276" 
d="M144 551q20 -19 44 -26q16 -3 56 44q1 10 8 10.5t13 -7.5q1 -2 4.5 -5.5t4 -4.5t1.5 -4t0 -5t-3 -5q-17 -20 -44 -45.5t-33 -24.5q-23 5 -63 50q-24 22 -45 26q-13 4 -56 -43q0 -11 -7 -11t-13 8q-9 10 -10 11.5t2 11.5q16 21 43.5 46.5t34.5 24.5q21 -4 63 -51z" />
    <glyph glyph-name="hungarumlaut" unicode="&#x2dd;" horiz-adv-x="238" 
d="M94 603l26 -13q6 -3 6 -6q0 -4 -6 -8t-12 -4q-14 0 -33 -18q-26 -23 -55 -71q-4 -8 -11 -8q-10 0 -10 12q0 3 1 5q15 46 52 99q14 17 26 17q8 0 16 -5zM206 603l26 -13q6 -3 6 -6q0 -4 -6 -8t-12 -4q-14 0 -33 -18q-27 -24 -57 -71q-4 -8 -11 -8q-10 0 -10 12
q0 1 0.5 2.5t0.5 2.5q15 47 54 99q14 17 26 17q8 0 16 -5z" />
    <glyph glyph-name="uni03A9" unicode="&#x3a9;" horiz-adv-x="650" 
d="M592 0h-209v70q121 123 121 304q0 119 -48 191.5t-135 72.5t-137.5 -74t-50.5 -191q0 -182 123 -303v-70h-209v70h134q-137 127 -137 318q0 140 78 232t202 92q125 0 197 -88.5t72 -233.5q0 -192 -136 -320h135v-70z" />
    <glyph glyph-name="uni03BC" unicode="&#x3bc;" horiz-adv-x="500" 
d="M139 -255h-85v755h85v-329q0 -59 22 -84t66 -25q94 0 122 128v310h86v-500h-86v65q-43 -82 -122 -82q-67 0 -88 48v-286z" />
    <glyph glyph-name="pi" unicode="&#x3c0;" horiz-adv-x="555" 
d="M512 65l16 -57q-25 -15 -68 -15q-61 0 -89 38t-28 96v308h-129v-296q0 -85 -13 -139h-86q14 57 14 144v291q-48 0 -88 -21l-23 58q52 28 135 28h371v-65h-96v-299q0 -78 54 -78q12 0 30 7z" />
    <glyph glyph-name="endash" unicode="&#x2013;" horiz-adv-x="444" 
d="M315 192q9 0 16 0.5t11.5 1t9 2.5t6.5 2t4.5 3.5t3 4t3.5 4.5l3 5q4 7 12 5.5t7 -9.5q0 -1 -2.5 -14t-4.5 -27q-2 -21 -7 -24t-20 -3q-90 0 -241 28q-34 5 -42 2.5t-16 -13.5q-5 -7 -12.5 -4t-4.5 11q0 3 2 8.5t5 14.5t5 17q1 2 1.5 5.5t1 5t1.5 4t1.5 3.5t2.5 2.5
t3.5 1.5h4.5t6 -0.5t8 -1.5q146 -34 232 -35z" />
    <glyph glyph-name="emdash" unicode="&#x2014;" horiz-adv-x="1094" 
d="M942 192q29 0 44.5 3.5t18.5 6.5t12 13q6 7 15.5 5.5t8.5 -9.5q-5 -17 -9 -41q0 -2 -0.5 -6.5t-1 -6l-1.5 -4.5t-2.5 -4t-4 -2.5t-6 -2t-8.5 -1t-12 -0.5q-96 0 -447 10t-410 18q-44 5 -54.5 2.5t-21.5 -13.5q-4 -4 -10.5 -4.5t-10 3t-1.5 8.5q1 3 3 8.5t6 14.5t7 17
q1 2 2.5 7t2 6.5t2.5 4t4 3l6 1.5t9 0t13 -2q71 -13 383 -23t463 -12z" />
    <glyph glyph-name="quoteleft" unicode="&#x2018;" horiz-adv-x="200" 
d="M188 674q-5 3 2 10q14 18 40 15q14 -2 -8 -79q-22 -76 -40 -99q-8 -11 -21 -16q-43 -15 -44 -11q-4 6 9 31q39 71 62 149z" />
    <glyph glyph-name="quoteright" unicode="&#x2019;" horiz-adv-x="200" 
d="M180 516q4 -2 -1 -10q-17 -19 -40 -14q-5 0 -6.5 4.5t0 15t4.5 23.5t9 35q22 76 40 99q9 12 22 16q42 15 44 11q4 -5 -10 -31q-41 -79 -62 -149z" />
    <glyph glyph-name="quotesinglbase" unicode="&#x201a;" horiz-adv-x="200" 
d="M44 -68q2 -2 2 -3q0 -3 -3 -7q-13 -15 -34 -15q-5 0 -7 1q-7 0 -7 11q0 12 15 67q22 76 40 99q9 12 22 16q34 13 40 13q2 0 4 -2t2 -5q0 -4 -12 -26q-41 -79 -62 -149z" />
    <glyph glyph-name="quotedblleft" unicode="&#x201c;" horiz-adv-x="309" 
d="M188 674q-5 3 2 10q14 18 40 15q14 -2 -8 -79q-22 -76 -40 -99q-8 -11 -21 -16q-43 -15 -45 -11q-3 6 10 31q39 71 62 149zM298 674q-5 4 1 10q14 18 40 15q8 -5 6 -20.5t-13 -58.5q-21 -74 -41 -99q-9 -12 -21 -16q-41 -13 -44 -11q-3 6 10 31q38 73 62 149z" />
    <glyph glyph-name="quotedblright" unicode="&#x201d;" horiz-adv-x="309" 
d="M289 516q4 -2 -1 -10q-15 -19 -40 -14q-4 0 -6 4.5t-0.5 15.5t4.5 23.5t9 34.5q21 73 40 99q11 12 22 16q41 13 44 11q4 -5 -10 -31q-38 -73 -62 -149zM180 516q4 -2 -1 -10q-17 -19 -41 -14q-4 0 -6 4.5t-0.5 15t5 23.5l9.5 35q22 76 40 99q9 12 22 16q42 15 44 11
q4 -5 -10 -31q-41 -79 -62 -149z" />
    <glyph glyph-name="quotedblbase" unicode="&#x201e;" horiz-adv-x="309" 
d="M153 -68q4 -2 -1 -10q-15 -19 -40 -14q-4 0 -6 4.5t-0.5 15.5t4.5 23.5t9 34.5q21 73 40 99q11 12 22 16q41 13 44 11q4 -5 -10 -31q-38 -73 -62 -149zM44 -68q4 -2 -1 -10q-17 -19 -41 -14q-4 0 -6 4.5t-0.5 15t5 23.5l9.5 35q22 76 40 99q9 12 22 16q42 15 44 11
q4 -5 -10 -31q-41 -79 -62 -149z" />
    <glyph glyph-name="dagger" unicode="&#x2020;" horiz-adv-x="450" 
d="M163 -116l6 46q11 68 46.5 197t77.5 246q15 0 47.5 -0.5t46.5 -1.5h9q16 0 26.5 1.5t17.5 8t9 9.5t7.5 17t8.5 19q4 7 4 13q0 9 -7 9q-5 0 -11 -6q-11 -14 -50 -15q-24 -2 -89 -2q31 85 58 135q23 43 45 43q5 0 15 -2q2 0 4 -0.5t3 -0.5q16 0 16 10q0 4 -4 7
q-54 47 -74 47q-14 0 -28 -13q-35 -29 -100 -225q-62 0 -107 5h-5q-15 0 -21.5 -9.5t-17.5 -39.5q-3 -10 -3 -17q0 -12 7 -12q4 0 7 4q2 3 4 5t5 3.5t4.5 2.5t6 2t6 1t8.5 1t10 1q13 2 37 2q26 0 43 -1q-41 -133 -75.5 -276t-45.5 -221l-2 -12q-2 -16 -2 -18q0 -11 12 -20
q35 -22 42 -22q10 0 15 21q9 37 41 110q2 4 2 6q0 9 -8 9q-5 0 -8 -6t-16 -27.5t-19 -33.5h-4z" />
    <glyph glyph-name="daggerdbl" unicode="&#x2021;" horiz-adv-x="450" 
d="M171 -70l-6 -46h4q6 12 19 33.5t16 27.5q4 10 11 5.5t3 -14.5q-32 -73 -41 -110q-7 -22 -16 -21t-41 22q-11 8 -12.5 16t2.5 22l2 12q12 96 50 248q-60 2 -84 -1q-3 0 -10 -1t-8.5 -1t-6 -1t-6 -2t-4.5 -2.5t-5 -3.5t-4 -5q-7 -10 -12 -1q-6 8 1 26q11 32 18.5 41t25.5 8
q44 -5 107 -5q24 91 57 197q-58 2 -80 -1q-3 0 -10 -1t-8.5 -1t-6 -1t-6 -2t-4.5 -2.5t-5 -3.5t-4 -5q-7 -10 -12 -1q-6 8 1 26q11 32 18.5 41t25.5 8q45 -5 107 -5q65 196 100 225q22 17 40 10.5t62 -44.5q9 -7 0 -14q-7 -4 -19 -2q-11 2 -19.5 2t-18.5 -10.5t-22 -32.5
q-27 -50 -58 -135q65 0 89 2q39 1 50 15q10 12 16 4q4 -6 -2 -20q-3 -6 -8.5 -20.5t-8 -17t-10.5 -9.5t-19.5 -8t-31.5 0q-14 1 -46.5 1.5t-47.5 0.5q-34 -93 -64 -197q72 0 99 2q39 1 50 15q10 12 16 4q4 -6 -2 -20q-3 -6 -8.5 -20.5t-8 -17t-10.5 -9.5t-19.5 -8t-31.5 0
q-15 1 -49.5 1.5t-49.5 0.5q-37 -136 -44 -194z" />
    <glyph glyph-name="bullet" unicode="&#x2022;" horiz-adv-x="264" 
d="M152 419q36 0 61 -25t25 -61q0 -35 -25 -60t-61 -25q-35 0 -60 25t-25 60q0 36 25 61t60 25z" />
    <glyph glyph-name="ellipsis" unicode="&#x2026;" horiz-adv-x="1000" 
d="M750 5q23 53 31 80q5 18 10 20t38 -8q8 -3 11 -8t1.5 -13.5t-5.5 -18l-10 -24.5q-3 -6 -4 -9q-14 -32 -27 -35.5t-42 3.5q-6 1 -7.5 6t4.5 7zM417 5q23 53 31 80q5 18 10 20t37 -8q20 -7 8 -40q-3 -8 -14 -33q-14 -32 -27.5 -35.5t-41.5 3.5q-6 1 -7.5 6t4.5 7zM84 5
q26 63 31 80q4 18 9 20t38 -8q8 -3 11.5 -8t0.5 -16.5t-6.5 -19.5l-12.5 -29q-13 -32 -26.5 -35.5t-42.5 3.5q-6 1 -7.5 6t5.5 7z" />
    <glyph glyph-name="perthousand" unicode="&#x2030;" horiz-adv-x="840" 
d="M174 406q-33 2 -56 20t-23 47q-1 33 23 96.5t54 87.5q14 11 24 12t17.5 -3.5t25.5 -20.5q5 2 13.5 6.5t12 6t9.5 3.5t8.5 2t7.5 -0.5t8 -3.5l7.5 -7.5t9.5 -11.5q16 -22 17 -39.5t-9 -47.5q-30 -92 -69 -130q-22 -20 -61 -20zM226 621q-21 -4 -23 -1q-35 -45 -50 -121
q-7 -38 0.5 -58t25.5 -20q35 0 64.5 59t38.5 120q4 20 2 27t-15 6q-34 -8 -43 -12zM334 -9q-32 2 -55.5 20.5t-23.5 46.5q-1 33 23 96.5t54 88.5q14 11 24 11.5t17.5 -4t25.5 -20.5q5 2 13.5 6.5t12 6t9.5 3.5t8.5 2t7.5 -0.5t8 -3.5l7.5 -7.5t9.5 -11.5q16 -22 17 -39.5
t-9 -47.5q-32 -96 -69 -131q-16 -16 -61 -19zM386 207q-20 -8 -23 -2q-17 -22 -31 -59t-19 -63q-7 -37 1 -57.5t25 -20.5q35 0 64.5 59.5t38.5 120.5q4 20 2 27t-15 5q-34 -7 -43 -10zM170 123q-20 -27 -45.5 -75t-19.5 -64q6 -15 0.5 -21t-16.5 2l-30 21q-26 17 -1 54
l353 501q20 29 41 71.5t14 58.5q-6 14 -0.5 20t16.5 -1l30 -20q24 -15 4 -52zM601 -9q-33 2 -56.5 20.5t-23.5 46.5q0 34 24 97t54 88q13 11 23 11.5t17.5 -4t25.5 -20.5q5 2 15.5 7.5t13.5 6.5t10 3t10 1t8.5 -3t9.5 -7l10 -13q16 -21 16.5 -39t-9.5 -48q-30 -95 -68 -131
q-16 -16 -61 -19zM652 207q-19 -8 -22 -2q-18 -22 -32 -59t-19 -63q-6 -37 2 -57.5t25 -20.5q35 0 64.5 59.5t38.5 120.5q4 20 1.5 27t-14.5 5q-34 -7 -44 -10z" />
    <glyph glyph-name="guilsinglleft" unicode="&#x2039;" horiz-adv-x="265" 
d="M244 402q12 -12 9.5 -25t-28.5 -32q-8 -6 -27 -19t-35 -25.5t-30 -26.5q-27 -27 -23 -34q46 -100 63 -150q10 -33 7 -44.5t-21 -21.5q-41 -24 -43 -12q0 6 4 21q9 32 -16.5 91.5t-62.5 113.5q-9 13 52 55q52 37 78 64q-2 18 2.5 25.5t32.5 24.5q20 12 25 9q5 -2 13 -14z
" />
    <glyph glyph-name="guilsinglright" unicode="&#x203a;" horiz-adv-x="265" 
d="M22 21q-12 12 -10 25t28 32l27 18.5t35.5 26t29.5 26.5l5.5 5.5t5.5 5t4.5 4.5t3.5 4t2.5 3t2 3.5l1 3t0.5 3t-1 2.5q-37 74 -64 150q-10 33 -6.5 45t20.5 22t26 14t13 2.5t4 -7.5t-4 -19q-9 -31 16.5 -90t63.5 -115q8 -13 -53 -55q-59 -44 -77 -64q2 -18 -3 -25t-32 -24
q-20 -13 -26 -10q-4 2 -12 14z" />
    <glyph glyph-name="fraction" unicode="&#x2044;" horiz-adv-x="210" 
d="M50 123q-20 -27 -45.5 -75t-19.5 -64q6 -15 0.5 -21t-16.5 2l-30 21q-26 17 -1 54l353 501q20 29 41 71.5t14 58.5q-6 14 -0.5 20t16.5 -1l30 -20q24 -15 4 -52z" />
    <glyph glyph-name="Euro" unicode="&#x20ac;" horiz-adv-x="545" 
d="M366 279q0 -5 -3 -13q-2 -5 -6.5 -14.5l-5.5 -11.5t-5 -7.5t-7 -6t-9.5 -3t-14 -2.5h-19.5q-19 0 -53.5 1.5t-42.5 1.5q-15 -53 -15 -98q0 -52 28 -74q21 -17 46 -17q72 0 169 101q34 36 35 67q0 11 10 11q7 0 10 -9q17 -43 17 -61q0 -26 -52 -72q-72 -64 -130 -79
q-24 -6 -41 -6q-37 0 -62 27q-95 36 -95 109q0 49 11 102q-67 0 -78 -15q-5 -10 -11 -10q-5 0 -5 8q0 5 3 14q11 32 17.5 40.5t23.5 8.5q20 0 60 -4q6 23 19 58q-35 0 -53 -1.5t-23.5 -3.5t-7.5 -7q-6 -12 -10 -12q-6 0 -6 9q0 5 3 14q11 32 17 40t24 8q11 0 39 -1.5
t35 -1.5q54 122 133.5 213t126.5 91q8 0 15 -2t16 -8t14.5 -10.5l18 -15l18.5 -15.5q1 19 14 19q10 0 33.5 -17t23.5 -28q0 -7 -6 -33q-24 -97 -54 -147q-13 -24 -28 -24q-13 0 -31.5 9.5t-18.5 19.5q0 7 10 10q43 65 51 155q-27 24 -51 24q-46 0 -104.5 -70.5
t-106.5 -172.5q59 0 72 1q36 2 47 15q6 6 11 6q8 0 8 -9q0 -2 -9 -25q-9 -21 -19 -27.5t-37 -6.5q-7 0 -38.5 2t-52.5 2q-11 -24 -22 -59q72 0 87 1q40 3 50 15q6 6 11 6q6 0 6 -9z" />
    <glyph glyph-name="litre" unicode="&#x2113;" horiz-adv-x="448" 
d="M367 47q-59 -61 -119 -61q-48 0 -79 31q-38 38 -38 122v107l-53 -61l-10.5 12.5l-12 14.5t-10.5 12l86 99v231q0 87 32.5 130.5t87.5 43.5q49 0 72.5 -32.5t23.5 -74.5q0 -116 -109 -265l-28 -37v-180q0 -89 55 -89q34 0 75 45zM292 613q0 52 -35 52q-47 0 -47 -106v-157
q5 6 13 20q69 104 69 191z" />
    <glyph glyph-name="trademark" unicode="&#x2122;" horiz-adv-x="616" 
d="M229 485v164q-33 -1 -44.5 -5.5t-12.5 -24.5q0 -9 -9 -9q-8 0 -8 9q0 5 0.5 12t0.5 11l1 21q0 15 10 15q4 0 7 -3q3 -8 44 -8h66q41 0 46 7q4 4 7 4q7 0 7 -11v-25l1 -23q0 -10 -8 -10t-9 11q0 17 -13 23t-43 6q0 -9 -0.5 -40t-0.5 -43v-81q0 -10 3.5 -15t7 -6t9.5 -2
q11 -2 11 -7q0 -6 -17 -6q-2 0 -7.5 0.5t-8.5 0.5q-6 1 -17 1q-16 0 -23 -1q-3 0 -7 -0.5t-5 -0.5q-19 0 -19 6q0 5 10 7q21 2 21 23zM564 451h11q11 0 17 -1q3 0 7.5 -0.5t5.5 -0.5q15 0 15 6q0 4 -9 6q-13 4 -14 21q-2 43 -3 82q0 10 -1 37t-2 39q1 15 17 18q9 2 9 7
q0 6 -9 6l-31 -2q-1 0 -14.5 0.5t-17.5 0.5q-8 -24 -26.5 -86.5t-29.5 -91.5l-56 178l-31 -1l-33 2q-9 0 -9 -6q0 -5 12 -7q13 -2 14 -21l-6 -152q0 -19 -15 -24q-10 -2 -10 -7t15 -5q7 0 12 1q2 0 7.5 0.5t6.5 0.5q10 0 15 -1q3 0 7.5 -0.5t5.5 -0.5q16 0 16 6q0 4 -12 6
q-6 1 -10 3t-8 6.5t-4 11.5q1 12 1.5 38.5t0.5 38.5t1 33.5t1 32.5l60 -180l30 9l27.5 88.5l25.5 82.5q2 -40 2 -68q1 -25 1 -73q-1 -19 -19 -21q-13 -2 -13 -8t15 -6q11 0 15 1q2 0 5.5 0.5t4.5 0.5z" />
    <glyph glyph-name="Omega" unicode="&#x2126;" horiz-adv-x="650" 
d="M592 0h-209v70q121 123 121 304q0 119 -48 191.5t-135 72.5t-137.5 -74t-50.5 -191q0 -182 123 -303v-70h-209v70h134q-137 127 -137 318q0 140 78 232t202 92q125 0 197 -88.5t72 -233.5q0 -192 -136 -320h135v-70z" />
    <glyph glyph-name="estimated" unicode="&#x212e;" horiz-adv-x="625" 
d="M569 268h-414v-184q62 -60 147 -60q125 0 197 122l35 -21q-47 -69 -100.5 -103t-131.5 -34q-119 0 -190 80t-71 200t71 200t190 80q121 0 191.5 -78.5t75.5 -201.5zM450 304v146q-61 62 -149 62q-86 0 -146 -60v-148h295z" />
    <glyph glyph-name="partialdiff" unicode="&#x2202;" horiz-adv-x="516" 
d="M486 491q0 -89 -24 -196q-14 -57 -36 -108.5t-53.5 -97t-76 -72.5t-95.5 -27q-74 0 -120 50t-46 132q0 139 74.5 232.5t173.5 93.5q40 0 70 -18.5t44 -44.5h1q5 37 5 72q0 155 -120 155q-43 0 -82 -23q-3 8 -9.5 28t-10.5 31q45 29 112 29q89 0 141 -59.5t52 -176.5z
M388 359q-23 76 -98 76q-68 0 -119.5 -80.5t-51.5 -187.5q0 -52 23 -81.5t60 -29.5q64 0 113.5 83t72.5 220z" />
    <glyph glyph-name="Delta" unicode="&#x2206;" horiz-adv-x="533" 
d="M541 0h-523v41l208 659h110l205 -659v-41zM442 70l-149 490q-7 23 -14 57h-3q-3 -14 -13 -56l-149 -491h328z" />
    <glyph glyph-name="product" unicode="&#x220f;" horiz-adv-x="641" 
d="M566 -230h-85v856h-320v-856h-86v930h491v-930z" />
    <glyph glyph-name="summation" unicode="&#x2211;" horiz-adv-x="567" 
d="M519 -230h-494v40l279 429l-258 415v46h450v-70h-350l244 -389l-262 -401h391v-70z" />
    <glyph glyph-name="minus" unicode="&#x2212;" 
d="M391 211h-338v50h338v-50z" />
    <glyph glyph-name="uni2215" unicode="&#x2215;" horiz-adv-x="210" 
d="M50 123q-20 -27 -45.5 -75t-19.5 -64q6 -15 0.5 -21t-16.5 2l-30 21q-26 17 -1 54l353 501q20 29 41 71.5t14 58.5q-6 14 -0.5 20t16.5 -1l30 -20q24 -15 4 -52z" />
    <glyph glyph-name="uni2219" unicode="&#x2219;" horiz-adv-x="168" 
d="M61 289q26 59 31 80q5 18 10 20t38 -8q8 -3 11 -8t1.5 -13.5t-5.5 -18l-10 -24.5q-3 -6 -4 -9q-13 -32 -26.5 -35.5t-42.5 3.5q-6 1 -7.5 6t4.5 7z" />
    <glyph glyph-name="radical" unicode="&#x221a;" horiz-adv-x="433" 
d="M450 728l-156 -740h-74l-117 332l-50 -29l-29 48l120 74l111 -318l133 633h62z" />
    <glyph glyph-name="infinity" unicode="&#x221e;" horiz-adv-x="692" 
d="M646 293q0 -67 -42 -112t-104 -45q-99 0 -158 99h-2q-64 -99 -152 -99q-63 0 -107 42t-44 112t43 113t106 43q96 0 155 -98h2q23 39 62.5 68.5t90.5 29.5q64 0 107 -43t43 -110zM576 293q0 40 -22 65.5t-62 25.5q-36 0 -63 -23t-55 -69q49 -94 117 -94q40 0 62.5 27.5
t22.5 67.5zM309 292q-52 92 -117 92q-41 0 -63 -27t-22 -67t24 -66t61 -26q66 0 117 94z" />
    <glyph glyph-name="integral" unicode="&#x222b;" horiz-adv-x="447" 
d="M369 675q-19 7 -37 7q-71 0 -71 -93v-646q0 -75 -37 -120t-110 -45q-43 0 -63 10l15 63q16 -6 38 -6q72 0 72 92v646q0 75 38 120.5t111 45.5q42 0 62 -12q-2 -5 -8 -27.5t-10 -34.5z" />
    <glyph glyph-name="approxequal" unicode="&#x2248;" 
d="M396 375q-8 -49 -33 -79.5t-66 -30.5q-38 0 -91 39q-37 26 -60 26q-26 0 -40.5 -16.5t-25.5 -52.5l-34 14q18 111 101 111q36 0 85 -35q41 -31 69 -31q22 0 36 17t25 52zM396 198q-8 -50 -33 -80.5t-66 -30.5q-38 0 -91 39q-36 27 -60 27q-26 0 -40.5 -16.5t-25.5 -53.5
l-34 15q7 43 30.5 76.5t70.5 33.5q38 0 85 -35q41 -30 69 -30q22 0 36 16.5t25 51.5z" />
    <glyph glyph-name="notequal" unicode="&#x2260;" 
d="M391 121h-188l-56 -159h-49l56 159h-101v50h118l46 130h-164v50h181l57 162h49l-57 -162h108v-50h-125l-46 -130h171v-50z" />
    <glyph glyph-name="lessequal" unicode="&#x2264;" 
d="M381 0h-338v50h338v-50zM381 99l-338 176v44l338 176v-56l-278 -141l278 -143v-56z" />
    <glyph glyph-name="greaterequal" unicode="&#x2265;" 
d="M391 0h-338v50h338v-50zM391 275l-338 -176v56l277 141l-277 143v56l338 -176v-44z" />
    <glyph glyph-name="lozenge" unicode="&#x25ca;" horiz-adv-x="493" 
d="M431 350l-174 -350h-42l-173 349l173 351h42zM364 350l-128 262l-127 -262l127 -262z" />
    <glyph glyph-name="T_h" unicode="&#xe000;" horiz-adv-x="853" 
d="M610 587q-76 -13 -132 -16q-38 -83 -91.5 -260t-78.5 -290q-8 -32 -17 -35.5t-49 9.5q-4 1 -6.5 2.5t-4 4.5l-2.5 5t-1 6.5v7v9.5v11q0 24 7.5 64t17.5 64q5 12 10 17t8.5 5t12.5 -2.5t14 -2.5q13 49 65.5 203.5t58.5 175.5q-76 -6 -155 -25t-106 -42q-29 -24 -28.5 -52
t32.5 -87q8 -16 -2 -22.5t-20 7.5q-69 95 -62.5 153t97.5 83q136 37 272 49q2 3 5.5 11.5t5 10.5t5.5 6.5t7 3.5t8.5 -2.5t13 -7.5t17.5 -15q55 4 128 15q19 38 40 74l23 37.5t20 26l16 17t15 7.5t14 0.5t15.5 -7t16.5 -11.5l20.5 -17l24.5 -20q7 -5 6 -11t-7 -7.5t-14 1.5
q-14 8 -22 10t-21.5 0.5t-27.5 -16t-30 -42.5q-4 -21 -2 -37.5t4.5 -28t-10 -20t-45.5 -14.5q-90 -192 -138 -450q44 85 95 149t87 95l17.5 14t12.5 5.5t8.5 -0.5t9 -6t9.5 -7q3 -1 9.5 -3.5t8.5 -3.5t7.5 -4t6.5 -5.5t5 -7.5t3.5 -11t1.5 -15.5t-1 -19.5q-9 -93 -50 -210
q37 48 49 60q13 14 16 6t-5 -21q-52 -72 -75 -120l-19 -41q-10 -23 -35 -10q-2 1 -14 8q-13 7 -13.5 13t4.5 12q86 211 89 315q1 29 -8.5 29.5t-26.5 -16.5q-38 -31 -101.5 -120t-102.5 -195q-7 -20 -12.5 -25.5t-13.5 -2.5t-27 18q-12 10 -7 34q50 309 144 530z" />
    <glyph glyph-name="d.alt" unicode="&#xe001;" horiz-adv-x="333" 
d="M28 72q7 82 34.5 171.5t64.5 143.5q16 24 45 22t83 -34q12 -7 7 -14t-15 -4q-28 13 -48.5 5.5t-43.5 -45.5q-23 -39 -44 -110t-27 -130q-4 -42 21.5 -51.5t51.5 21.5q43 54 83.5 144t50.5 177q1 5 0.5 9.5t-3 8.5t-4 6t-6 6.5l-6.5 6.5q-64 71 -161 134t-147 61
q-14 0 -28 -5.5t-21 -10.5t-18 -14.5t-12 -10.5q-10 -9 -16 -5t0 16q28 58 61 83.5t81 10.5q63 -20 168 -98t153 -143q16 -22 -4 -59q3 -1 4 -2.5l2 -3t1 -4v-5t-1 -7.5t-2.5 -10t-3 -13.5t-3.5 -17.5q-7 -42 -43 -125t-95 -153q-26 -31 -46.5 -34.5t-58.5 15.5
q-5 2 -15 7.5t-14 7.5t-11 7.5t-9.5 11t-4 14.5t-0.5 20z" />
    <glyph glyph-name="orn.001" unicode="&#xe002;" horiz-adv-x="1154" 
d="M309 376q-72 -37 -105 -37q-23 0 -43 27q-8 9 4 9q3 0 7 -1q12 -4 35 -4q26 0 66 16q-49 12 -85 12q-58 0 -89.5 -38t-31.5 -75q0 -54 23 -64q11 -4 19 7q68 93 249 128q-28 14 -49 20zM409 325q-125 -24 -195 -70.5t-74 -93.5q-1 -12 4 -25t8 -17t-2 -11q-14 -10 -31 10
q-76 91 -76 174q0 59 48 97t102 38q63 0 119 -24q77 37 141.5 92t60.5 87q-1 11 3 13.5t10 -2.5q2 -1 4 -2.5t3.5 -2.5t3 -2.5l2.5 -2.5t1.5 -3t1 -4.5t0.5 -5.5q0 -33 -61 -83.5t-143 -95.5q32 -16 51 -29q50 8 250.5 26.5t212.5 20.5q84 14 147 37.5t63 55.5q0 9 -3 17
t-4 10t3 8q3 1 8 2t11.5 -4.5t12 -13.5t9.5 -24t4 -38q0 -31 -18.5 -77.5t-51 -95t-87.5 -82.5t-119 -34q-16 0 -33 16t-28 36q-25 25 -25 46q0 19 38 54.5t71 41.5q6 1 9.5 -1.5t2.5 -6t-4 -5.5q-29 -17 -54 -48.5t-25 -56.5q0 -30 52 -30q45 0 90 27t74 62t47.5 63.5
t18.5 36.5q0 9 -5 10t-11 -3q-42 -19 -147 -32t-246.5 -25.5t-219.5 -25.5q57 -50 97.5 -112t57.5 -123q6 -24 -2 -24q-7 0 -13 18q-25 72 -68 134.5t-96 102.5zM458 249q11 2 13.5 -6t-9.5 -13q-11 -5 -29 -15.5t-18 -15.5q0 -22 26.5 -51.5t58 -53t57 -50.5t23.5 -45
q28 13 44.5 45.5t16.5 65.5q0 40 -15 76.5t-37 59t-46 33t-42 3.5q-5 -2 -9.5 0t-5.5 6t2 7q29 23 54 23q46 0 86 -64t40 -126q0 -75 -35 -118.5t-97 -69.5q-7 -3 -12 -0.5t-5.5 6.5t2.5 8q13 11 13 43q0 21 -24 47.5t-53.5 47t-53.5 43t-24 35.5q0 14 14 35q0 22 12 30.5
t53 13.5zM414 488q-23 19 -30 30t-6 24t22.5 29t47 29t47 33t23.5 41t-8 33q-6 9 1 14q8 7 16 -1q93 -84 93 -156q0 -41 -28.5 -70t-57.5 -29q-17 0 -22 3t-6 15q-1 10 1 12t10 -1q21 -1 45 22.5t24 60.5q0 49 -37 90q8 -18 -10 -38.5t-45.5 -36t-52 -34t-25.5 -32.5
q-2 -16 8 -26q7 -7 2.5 -12.5t-12.5 0.5zM685 416q-16 19 -16 48q0 11 3 23t19.5 27.5t44.5 17.5t120 -10t133 -7q14 2 20 5.5t6 4.5v6q1 9 10 9q8 0 9 -11v-25t-5.5 -17.5t-16.5 -6.5q-1 0 -111 9.5t-138 5.5q-63 -9 -68 -49q-1 -11 5 -23q7 -9 1 -12q-7 -4 -16 5z" />
    <glyph glyph-name="orn.002" unicode="&#xe003;" horiz-adv-x="1061" 
d="M78 375q-22 66 -22 80q0 28 39 40q29 8 89 13q70 5 373.5 -11.5t387.5 -4.5q21 4 29 14t9 32q0 7 4.5 10t9 0.5t4.5 -9.5q5 -53 2.5 -74.5t-15.5 -29.5q-10 -12 -118 -10t-218 10l-233.5 16.5t-165.5 8.5q-110 0 -148 -34q-17 -16 -10 -47q2 -9 -5.5 -12t-11.5 8zM60 133
q-14 37 -13 54.5t26 23.5q38 10 125 44t127 61q17 11 14 26q-2 11 6 11q4 -1 6 -8q11 -38 6 -49q-5 -14 -68 -41q98 21 280 23.5t226 -6.5q17 -2 21.5 -9.5t5.5 -26.5v-5q0 -9 -4 -11t-18 0q-18 3 -90.5 3.5t-111.5 -5.5q95 -1 219.5 -15t173.5 -30q21 -6 23 -16.5t-4 -43.5
q-1 -10 -4.5 -13t-7 1.5t-3.5 13.5q-1 12 -25.5 24t-54.5 20q-67 16 -159.5 23.5t-161.5 6.5t-100 -6q-23 -4 -25 -18q-1 -6 -4 -9t-6.5 -1t-4.5 9q-7 37 -5.5 46.5t16.5 14.5q51 18 87 21q-75 5 -247.5 -26t-213.5 -59q-17 -11 -15 -25q0 -8 -2.5 -12t-6.5 -1.5t-7 10.5z
" />
    </font>
</defs>
</svg>
